<svg width="44" height="44" viewBox="0 0 44 44" fill="none" xmlns="http://www.w3.org/2000/svg">
<path d="M0 22C0 9.84974 9.84974 0 22 0C34.1503 0 44 9.84974 44 22C44 34.1503 34.1503 44 22 44C9.84974 44 0 34.1503 0 22Z" fill="#EFF6FF"/>
<path d="M31.8327 16.8109C31.7222 16.9332 31.6061 17.0357 31.4937 17.1081C31.3799 17.1824 31.2758 17.2221 31.1653 17.235C31.0552 17.2479 30.9276 17.2285 30.7862 17.1741C30.6452 17.1201 30.496 17.0338 30.3486 16.93C30.0524 16.7228 29.7627 16.4556 29.4757 16.1819L29.2592 15.9734C29.1804 15.8967 29.0994 15.8229 29.0146 15.7518C28.8442 15.6106 28.6576 15.4837 28.4554 15.3808C28.2541 15.277 28.0339 15.2032 27.8082 15.1649C27.5821 15.1279 27.3508 15.1298 27.1307 15.1676C26.6875 15.2438 26.2988 15.4519 25.9648 15.7011C25.63 15.9526 25.3421 16.2493 25.0837 16.5645C24.8271 16.8811 24.5963 17.2161 24.4001 17.5691C24.6355 17.2419 24.9022 16.9392 25.1882 16.6609C25.4752 16.3845 25.7856 16.1335 26.1214 15.9387C26.4559 15.7445 26.8202 15.6093 27.1799 15.5922C27.5392 15.5723 27.8815 15.678 28.174 15.8755C28.3209 15.9734 28.4568 16.0915 28.5821 16.223C28.6447 16.2895 28.7046 16.3587 28.7627 16.4302L28.9547 16.6665C29.2154 16.9821 29.4821 17.301 29.8129 17.6005C29.9782 17.7495 30.1625 17.894 30.384 18.0149C30.6038 18.1349 30.8732 18.2299 31.1662 18.241C31.4582 18.2544 31.7526 18.1801 31.993 18.0643C32.2371 17.9494 32.4421 17.8022 32.6231 17.6476L32.6333 17.6388C32.8756 17.4321 32.9046 17.0675 32.6987 16.8248C32.4923 16.582 32.1284 16.553 31.8861 16.7592C31.8677 16.7749 31.8484 16.7938 31.8327 16.8109Z" fill="#3B82F6"/>
<path d="M31.7986 17.5059C31.718 17.3933 31.678 17.2636 31.6756 17.1349C31.6273 17.097 31.5835 17.0523 31.5458 16.9997C31.3339 16.7029 31.402 16.2899 31.6982 16.0777C31.7024 16.0749 31.707 16.0721 31.7111 16.0693C31.6996 15.8515 31.7954 15.6328 31.9852 15.4967C32.0073 15.481 32.0303 15.4671 32.0534 15.4542C32.0686 15.2673 32.1625 15.0883 32.3265 14.9701C32.4269 14.8981 32.5407 14.8589 32.6554 14.8497C32.6476 14.6356 32.7434 14.4214 32.9304 14.2872C33.1174 14.1529 33.3505 14.1312 33.5504 14.2078C33.5964 14.1021 33.6697 14.0066 33.7701 13.9346C33.9341 13.8169 34.1335 13.7855 34.3155 13.8312C34.3348 13.8132 34.3556 13.7957 34.3777 13.78C34.5674 13.6439 34.8051 13.6236 35.0073 13.7043C35.0115 13.7011 35.0152 13.6979 35.0193 13.6951C35.3155 13.4828 35.7273 13.5511 35.9396 13.8478C35.977 13.9004 36.0055 13.9563 36.0258 14.0144C36.1469 14.0583 36.2561 14.1381 36.3367 14.2507C36.4173 14.3633 36.4574 14.493 36.4597 14.6217C36.5081 14.6596 36.5518 14.7043 36.5896 14.7569C36.8015 15.0537 36.7333 15.4662 36.4371 15.6789C36.433 15.6817 36.4284 15.6845 36.4242 15.6872C36.4357 15.9051 36.3399 16.1238 36.1501 16.2599C36.128 16.2756 36.105 16.2895 36.082 16.3024C36.0668 16.4893 35.9728 16.6683 35.8088 16.7865C35.7084 16.8585 35.5946 16.8977 35.4799 16.9069C35.4878 17.121 35.392 17.3352 35.2049 17.4694C35.0179 17.6037 34.7849 17.6254 34.5849 17.5488C34.5389 17.6545 34.4656 17.75 34.3652 17.822C34.2012 17.9397 34.0013 17.9711 33.8199 17.9254C33.8005 17.9434 33.7798 17.9609 33.7577 17.9766C33.5679 18.1127 33.3302 18.133 33.128 18.0523C33.1239 18.0555 33.1202 18.0587 33.116 18.0615C32.8198 18.2738 32.4076 18.2055 32.1957 17.9088C32.1584 17.8561 32.1298 17.8003 32.1096 17.7422C31.9889 17.6979 31.8792 17.6185 31.7986 17.5059Z" fill="#93C5FD"/>
<path d="M33.8825 14.4547C33.8825 14.4547 33.8889 14.4589 33.9013 14.4672C33.9129 14.4759 33.9327 14.4856 33.9529 14.5046C33.9635 14.5138 33.975 14.5239 33.9879 14.535C33.9995 14.5475 34.0119 14.5608 34.0248 14.5752C34.0377 14.5899 34.0492 14.607 34.063 14.6245C34.0759 14.6425 34.0865 14.6633 34.099 14.6841C34.1095 14.7058 34.1206 14.7288 34.1303 14.7533C34.1386 14.7782 34.1487 14.804 34.1538 14.8317C34.168 14.8862 34.1731 14.9466 34.1708 15.0085C34.168 15.0703 34.1556 15.1345 34.1344 15.1963C34.1119 15.2581 34.0791 15.3167 34.0405 15.3707C34.0165 15.398 34.0018 15.4192 33.9746 15.4436C33.9506 15.4686 33.9239 15.4884 33.8981 15.5082C33.8447 15.5456 33.7867 15.5747 33.7277 15.5941C33.6687 15.613 33.6098 15.6245 33.5531 15.6255C33.525 15.6278 33.4978 15.625 33.4716 15.6241C33.4453 15.6213 33.4205 15.6167 33.3965 15.6125C33.373 15.6061 33.3504 15.6015 33.3297 15.5936C33.309 15.5853 33.2896 15.5788 33.2717 15.5705C33.2542 15.5618 33.2381 15.5535 33.2233 15.5456C33.2095 15.5364 33.1966 15.5281 33.1846 15.5202C33.1607 15.5059 33.1459 15.4893 33.1344 15.4806C33.1234 15.4709 33.1174 15.4658 33.1174 15.4658C33.1174 15.4658 33.1243 15.4695 33.1372 15.4764C33.1505 15.4829 33.168 15.4944 33.1934 15.5046C33.2058 15.5096 33.2192 15.5156 33.2344 15.5221C33.2496 15.5272 33.2662 15.5327 33.2837 15.5382C33.3191 15.5484 33.3601 15.5562 33.4043 15.5613C33.449 15.5645 33.4974 15.5655 33.5476 15.5585C33.5983 15.5535 33.6494 15.5382 33.701 15.5198C33.7526 15.5009 33.8005 15.4704 33.847 15.4381C33.8691 15.4201 33.8921 15.4026 33.911 15.3823C33.9304 15.3656 33.952 15.3357 33.9691 15.3163C34.0031 15.2697 34.0326 15.2194 34.0534 15.1658C34.0722 15.1123 34.0879 15.0574 34.0925 15.0025C34.0962 14.948 34.0976 14.894 34.0884 14.8442C34.0814 14.7939 34.0672 14.7473 34.0524 14.7053C34.0354 14.6638 34.0165 14.6268 33.9976 14.595C33.9875 14.5798 33.9778 14.565 33.9686 14.5516C33.9585 14.5392 33.9493 14.5276 33.941 14.517C33.9248 14.4953 33.9083 14.481 33.8986 14.4699C33.8875 14.4602 33.8825 14.4547 33.8825 14.4547Z" fill="#3B82F6"/>
<path d="M34.3385 16.8589C34.3385 16.8589 34.3362 16.8829 34.332 16.9244C34.3274 16.9447 34.3242 16.9706 34.3159 16.9987C34.3118 17.013 34.3072 17.0278 34.3021 17.0435C34.2966 17.0592 34.2892 17.0749 34.2823 17.0915C34.2671 17.1242 34.2487 17.1593 34.2243 17.1934C34.2008 17.2281 34.1717 17.2617 34.1386 17.2936C34.1225 17.3102 34.1036 17.3236 34.0856 17.3393C34.0667 17.3531 34.0465 17.3665 34.0262 17.3799C33.9843 17.4039 33.9396 17.426 33.8921 17.4408L33.8567 17.4519L33.8203 17.4597C33.7963 17.4657 33.7715 17.468 33.747 17.4703C33.6982 17.4745 33.6489 17.4736 33.6033 17.468C33.5089 17.456 33.4251 17.4246 33.3592 17.3863C33.2929 17.3485 33.2445 17.306 33.2132 17.2742C33.1819 17.2419 33.1662 17.2216 33.1662 17.2216L33.2376 17.1671C33.2376 17.1671 33.25 17.1856 33.2758 17.2151C33.3016 17.2442 33.3417 17.2844 33.3984 17.3213C33.4545 17.3587 33.5287 17.3914 33.6121 17.4071C33.6549 17.415 33.6987 17.4186 33.7438 17.4173C33.7664 17.4163 33.7894 17.4154 33.812 17.4113L33.8461 17.4062L33.8797 17.3979C33.9248 17.3868 33.9677 17.3688 34.0087 17.3485C34.0285 17.3374 34.0483 17.3259 34.0672 17.3134C34.0851 17.2996 34.104 17.288 34.1202 17.2728C34.1533 17.2442 34.1833 17.2138 34.2081 17.1815C34.2335 17.1501 34.2537 17.1168 34.2703 17.0855C34.2781 17.0693 34.286 17.0541 34.2924 17.0393C34.298 17.0241 34.3035 17.0098 34.3085 16.9959C34.3182 16.9687 34.3228 16.9438 34.3288 16.9235C34.3348 16.8824 34.3385 16.8589 34.3385 16.8589Z" fill="#3B82F6"/>
<path d="M32.6535 16.3749C32.6535 16.3749 32.6614 16.3753 32.6761 16.3758C32.6909 16.3772 32.712 16.3749 32.7397 16.3804C32.7535 16.3827 32.7687 16.385 32.7853 16.3878C32.8014 16.3924 32.8189 16.397 32.8378 16.4021C32.8567 16.4076 32.8756 16.4164 32.8963 16.4238C32.9166 16.4321 32.9364 16.4441 32.9585 16.4552C32.9788 16.4681 33.0004 16.4815 33.0216 16.4972C33.0419 16.5138 33.064 16.5304 33.0829 16.5512C33.1238 16.5899 33.1598 16.6384 33.1906 16.6919C33.221 16.7459 33.2445 16.8068 33.2588 16.8705C33.2722 16.9356 33.2759 16.9997 33.2712 17.0708C33.2643 17.1294 33.2482 17.2014 33.2233 17.2609C33.1975 17.3213 33.1639 17.3767 33.1238 17.4243C33.0838 17.4713 33.0396 17.5129 32.9926 17.5433C32.97 17.5604 32.9456 17.5724 32.9226 17.5853C32.8991 17.5968 32.8751 17.6061 32.8525 17.6153C32.829 17.6222 32.8074 17.6305 32.7857 17.6351C32.7641 17.6388 32.7438 17.6439 32.7245 17.6462C32.7051 17.6481 32.6872 17.6494 32.6701 17.6508C32.6535 17.6504 32.6379 17.6499 32.6241 17.6499C32.5964 17.6504 32.5748 17.6444 32.5605 17.643C32.5462 17.6407 32.5384 17.6398 32.5384 17.6398C32.5384 17.6398 32.5462 17.6393 32.561 17.6384C32.5757 17.6365 32.5969 17.6375 32.6236 17.6324C32.637 17.6301 32.6517 17.6278 32.6674 17.6255C32.683 17.6218 32.6996 17.6176 32.718 17.613C32.7535 17.6024 32.7922 17.5876 32.8327 17.5687C32.8723 17.5475 32.9138 17.523 32.953 17.4902C32.993 17.4593 33.0285 17.4187 33.0626 17.3758C33.0962 17.3324 33.1211 17.2812 33.1437 17.2291C33.1644 17.1741 33.1754 17.1238 33.1828 17.0588C33.1865 17.0057 33.1856 16.9439 33.1745 16.889C33.1621 16.8336 33.1464 16.7787 33.1215 16.7297C33.0962 16.6818 33.0686 16.6351 33.0345 16.5978C33.0018 16.5585 32.9654 16.5267 32.9304 16.499C32.894 16.4727 32.8585 16.4515 32.8254 16.4344C32.8083 16.4266 32.7927 16.4196 32.7779 16.4132C32.7627 16.4076 32.7489 16.403 32.7365 16.3984C32.7116 16.3887 32.6895 16.3855 32.6757 16.3813C32.6614 16.3767 32.6535 16.3749 32.6535 16.3749Z" fill="#3B82F6"/>
<path d="M35.724 15.4565C35.724 15.4565 35.7236 15.4643 35.7227 15.4791C35.7208 15.4939 35.7222 15.5156 35.7158 15.5423C35.713 15.5562 35.7102 15.5714 35.707 15.588C35.7019 15.6042 35.6969 15.6217 35.6909 15.6402C35.6844 15.6586 35.6757 15.6775 35.6669 15.6978C35.6582 15.7182 35.6453 15.7375 35.6333 15.7588C35.6195 15.7786 35.6057 15.7998 35.5891 15.8206C35.5716 15.8404 35.5545 15.8617 35.5329 15.8801C35.4928 15.9198 35.4431 15.9544 35.3887 15.9835C35.3339 16.0121 35.2726 16.0333 35.2081 16.0458C35.1437 16.0573 35.0764 16.0578 35.0105 16.0518C34.9751 16.0449 34.9493 16.0421 34.9143 16.031C34.8806 16.0227 34.8502 16.0093 34.8203 15.9973C34.7609 15.9697 34.707 15.9337 34.6605 15.8921C34.6149 15.8506 34.5752 15.8049 34.5462 15.7565C34.5301 15.7334 34.5186 15.708 34.5066 15.6849C34.496 15.6609 34.4873 15.6369 34.479 15.6139C34.473 15.5903 34.4652 15.5682 34.4615 15.5465C34.4582 15.5243 34.4541 15.504 34.4527 15.4847C34.4518 15.4653 34.4509 15.4468 34.45 15.4302C34.4509 15.4136 34.4518 15.3979 34.4527 15.3841C34.4532 15.3564 34.4601 15.3351 34.4619 15.3204C34.4647 15.3061 34.4661 15.2982 34.4661 15.2982C34.4661 15.2982 34.4665 15.3061 34.467 15.3208C34.4679 15.3356 34.467 15.3568 34.4707 15.3836C34.4725 15.397 34.4744 15.4117 34.4762 15.4279C34.4794 15.4436 34.4831 15.4607 34.4868 15.4787C34.496 15.5146 34.5094 15.5539 34.5273 15.5949C34.5471 15.6351 34.5702 15.678 34.6015 15.7182C34.631 15.7597 34.6701 15.7961 34.7116 15.8317C34.754 15.8667 34.8037 15.8935 34.8553 15.9175C34.882 15.9277 34.9087 15.9387 34.9354 15.9452C34.9594 15.9535 34.9963 15.9577 35.0216 15.9627C35.0792 15.9692 35.1372 15.9692 35.1939 15.9604C35.2496 15.9498 35.3049 15.936 35.3542 15.9129C35.403 15.8889 35.4504 15.8631 35.4891 15.8303C35.5292 15.7989 35.5624 15.7638 35.5914 15.7292C35.6186 15.6937 35.6416 15.6591 35.6591 15.6263C35.6674 15.6097 35.6748 15.594 35.6821 15.5797C35.6881 15.5649 35.6932 15.5511 35.6982 15.5386C35.7088 15.5137 35.713 15.492 35.7176 15.4782C35.7217 15.4639 35.724 15.4565 35.724 15.4565Z" fill="#3B82F6"/>
<path d="M34.97 15.9942C34.97 15.9942 34.9641 16.0085 34.9535 16.0339C34.9507 16.0403 34.9479 16.0472 34.9447 16.0546C34.9406 16.0625 34.936 16.0712 34.9309 16.0805C34.9212 16.0989 34.9102 16.1197 34.8954 16.1395C34.8885 16.1497 34.8811 16.1603 34.8738 16.1714C34.865 16.1815 34.8563 16.1921 34.8475 16.2032C34.8305 16.2258 34.8074 16.2448 34.7858 16.2669C34.7618 16.2858 34.7383 16.3071 34.7107 16.3237C34.6849 16.3421 34.6554 16.3564 34.6269 16.3717C34.5969 16.3837 34.5679 16.397 34.5371 16.4053C34.5071 16.416 34.4763 16.4201 34.4472 16.4261C34.4173 16.4284 34.3892 16.434 34.3616 16.4326C34.3482 16.4326 34.3348 16.4326 34.3219 16.4326C34.309 16.4312 34.2971 16.4303 34.2851 16.4289C34.2616 16.4275 34.2404 16.4229 34.2215 16.4187C34.2026 16.4155 34.1865 16.4113 34.1736 16.4067C34.1474 16.3989 34.1326 16.3943 34.1326 16.3943C34.1326 16.3943 34.1478 16.3975 34.1745 16.403C34.1879 16.4063 34.204 16.409 34.2229 16.4104C34.2418 16.4127 34.2625 16.415 34.286 16.4146C34.2975 16.4146 34.3095 16.4146 34.3219 16.4146C34.3344 16.4136 34.3473 16.4123 34.3602 16.4109C34.3864 16.41 34.4136 16.4021 34.4412 16.3975C34.4684 16.3887 34.4974 16.3823 34.5246 16.3698C34.5527 16.3597 34.579 16.3444 34.6057 16.331C34.631 16.3144 34.6568 16.2992 34.6789 16.2798C34.7029 16.2627 34.7222 16.2411 34.7425 16.2221C34.76 16.2005 34.7793 16.1815 34.7927 16.1598C34.8001 16.1497 34.807 16.1395 34.8139 16.1298C34.8199 16.1197 34.8254 16.1095 34.8305 16.0999C34.842 16.0809 34.8494 16.0629 34.8558 16.0472C34.859 16.0394 34.8623 16.032 34.8655 16.0256C34.8678 16.0177 34.8701 16.0108 34.8724 16.0039C34.8807 15.978 34.8853 15.9633 34.8853 15.9633L34.97 15.9942Z" fill="#3B82F6"/>
<path d="M33.5513 15.5825C33.5513 15.5825 33.5518 15.5982 33.5522 15.6254C33.5522 15.6324 33.5527 15.6397 33.5527 15.648C33.5522 15.6573 33.5513 15.667 33.5504 15.6771C33.549 15.6979 33.5476 15.7214 33.5421 15.7454C33.5398 15.7574 33.5375 15.7703 33.5352 15.7833C33.5315 15.7962 33.5278 15.8091 33.5236 15.8229C33.5172 15.8506 33.5038 15.8774 33.4932 15.906C33.479 15.9332 33.4661 15.9623 33.4476 15.9882C33.4315 16.0158 33.4103 16.0403 33.3905 16.0657C33.368 16.0888 33.3468 16.1132 33.3219 16.1331C33.2989 16.1547 33.2721 16.1714 33.2482 16.1889C33.2219 16.2032 33.198 16.2193 33.1727 16.2295C33.1602 16.235 33.1482 16.2406 33.1367 16.2457C33.1248 16.2498 33.1128 16.2535 33.1017 16.2572C33.0796 16.2655 33.0584 16.2696 33.0395 16.2738C33.0211 16.2784 33.0045 16.2812 32.9912 16.2826C32.964 16.2858 32.9488 16.2876 32.9488 16.2876C32.9488 16.2876 32.964 16.2844 32.9907 16.2789C33.0041 16.2766 33.0202 16.2724 33.0377 16.266C33.0557 16.2604 33.0759 16.254 33.0967 16.2443C33.1072 16.2397 33.1183 16.235 33.1294 16.23C33.1399 16.224 33.1515 16.2175 33.163 16.211C33.1865 16.1995 33.2081 16.1815 33.2316 16.1658C33.2533 16.1469 33.2768 16.1294 33.2966 16.1067C33.3182 16.086 33.3362 16.0615 33.3546 16.0385C33.3707 16.0131 33.3882 15.9886 33.4007 15.9618C33.4154 15.9365 33.4246 15.9088 33.4352 15.8834C33.4426 15.8566 33.4523 15.8313 33.4559 15.8063C33.4582 15.7939 33.4605 15.7819 33.4628 15.7703C33.4638 15.7583 33.4652 15.7473 33.4661 15.7362C33.4688 15.714 33.4684 15.6947 33.4679 15.6776C33.4679 15.6688 33.4679 15.661 33.4679 15.6536C33.467 15.6453 33.4661 15.6379 33.4656 15.631C33.4628 15.6037 33.461 15.5885 33.461 15.5885L33.5513 15.5825Z" fill="#3B82F6"/>
<path d="M12.1673 16.8109C12.2779 16.9332 12.394 17.0357 12.5063 17.1081C12.6201 17.1824 12.7242 17.2221 12.8348 17.235C12.9449 17.2479 13.0725 17.2285 13.2139 17.1741C13.3548 17.1201 13.5041 17.0338 13.6515 16.93C13.9476 16.7228 14.2374 16.4556 14.5243 16.1819L14.7408 15.9734C14.8196 15.8967 14.9007 15.8229 14.9854 15.7518C15.1559 15.6106 15.3424 15.4837 15.5446 15.3808C15.7459 15.277 15.9661 15.2032 16.1918 15.1649C16.418 15.1279 16.6492 15.1298 16.8694 15.1676C17.3125 15.2438 17.7013 15.4519 18.0352 15.7011C18.3701 15.9526 18.658 16.2493 18.9164 16.5645C19.173 16.8811 19.4037 17.2161 19.6 17.5691C19.3646 17.2419 19.0979 16.9392 18.8118 16.6609C18.5249 16.3845 18.2144 16.1335 17.8786 15.9387C17.5442 15.7445 17.1798 15.6093 16.8201 15.5922C16.4608 15.5723 16.1186 15.678 15.8261 15.8755C15.6791 15.9734 15.5432 16.0915 15.4179 16.223C15.3553 16.2895 15.2954 16.3587 15.2374 16.4302L15.0453 16.6665C14.7846 16.9821 14.5179 17.301 14.1872 17.6005C14.0218 17.7495 13.8375 17.894 13.616 18.0149C13.3963 18.1349 13.1268 18.2299 12.8338 18.241C12.5418 18.2544 12.2475 18.1801 12.007 18.0643C11.7629 17.9494 11.5579 17.8022 11.3769 17.6476L11.3668 17.6388C11.1245 17.4321 11.0955 17.0675 11.3014 16.8248C11.5077 16.582 11.8716 16.553 12.1139 16.7592C12.1323 16.7749 12.1512 16.7938 12.1673 16.8109Z" fill="#3B82F6"/>
<path d="M12.201 17.5059C12.2816 17.3933 12.3216 17.2636 12.3239 17.1349C12.3723 17.097 12.4161 17.0523 12.4538 16.9997C12.6657 16.7029 12.5976 16.2899 12.3014 16.0777C12.2972 16.0749 12.2926 16.0721 12.2885 16.0693C12.3 15.8515 12.2042 15.6328 12.0144 15.4967C11.9923 15.481 11.9693 15.4671 11.9462 15.4542C11.931 15.2673 11.8371 15.0883 11.6731 14.9701C11.5727 14.8981 11.4589 14.8589 11.3442 14.8497C11.352 14.6356 11.2562 14.4214 11.0692 14.2872C10.8822 14.1529 10.6491 14.1312 10.4492 14.2078C10.4031 14.1021 10.3299 14.0066 10.2295 13.9346C10.0655 13.8169 9.86606 13.7855 9.68411 13.8312C9.66477 13.8132 9.64404 13.7957 9.62193 13.78C9.43215 13.6439 9.19447 13.6236 8.99226 13.7043C8.98811 13.7011 8.98442 13.6979 8.98028 13.6951C8.6841 13.4828 8.2723 13.5511 8.05995 13.8478C8.02264 13.9004 7.99408 13.9563 7.97382 14.0144C7.85267 14.0583 7.74351 14.1381 7.6629 14.2507C7.58229 14.3633 7.54221 14.493 7.53991 14.6217C7.49154 14.6596 7.44778 14.7043 7.41001 14.7569C7.19813 15.0537 7.2663 15.4662 7.56248 15.6789C7.56663 15.6817 7.57123 15.6845 7.57538 15.6872C7.56386 15.9051 7.65967 16.1238 7.84945 16.2599C7.87156 16.2756 7.89459 16.2895 7.91808 16.3024C7.93328 16.4893 8.02725 16.6683 8.19123 16.7865C8.29165 16.8585 8.40542 16.8977 8.52012 16.9069C8.51229 17.121 8.6081 17.3352 8.79511 17.4694C8.98212 17.6037 9.2152 17.6254 9.41511 17.5488C9.46117 17.6545 9.53441 17.75 9.63483 17.822C9.79881 17.9397 9.99872 17.9711 10.1802 17.9254C10.1996 17.9434 10.2203 17.9609 10.2424 17.9766C10.4322 18.1127 10.6698 18.133 10.8721 18.0523C10.8762 18.0555 10.8799 18.0587 10.884 18.0615C11.1802 18.2738 11.5925 18.2055 11.8044 17.9088C11.8417 17.8561 11.8702 17.8003 11.8905 17.7422C12.0112 17.6979 12.1204 17.6185 12.201 17.5059Z" fill="#93C5FD"/>
<path d="M10.1175 14.4547C10.1175 14.4547 10.112 14.4602 10.1019 14.4709C10.0922 14.4819 10.0756 14.4962 10.0595 14.5179C10.0512 14.5285 10.042 14.5401 10.0318 14.5525C10.0231 14.5659 10.0134 14.5802 10.0028 14.5959C9.98348 14.6278 9.96506 14.6647 9.94801 14.7062C9.93281 14.7487 9.919 14.7948 9.91209 14.8451C9.90333 14.895 9.90426 14.9489 9.90794 15.0034C9.91255 15.0583 9.92821 15.1128 9.94709 15.1668C9.96736 15.2203 9.99684 15.2706 10.0314 15.3172C10.0484 15.3366 10.0701 15.3666 10.0894 15.3832C10.1079 15.4035 10.1309 15.421 10.1535 15.439C10.2 15.4713 10.2483 15.5013 10.2995 15.5207C10.3506 15.5392 10.4022 15.5549 10.4529 15.5595C10.5031 15.5664 10.5514 15.5655 10.5961 15.5622C10.6408 15.5572 10.6813 15.5489 10.7168 15.5392C10.7343 15.5332 10.7509 15.5281 10.7661 15.523C10.7808 15.5166 10.7946 15.511 10.8071 15.5055C10.8324 15.4958 10.8499 15.4838 10.8633 15.4773C10.8762 15.4704 10.8831 15.4667 10.8831 15.4667C10.8831 15.4667 10.8771 15.4718 10.866 15.4815C10.8545 15.4902 10.8393 15.5069 10.8158 15.5212C10.8043 15.529 10.7914 15.5373 10.7771 15.5465C10.7619 15.5544 10.7458 15.5627 10.7288 15.5715C10.7113 15.5798 10.6915 15.5867 10.6707 15.5945C10.65 15.6024 10.6274 15.6065 10.6039 15.6135C10.58 15.6176 10.5551 15.6222 10.5289 15.625C10.5026 15.6264 10.4754 15.6292 10.4473 15.6264C10.3911 15.6255 10.3317 15.6139 10.2728 15.595C10.2138 15.5756 10.1558 15.5465 10.1023 15.5092C10.0765 15.4893 10.0503 15.4695 10.0259 15.4446C9.99868 15.4196 9.98348 15.3989 9.95999 15.3717C9.9213 15.3172 9.88859 15.2591 9.86602 15.1972C9.84483 15.1354 9.8324 15.0717 9.82963 15.0094C9.82733 14.9476 9.8324 14.8871 9.84668 14.8327C9.85174 14.805 9.86188 14.7791 9.87017 14.7542C9.87984 14.7297 9.8909 14.7067 9.90149 14.685C9.91439 14.6642 9.92452 14.6435 9.93742 14.6255C9.95078 14.6079 9.96229 14.5908 9.97565 14.5761C9.98901 14.5618 10.0014 14.5484 10.0125 14.5359C10.0254 14.5249 10.0369 14.5147 10.0475 14.5055C10.0678 14.4861 10.0871 14.4769 10.0991 14.4681C10.1111 14.4589 10.1175 14.4547 10.1175 14.4547Z" fill="#3B82F6"/>
<path d="M9.6615 16.8589C9.6615 16.8589 9.66518 16.8824 9.67163 16.924C9.67762 16.9443 9.68223 16.9692 9.6919 16.9964C9.69697 17.0098 9.70249 17.0246 9.70802 17.0398C9.71447 17.0545 9.7223 17.0698 9.73013 17.0859C9.74671 17.1173 9.76698 17.1501 9.79232 17.1819C9.81673 17.2142 9.84713 17.2447 9.8803 17.2733C9.89642 17.2881 9.91576 17.3001 9.93327 17.3139C9.95215 17.3259 9.97196 17.3374 9.99177 17.349C10.0328 17.3693 10.0756 17.3877 10.1207 17.3983L10.1544 17.4067L10.1885 17.4117C10.211 17.4159 10.2341 17.4168 10.2566 17.4177C10.3018 17.4191 10.346 17.4159 10.3884 17.4076C10.4717 17.3919 10.5459 17.3591 10.6021 17.3217C10.6587 17.2848 10.6988 17.2451 10.7246 17.2156C10.75 17.1861 10.7628 17.1676 10.7628 17.1676L10.8342 17.2221C10.8342 17.2221 10.8186 17.2424 10.7873 17.2747C10.7559 17.3065 10.7076 17.349 10.6412 17.3868C10.5754 17.4251 10.4915 17.4565 10.3971 17.4685C10.3515 17.4745 10.3018 17.4754 10.2534 17.4708C10.229 17.4685 10.2046 17.4662 10.1802 17.4602L10.1438 17.4523L10.1083 17.4413C10.0609 17.4265 10.0162 17.4043 9.97426 17.3803C9.954 17.367 9.93373 17.354 9.91484 17.3397C9.89688 17.324 9.87799 17.3107 9.86187 17.2941C9.82871 17.2622 9.79969 17.2285 9.77619 17.1939C9.75178 17.1598 9.73336 17.1247 9.71816 17.0919C9.71125 17.0749 9.70388 17.0592 9.69835 17.0439C9.69328 17.0282 9.68914 17.013 9.68453 16.9992C9.67624 16.971 9.67302 16.9452 9.66841 16.9249C9.6638 16.8824 9.6615 16.8589 9.6615 16.8589Z" fill="#3B82F6"/>
<path d="M11.3465 16.3749C11.3465 16.3749 11.3391 16.3767 11.3248 16.3804C11.311 16.3846 11.2889 16.3878 11.264 16.3975C11.2516 16.4021 11.2378 16.4067 11.2226 16.4123C11.2078 16.4187 11.1922 16.4261 11.1751 16.4335C11.142 16.4501 11.1065 16.4718 11.0701 16.4981C11.0351 16.5258 10.9983 16.5581 10.966 16.5968C10.9319 16.6347 10.9047 16.6808 10.879 16.7288C10.8536 16.7777 10.8384 16.8322 10.826 16.888C10.8149 16.9434 10.814 17.0048 10.8177 17.0579C10.8251 17.1229 10.8361 17.1732 10.8568 17.2281C10.8794 17.2803 10.9043 17.3315 10.9379 17.3749C10.9715 17.4178 11.007 17.4579 11.0475 17.4893C11.0867 17.5221 11.1281 17.5465 11.1678 17.5678C11.2083 17.5867 11.247 17.6019 11.2825 17.6121C11.3004 17.6167 11.3175 17.6208 11.3331 17.6245C11.3493 17.6268 11.3635 17.6296 11.3769 17.6315C11.4036 17.6365 11.4248 17.6361 11.4395 17.6375C11.4543 17.6384 11.4621 17.6388 11.4621 17.6388C11.4621 17.6388 11.4543 17.6402 11.44 17.6421C11.4253 17.6435 11.4041 17.6495 11.3764 17.649C11.3626 17.6495 11.3469 17.6495 11.3304 17.6499C11.3138 17.6485 11.2954 17.6471 11.276 17.6453C11.2567 17.643 11.2364 17.6384 11.2147 17.6342C11.1931 17.6296 11.1714 17.6213 11.148 17.6144C11.1254 17.6052 11.1019 17.5959 11.0779 17.5844C11.0549 17.5715 11.0305 17.5595 11.0079 17.5424C10.9605 17.5119 10.9163 17.4704 10.8766 17.4233C10.837 17.3758 10.8029 17.3204 10.7772 17.26C10.7523 17.2009 10.7362 17.1285 10.7292 17.0698C10.7246 16.9988 10.7283 16.9351 10.7417 16.8696C10.7564 16.8059 10.7795 16.745 10.8099 16.691C10.8407 16.6375 10.8766 16.589 10.9176 16.5502C10.9365 16.5295 10.9586 16.5129 10.9789 16.4962C11.0001 16.4806 11.0217 16.4672 11.042 16.4543C11.0637 16.4432 11.0835 16.4312 11.1042 16.4229C11.1249 16.415 11.1438 16.4067 11.1627 16.4012C11.1816 16.3961 11.1991 16.3915 11.2152 16.3869C11.2318 16.3841 11.247 16.3818 11.2608 16.3795C11.288 16.374 11.3096 16.3763 11.3244 16.3749C11.3387 16.3753 11.3465 16.3749 11.3465 16.3749Z" fill="#3B82F6"/>
<path d="M8.276 15.4565C8.276 15.4565 8.2783 15.4639 8.28245 15.4782C8.28706 15.492 8.2912 15.5137 8.3018 15.5386C8.30686 15.5511 8.31193 15.5649 8.31792 15.5797C8.32483 15.594 8.33266 15.6097 8.34095 15.6263C8.35845 15.6591 8.38148 15.6937 8.40866 15.7292C8.43768 15.7634 8.47084 15.7989 8.51092 15.8303C8.54961 15.8631 8.5966 15.8889 8.64588 15.9129C8.69563 15.9364 8.75044 15.9503 8.80618 15.9604C8.86238 15.9692 8.92087 15.9687 8.97845 15.9627C9.00379 15.9577 9.04064 15.954 9.06459 15.9452C9.09131 15.9392 9.11802 15.9281 9.14474 15.9175C9.19633 15.893 9.24607 15.8667 9.28845 15.8317C9.32991 15.7966 9.36906 15.7597 9.39854 15.7182C9.42986 15.678 9.45289 15.6355 9.4727 15.5949C9.49021 15.5539 9.50402 15.5146 9.51324 15.4787C9.51692 15.4607 9.52061 15.4436 9.52383 15.4279C9.52567 15.4117 9.52752 15.397 9.52936 15.3836C9.5335 15.3568 9.53212 15.3356 9.53304 15.3208C9.5335 15.3061 9.53396 15.2982 9.53396 15.2982C9.53396 15.2982 9.53535 15.3061 9.53811 15.3204C9.53995 15.3347 9.54686 15.3559 9.54732 15.3841C9.54824 15.3979 9.54916 15.4136 9.55009 15.4302C9.54916 15.4473 9.54824 15.4653 9.54732 15.4847C9.54594 15.504 9.54179 15.5248 9.53857 15.5465C9.53489 15.5682 9.52706 15.5903 9.52107 15.6139C9.51278 15.6365 9.50448 15.6609 9.49343 15.6849C9.48145 15.7085 9.46994 15.7334 9.45382 15.7565C9.4248 15.8049 9.38518 15.8506 9.33958 15.8921C9.29352 15.9337 9.23917 15.9692 9.17974 15.9973C9.14934 16.0098 9.1194 16.0227 9.08578 16.031C9.05077 16.0421 9.02498 16.0449 8.98951 16.0518C8.92318 16.0583 8.85639 16.0573 8.7919 16.0458C8.72787 16.0333 8.66615 16.0121 8.61134 15.9835C8.55652 15.9544 8.50723 15.9198 8.46716 15.8801C8.44597 15.8617 8.42847 15.84 8.41096 15.8206C8.39484 15.7998 8.38056 15.7786 8.36674 15.7588C8.35523 15.7375 8.34233 15.7177 8.33312 15.6978C8.32483 15.6775 8.31561 15.6586 8.30917 15.6402C8.30364 15.6217 8.29811 15.6042 8.29304 15.588C8.28982 15.5714 8.2866 15.5562 8.28429 15.5423C8.27784 15.5151 8.27923 15.4934 8.27738 15.4791C8.27646 15.4639 8.276 15.4565 8.276 15.4565Z" fill="#3B82F6"/>
<path d="M9.1143 15.9633C9.1143 15.9633 9.1189 15.978 9.12719 16.0039C9.1295 16.0103 9.1318 16.0177 9.1341 16.0256C9.13687 16.0325 9.14009 16.0399 9.14378 16.0472C9.15069 16.0629 9.15759 16.0809 9.16911 16.0999C9.17464 16.1095 9.18017 16.1197 9.18569 16.1298C9.1926 16.1395 9.19951 16.1497 9.20688 16.1598C9.22024 16.1815 9.23959 16.2005 9.25709 16.2221C9.27736 16.2411 9.2967 16.2627 9.32066 16.2798C9.34277 16.2992 9.36856 16.3144 9.39389 16.331C9.42061 16.3444 9.44687 16.3601 9.47496 16.3698C9.50214 16.3823 9.5307 16.3887 9.55834 16.3975C9.58644 16.4021 9.61315 16.41 9.63941 16.4109C9.65277 16.4123 9.6652 16.4132 9.67764 16.4146C9.69008 16.4146 9.70205 16.4146 9.71357 16.4146C9.7366 16.4155 9.75779 16.4127 9.77667 16.4104C9.79556 16.409 9.81168 16.4063 9.82504 16.403C9.85175 16.3975 9.86696 16.3943 9.86696 16.3943C9.86696 16.3943 9.85222 16.3989 9.82596 16.4067C9.81306 16.4113 9.79694 16.4155 9.77806 16.4187C9.75917 16.4224 9.73798 16.427 9.71449 16.4289C9.70251 16.4298 9.69054 16.4312 9.67764 16.4326C9.66474 16.4326 9.65184 16.4326 9.63803 16.4326C9.61085 16.434 9.58229 16.4284 9.55235 16.4261C9.52333 16.4196 9.49247 16.4155 9.46253 16.4053C9.43167 16.3975 9.40265 16.3841 9.37271 16.3717C9.34415 16.3564 9.31513 16.3426 9.28887 16.3237C9.26123 16.3071 9.2382 16.2858 9.21379 16.2669C9.1926 16.2452 9.16957 16.2258 9.15207 16.2032C9.14285 16.1921 9.1341 16.182 9.12581 16.1714C9.11844 16.1603 9.11107 16.1497 9.10416 16.1395C9.08942 16.1197 9.07883 16.0989 9.06869 16.0805C9.06363 16.0712 9.05902 16.0625 9.05487 16.0546C9.05165 16.0472 9.04889 16.0399 9.04612 16.0339C9.03553 16.0089 9.02954 15.9942 9.02954 15.9942L9.1143 15.9633Z" fill="#3B82F6"/>
<path d="M10.5381 15.588C10.5381 15.588 10.5362 15.6037 10.5335 15.6305C10.5325 15.6374 10.5321 15.6448 10.5312 15.6531C10.5312 15.6605 10.5312 15.6683 10.5312 15.6771C10.5307 15.6942 10.5302 15.7135 10.533 15.7357C10.5339 15.7468 10.5349 15.7583 10.5362 15.7698C10.5385 15.7814 10.5408 15.7934 10.5431 15.8058C10.5468 15.8312 10.5565 15.8561 10.5639 15.8829C10.5749 15.9083 10.5837 15.936 10.5984 15.9614C10.6109 15.9881 10.6284 16.0126 10.6445 16.038C10.6634 16.0615 10.6813 16.086 10.7025 16.1063C10.7223 16.1289 10.7458 16.1464 10.7675 16.1653C10.791 16.181 10.8126 16.199 10.8361 16.2106C10.8476 16.217 10.8587 16.2235 10.8697 16.2295C10.8812 16.2345 10.8923 16.2392 10.9024 16.2438C10.9232 16.2539 10.9434 16.2599 10.9614 16.2655C10.9794 16.2719 10.995 16.2761 11.0084 16.2784C11.0351 16.2839 11.0503 16.2872 11.0503 16.2872C11.0503 16.2872 11.0346 16.2853 11.0079 16.2821C10.9941 16.2812 10.978 16.2784 10.9595 16.2733C10.9407 16.2692 10.9195 16.265 10.8974 16.2567C10.8863 16.253 10.8743 16.2489 10.8624 16.2452C10.8508 16.2401 10.8389 16.2345 10.8264 16.229C10.8011 16.2189 10.7771 16.2027 10.7509 16.1884C10.7269 16.1709 10.7002 16.1543 10.6772 16.1326C10.6523 16.1127 10.6311 16.0887 10.6086 16.0652C10.5887 16.0398 10.5676 16.0149 10.5514 15.9877C10.533 15.9614 10.5201 15.9323 10.5058 15.9055C10.4952 15.8769 10.4819 15.8501 10.4754 15.8225C10.4717 15.8086 10.4676 15.7957 10.4639 15.7828C10.4616 15.7698 10.4593 15.7569 10.457 15.7449C10.4519 15.7209 10.4501 15.6974 10.4487 15.6766C10.4478 15.666 10.4473 15.6563 10.4464 15.6476C10.4464 15.6393 10.4469 15.6319 10.4469 15.6249C10.4473 15.5977 10.4478 15.582 10.4478 15.582L10.5381 15.588Z" fill="#3B82F6"/>
<path d="M21.9998 9.97803C14.1692 10.1142 15.5275 16.2711 17.0909 18.3827C18.6542 20.494 19.6054 24.0925 19.1982 26.7335C18.7911 29.3744 19.8689 35.068 19.9767 35.44C20.0845 35.8119 20.4682 35.8045 20.4682 35.8045L22.0002 36.0256L23.5323 35.8045C23.5323 35.8045 23.916 35.8115 24.0237 35.44C24.1315 35.068 25.2089 29.3744 24.8022 26.7335C24.395 24.0925 25.3462 20.4944 26.9096 18.3827C28.4725 16.2715 29.8304 10.1142 21.9998 9.97803Z" fill="#93C5FD"/>
<path d="M19.9726 25.5397C20.0214 26.272 19.8302 26.2845 19.8795 27.0168C19.9284 27.7492 20.1195 27.7363 20.1688 28.4686C20.2176 29.2005 20.0265 29.2134 20.0758 29.9453C20.1246 30.6777 20.3157 30.6647 20.365 31.3971C20.4139 32.1294 20.2227 32.1424 20.272 32.8747C20.3208 33.6071 20.512 33.5941 20.5613 34.3265C20.6101 35.0588 20.4194 35.0718 20.4682 35.8041C21.4687 36.0985 22.5323 36.0985 23.5323 35.8041C23.5811 35.0718 23.3904 35.0588 23.4392 34.3265C23.4881 33.5941 23.6792 33.6071 23.7285 32.8747C23.7773 32.1424 23.5862 32.1294 23.6355 31.3971C23.6843 30.6647 23.8754 30.6777 23.9247 29.9453C23.9736 29.2134 23.7824 29.2005 23.8317 28.4686C23.8805 27.7363 24.0717 27.7492 24.121 27.0168C24.1698 26.2845 23.9786 26.272 24.0279 25.5397L23.5447 26.1474L22.7386 26.4991C22.7386 26.4991 21.8206 26.5471 21.7649 26.5471C21.7091 26.5471 21.1983 26.5711 21.0942 26.5231C20.9906 26.4751 20.3917 26.0431 20.3917 26.0431L19.9726 25.5397Z" fill="#3B82F6"/>
<path d="M30.42 12.0569C30.3108 12.2609 30.1786 12.451 30.0206 12.6203C29.6627 13.0149 29.1745 13.2904 28.6411 13.4459C28.3744 13.5248 28.0961 13.5747 27.8142 13.601C27.6728 13.6143 27.5323 13.6213 27.3882 13.6226C27.2555 13.624 27.1233 13.6356 26.9911 13.6356C24.3969 13.6356 24.1292 12.5502 22.0002 12.5502C19.8712 12.5502 19.6036 13.6356 17.0094 13.6356C16.8772 13.6356 16.745 13.624 16.6123 13.6226C16.4681 13.6208 16.3277 13.6143 16.1862 13.601C15.9043 13.5747 15.6261 13.5244 15.3594 13.4459C14.826 13.2904 14.3378 13.0149 13.9799 12.6203C13.8219 12.451 13.6897 12.2609 13.5805 12.0569C13.4285 12.217 13.2834 12.3785 13.1443 12.5433C13.2682 12.7191 13.4082 12.8838 13.5662 13.032C14.0361 13.4842 14.6289 13.8123 15.2438 13.8986C17.8744 14.2678 19.6197 14.4925 19.7404 16.7431C19.8717 19.1916 20.7483 20.8515 21.4618 21.9637C21.9325 22.697 21.3457 23.5405 21.3457 24.02C21.3457 24.3638 21.5507 24.9955 21.6672 25.3259C21.7335 25.5151 21.7612 25.7168 21.7335 25.9152C21.5603 27.1432 19.973 25.5391 19.973 25.5391C20.5695 26.8806 21.7897 26.7463 22.0007 26.7122C22.2117 26.7463 23.4314 26.8802 24.0284 25.5391C24.0284 25.5391 22.4411 27.1432 22.2679 25.9152C22.2398 25.7168 22.2674 25.5147 22.3342 25.3259C22.4503 24.996 22.6552 24.3642 22.6552 24.02C22.6552 23.5401 22.0684 22.697 22.5392 21.9637C23.2527 20.8515 24.1292 19.1916 24.2605 16.7431C24.3812 14.4925 26.1265 14.2678 28.7571 13.8986C29.3721 13.8123 29.9649 13.4842 30.4347 13.032C30.5927 12.8838 30.7327 12.7191 30.8567 12.5433C30.7171 12.3785 30.5715 12.217 30.42 12.0569Z" fill="#3B82F6"/>
<path d="M25.799 15.2069C25.799 15.2069 25.7644 15.2295 25.699 15.2724C25.6668 15.2941 25.629 15.3241 25.5839 15.3569C25.5415 15.3938 25.4895 15.4326 25.4383 15.4838C25.3333 15.5825 25.2172 15.7154 25.1168 15.8885C25.0164 16.0611 24.9316 16.272 24.8791 16.5119C24.8667 16.5719 24.8524 16.6333 24.8446 16.6965C24.84 16.7279 24.8349 16.7602 24.8303 16.7921C24.8271 16.8244 24.8239 16.8571 24.8206 16.8903C24.8128 16.9563 24.81 17.0237 24.8059 17.092C24.8017 17.1612 24.7981 17.2318 24.7939 17.3034C24.7898 17.3749 24.7861 17.4469 24.7819 17.5202C24.7782 17.5936 24.769 17.6684 24.7626 17.7436C24.7552 17.8188 24.7478 17.895 24.7405 17.972C24.7299 18.0482 24.7197 18.1252 24.7092 18.2032C24.6907 18.3592 24.6599 18.5156 24.6327 18.6748C24.6193 18.7547 24.6 18.8336 24.5839 18.9134C24.5664 18.9933 24.5507 19.074 24.5291 19.1534C24.4526 19.4741 24.3536 19.7948 24.2435 20.1109C24.132 20.427 23.9989 20.7348 23.8579 21.0325C23.717 21.3301 23.5599 21.6144 23.401 21.8839C23.3812 21.9176 23.3609 21.9508 23.3411 21.9845L23.3264 22.0094L23.3227 22.0159C23.3218 22.0177 23.3254 22.0113 23.3231 22.0154L23.3213 22.0186L23.3149 22.0316L23.2881 22.0828L23.2619 22.1335C23.2531 22.1506 23.2494 22.1663 23.243 22.1829C23.2324 22.2161 23.2167 22.2466 23.2094 22.2812C23.1684 22.4178 23.1638 22.5604 23.1707 22.6979C23.1785 22.8364 23.2034 22.9706 23.2338 23.0999C23.2637 23.2295 23.2987 23.3541 23.331 23.475C23.3618 23.5964 23.3918 23.7145 23.3996 23.8331C23.4001 23.8479 23.401 23.8627 23.4014 23.8774L23.4019 23.8885V23.895L23.4014 23.9L23.4001 23.9208C23.3991 23.948 23.3964 23.9762 23.3932 24.0039C23.3867 24.0592 23.378 24.1109 23.3687 24.1612C23.3291 24.362 23.2794 24.5322 23.2379 24.6716C23.196 24.8114 23.1573 24.919 23.132 24.9928C23.1057 25.0662 23.0919 25.1054 23.0919 25.1054C23.0919 25.1054 23.1398 24.9457 23.2107 24.6638C23.2453 24.523 23.2868 24.3509 23.3158 24.152C23.3227 24.1026 23.3291 24.0505 23.3324 23.9983C23.3342 23.9725 23.3356 23.9462 23.3351 23.918V23.8973V23.8922C23.3351 23.8927 23.3347 23.8894 23.3347 23.888L23.3337 23.8779C23.3324 23.8645 23.3314 23.8511 23.3301 23.8377C23.3181 23.7293 23.2863 23.6153 23.2508 23.4967C23.1803 23.2595 23.0873 22.9997 23.0629 22.7048C23.0518 22.5586 23.0528 22.4026 23.0942 22.2494C23.1016 22.2106 23.1186 22.1723 23.1311 22.1331C23.1384 22.1142 23.144 22.0929 23.1527 22.0759L23.1785 22.0246L23.2043 21.9729L23.2107 21.96L23.2121 21.9568L23.2158 21.9499L23.2195 21.9434L23.2338 21.9185C23.2531 21.8853 23.272 21.8516 23.2914 21.8179C23.4457 21.5489 23.5931 21.2641 23.7322 20.9706C23.8699 20.6762 23.9993 20.3721 24.108 20.0602C24.2181 19.7491 24.3172 19.434 24.3941 19.1178C24.4157 19.0394 24.4314 18.96 24.4494 18.8816C24.4664 18.8027 24.4867 18.7251 24.501 18.6467C24.53 18.4898 24.5627 18.3357 24.5834 18.182C24.5949 18.1054 24.6064 18.0292 24.618 17.954C24.6267 17.8788 24.6355 17.804 24.6442 17.7302C24.6525 17.6559 24.6631 17.5835 24.6686 17.5106C24.6746 17.4376 24.6806 17.3652 24.6861 17.2941C24.6921 17.2231 24.6976 17.1529 24.7032 17.0837C24.7092 17.0136 24.7138 16.9448 24.7244 16.877C24.729 16.8433 24.7336 16.8096 24.7382 16.7764C24.7442 16.7436 24.7506 16.7108 24.7566 16.6785C24.7672 16.6135 24.7838 16.5512 24.799 16.4893C24.8602 16.2434 24.9593 16.0292 25.0717 15.8571C25.1836 15.6845 25.3089 15.5549 25.4199 15.4598C25.4743 15.4104 25.5286 15.374 25.5737 15.3403C25.6216 15.3098 25.6613 15.2826 25.6949 15.2627C25.7626 15.2277 25.799 15.2069 25.799 15.2069Z" fill="#3B82F6"/>
<path d="M26.7893 15.632C26.7893 15.632 26.7511 15.6444 26.6793 15.667C26.6079 15.6906 26.5033 15.7279 26.3739 15.7815C26.2449 15.8359 26.0906 15.9098 25.9321 16.021C25.7741 16.1317 25.6143 16.284 25.489 16.4838C25.3632 16.6832 25.279 16.9287 25.2306 17.1959C25.2066 17.3297 25.1919 17.4691 25.1841 17.6121C25.1776 17.757 25.1679 17.9056 25.1597 18.0565C25.1329 18.3602 25.1025 18.674 25.0422 18.9882C24.9855 19.3025 24.9132 19.62 24.8197 19.931C24.7262 20.242 24.6166 20.5484 24.4936 20.8429C24.3715 21.1382 24.232 21.4202 24.0896 21.6883C24.0532 21.7547 24.0178 21.8212 23.9823 21.8867C23.9468 21.9513 23.9081 22.0173 23.8759 22.0782C23.8119 22.1986 23.7769 22.3311 23.7663 22.4631C23.7547 22.595 23.7658 22.7266 23.7861 22.8525C23.8054 22.979 23.8349 23.1004 23.8639 23.2171C23.8929 23.3343 23.9229 23.4469 23.9408 23.5586C23.9496 23.6144 23.9551 23.6693 23.9533 23.7256C23.951 23.7769 23.9459 23.8309 23.9385 23.8793C23.9081 24.0759 23.8635 24.2416 23.8257 24.3782C23.7879 24.5143 23.7529 24.6195 23.7294 24.6915C23.7055 24.763 23.6926 24.8013 23.6926 24.8013C23.6926 24.8013 23.7359 24.6458 23.798 24.3712C23.8284 24.2342 23.8648 24.0662 23.8846 23.8733C23.8897 23.8244 23.8915 23.7773 23.8915 23.7243C23.8906 23.6763 23.8828 23.6237 23.8717 23.5715C23.8496 23.4663 23.8169 23.3555 23.7833 23.2393C23.7179 23.0076 23.6419 22.7464 23.658 22.4561C23.6658 22.3122 23.7004 22.1627 23.7695 22.0242C23.8372 21.8955 23.9063 21.7639 23.9763 21.6301C24.114 21.3629 24.2439 21.081 24.3642 20.7902C24.4839 20.4991 24.5903 20.1973 24.6806 19.8908C24.7741 19.5854 24.8469 19.2734 24.9045 18.9638C24.9643 18.6546 25.0026 18.3468 25.0325 18.0491C25.0436 17.8982 25.0546 17.7501 25.0652 17.6052C25.0772 17.4584 25.0961 17.3145 25.1246 17.1765C25.1804 16.9001 25.279 16.6449 25.4194 16.4395C25.5581 16.2328 25.7341 16.0828 25.9022 15.9776C26.0708 15.8715 26.2311 15.805 26.3637 15.7566C26.4968 15.7081 26.6042 15.68 26.677 15.661C26.7507 15.6416 26.7893 15.632 26.7893 15.632Z" fill="#3B82F6"/>
<path d="M27.5751 16.097C27.5751 16.097 27.5369 16.1077 27.465 16.1275C27.3932 16.1473 27.2886 16.1778 27.1555 16.218C27.0233 16.259 26.8625 16.3107 26.6861 16.3864C26.5102 16.4616 26.3162 16.5622 26.137 16.7108C25.9579 16.8585 25.8059 17.0652 25.717 17.3144C25.6723 17.4385 25.6433 17.5728 25.6262 17.7113C25.6175 17.7814 25.6133 17.8502 25.6092 17.924C25.6046 17.9969 25.6004 18.0707 25.5958 18.1455C25.5889 18.2941 25.5709 18.4468 25.5585 18.601C25.5493 18.6776 25.5401 18.7546 25.5313 18.8322C25.5267 18.8709 25.5217 18.9097 25.517 18.9485C25.5111 18.9872 25.5051 19.026 25.4991 19.0652C25.4539 19.3772 25.3899 19.6914 25.3135 20.0024C25.2356 20.3135 25.1426 20.6204 25.032 20.9166C24.9228 21.2129 24.7953 21.4971 24.6548 21.7639C24.5847 21.8972 24.5106 22.0255 24.4323 22.1478L24.4046 22.1921L24.377 22.2378C24.3609 22.2669 24.3466 22.2941 24.3342 22.325C24.3084 22.3855 24.2904 22.4482 24.2794 22.5115C24.2563 22.6388 24.2637 22.7676 24.2821 22.8912C24.3001 23.0149 24.3319 23.134 24.3641 23.248C24.3964 23.3624 24.4309 23.4718 24.4544 23.5807C24.4659 23.6351 24.4747 23.6891 24.4765 23.7436C24.4765 23.7574 24.4774 23.7703 24.4765 23.7846C24.4756 23.7971 24.4751 23.81 24.4742 23.8225C24.4719 23.8479 24.4691 23.8737 24.4654 23.8982C24.4346 24.0929 24.3844 24.2549 24.3429 24.3882C24.301 24.5211 24.2623 24.6241 24.2365 24.6937C24.2098 24.7634 24.1955 24.8008 24.1955 24.8008C24.1955 24.8008 24.207 24.763 24.2287 24.6914C24.2503 24.6199 24.2798 24.5147 24.3153 24.3804C24.3494 24.2461 24.3913 24.0814 24.4111 23.8917C24.4415 23.7025 24.3558 23.5008 24.284 23.2724C24.2471 23.1584 24.2103 23.0375 24.1858 22.9074C24.1624 22.7777 24.1508 22.6374 24.172 22.4944C24.1826 22.4228 24.201 22.3513 24.2287 22.2816C24.2416 22.2475 24.2595 22.2115 24.2766 22.1783L24.3033 22.1321L24.3314 22.0846C24.4046 21.9632 24.476 21.8372 24.5424 21.7053C24.6769 21.4422 24.7948 21.1603 24.9017 20.8691C25.0085 20.5779 25.0983 20.2747 25.1739 19.9683C25.2508 19.6623 25.3153 19.3527 25.3618 19.0449C25.3678 19.0066 25.3743 18.9683 25.3802 18.93C25.3853 18.8917 25.3904 18.8534 25.3954 18.8151C25.4056 18.7385 25.4162 18.6628 25.4263 18.5871C25.441 18.4353 25.4613 18.2872 25.4705 18.1381C25.4761 18.0638 25.4816 17.99 25.4876 17.9171C25.4926 17.8446 25.4995 17.7689 25.5106 17.697C25.5322 17.5516 25.5668 17.4099 25.6179 17.2779C25.6695 17.1464 25.7363 17.0246 25.8174 16.9185C25.898 16.8123 25.9901 16.7219 26.0868 16.6476C26.2808 16.4976 26.4853 16.4053 26.6677 16.3379C26.851 16.2701 27.0145 16.2267 27.1495 16.1921C27.2845 16.158 27.3918 16.1367 27.4646 16.121C27.5364 16.1049 27.5751 16.097 27.5751 16.097Z" fill="#3B82F6"/>
<path d="M18.201 15.2069C18.201 15.2069 18.2369 15.2272 18.3051 15.266C18.3387 15.2858 18.3783 15.313 18.4262 15.3435C18.4714 15.3777 18.5262 15.4136 18.5801 15.463C18.6911 15.5581 18.8164 15.6878 18.9283 15.8603C19.0402 16.0325 19.1393 16.2466 19.201 16.4926C19.2162 16.5539 19.2328 16.6167 19.2434 16.6818C19.2494 16.7141 19.2554 16.7468 19.2618 16.7796C19.2664 16.8128 19.271 16.846 19.2756 16.8802C19.2862 16.9476 19.2908 17.0168 19.2968 17.0869C19.3023 17.1561 19.3083 17.2263 19.3139 17.2974C19.3198 17.3684 19.3254 17.4409 19.3314 17.5138C19.3369 17.5872 19.3479 17.6596 19.3558 17.7334C19.3645 17.8073 19.3733 17.882 19.382 17.9573C19.3935 18.0325 19.4051 18.1086 19.4166 18.1852C19.4373 18.3389 19.47 18.493 19.499 18.6499C19.5133 18.7284 19.5336 18.8059 19.5506 18.8848C19.5686 18.9633 19.5842 19.0426 19.6059 19.1211C19.6828 19.4372 19.7818 19.7524 19.8919 20.0634C20.0006 20.3753 20.1296 20.6795 20.2678 20.9739C20.4069 21.2678 20.5543 21.5521 20.7086 21.8211C20.728 21.8548 20.7473 21.888 20.7662 21.9217L20.7805 21.9466L20.7842 21.9531L20.7879 21.96L20.7897 21.9633L20.7961 21.9762L20.8219 22.0279L20.8477 22.0791C20.8565 22.0962 20.862 22.1174 20.8694 22.1363C20.8818 22.1751 20.8989 22.2138 20.9062 22.2526C20.9477 22.4058 20.9486 22.5618 20.9376 22.7081C20.9131 23.0029 20.8201 23.2627 20.7496 23.4999C20.7142 23.6185 20.6828 23.733 20.6704 23.841C20.669 23.8543 20.6681 23.8677 20.6667 23.8811L20.6658 23.8913C20.6658 23.8926 20.6653 23.8954 20.6653 23.8954V23.9005V23.9213C20.6649 23.9494 20.6662 23.9757 20.6681 24.0016C20.6713 24.0537 20.6778 24.1054 20.6847 24.1552C20.7137 24.3541 20.7547 24.5262 20.7897 24.667C20.8606 24.9489 20.9085 25.1086 20.9085 25.1086C20.9085 25.1086 20.8947 25.0694 20.8685 24.996C20.8431 24.9222 20.8044 24.8142 20.7625 24.6748C20.7206 24.535 20.6709 24.3652 20.6317 24.1645C20.622 24.1142 20.6133 24.0625 20.6073 24.0071C20.6041 23.9794 20.6013 23.9513 20.6004 23.924L20.599 23.9033L20.5985 23.8982V23.8917L20.599 23.8806C20.5995 23.8659 20.6004 23.8511 20.6008 23.8363C20.6082 23.7178 20.6382 23.5996 20.6695 23.4782C20.7017 23.3569 20.7367 23.2323 20.7667 23.1031C20.7971 22.9739 20.8224 22.8391 20.8298 22.7011C20.8367 22.5636 20.8321 22.4206 20.7911 22.2844C20.7837 22.2494 20.768 22.2189 20.7575 22.1861C20.751 22.1695 20.7473 22.1538 20.7386 22.1368L20.7123 22.086L20.6856 22.0348L20.6791 22.0219L20.6773 22.0186C20.675 22.0145 20.6787 22.0209 20.6778 22.0191L20.6741 22.0126L20.6593 21.9877C20.6395 21.9545 20.6197 21.9208 20.5995 21.8871C20.4405 21.6172 20.2839 21.3333 20.1425 21.0357C20.0011 20.7381 19.8684 20.4303 19.757 20.1142C19.6469 19.798 19.5479 19.4773 19.4714 19.1566C19.4497 19.0772 19.4341 18.9965 19.4166 18.9166C19.4005 18.8363 19.3811 18.7574 19.3677 18.6781C19.341 18.5189 19.3102 18.3624 19.2913 18.2064C19.2807 18.1289 19.2701 18.0519 19.26 17.9753C19.2526 17.8982 19.2452 17.822 19.2379 17.7468C19.2314 17.6716 19.2222 17.5968 19.2185 17.5235C19.2144 17.4501 19.2102 17.3781 19.2065 17.3066C19.2024 17.2351 19.1987 17.1645 19.1946 17.0952C19.1904 17.0269 19.1876 16.9591 19.1798 16.8936C19.1766 16.8603 19.1734 16.828 19.1701 16.7953C19.1651 16.763 19.1605 16.7311 19.1559 16.6998C19.1476 16.6361 19.1338 16.5752 19.1213 16.5152C19.0688 16.2752 18.984 16.0643 18.8836 15.8917C18.7832 15.7187 18.6671 15.5858 18.5621 15.487C18.511 15.4358 18.4589 15.3975 18.4166 15.3601C18.3714 15.3269 18.3336 15.2974 18.3014 15.2757C18.236 15.23 18.201 15.2069 18.201 15.2069Z" fill="#3B82F6"/>
<path d="M17.2102 15.632C17.2102 15.632 17.2494 15.6416 17.3226 15.6596C17.3954 15.679 17.5032 15.7072 17.6358 15.7552C17.7685 15.8036 17.9288 15.8701 18.0974 15.9762C18.2655 16.0814 18.4415 16.2319 18.5801 16.4381C18.7206 16.643 18.8187 16.8987 18.8749 17.1751C18.9035 17.3135 18.9223 17.4571 18.9343 17.6038C18.9449 17.7487 18.956 17.8968 18.967 18.0477C18.997 18.3454 19.0352 18.6532 19.0951 18.9624C19.1527 19.2716 19.2254 19.5835 19.3189 19.8895C19.4092 20.1959 19.5156 20.4977 19.6354 20.7889C19.7556 21.0796 19.8855 21.3615 20.0232 21.6287C20.0937 21.7626 20.1628 21.8941 20.2301 22.0228C20.2991 22.1613 20.3337 22.3103 20.3415 22.4548C20.3576 22.745 20.2821 23.0062 20.2162 23.2379C20.1826 23.3542 20.1499 23.4644 20.1278 23.5701C20.1167 23.6223 20.1089 23.6749 20.108 23.7229C20.1075 23.7759 20.1098 23.823 20.1149 23.8719C20.1347 24.0653 20.1711 24.2328 20.2015 24.3698C20.2637 24.6444 20.307 24.7999 20.307 24.7999C20.307 24.7999 20.2941 24.7616 20.2701 24.6901C20.2466 24.6181 20.2116 24.5129 20.1739 24.3768C20.1365 24.2406 20.0914 24.075 20.061 23.8779C20.0532 23.8295 20.0486 23.775 20.0463 23.7243C20.0444 23.668 20.0504 23.6135 20.0587 23.5572C20.0762 23.446 20.1066 23.3329 20.1356 23.2157C20.1646 23.0985 20.1941 22.9771 20.2135 22.8512C20.2333 22.7252 20.2448 22.5941 20.2333 22.4617C20.2227 22.3297 20.1877 22.1973 20.1236 22.0768C20.0914 22.0159 20.0527 21.9499 20.0172 21.8853C19.9818 21.8198 19.9458 21.7538 19.9099 21.6869C19.7676 21.4188 19.6285 21.1368 19.506 20.8415C19.383 20.5466 19.2729 20.2406 19.1798 19.9296C19.0863 19.6186 19.0145 19.3011 18.9573 18.9868C18.897 18.673 18.8666 18.3592 18.8399 18.0551C18.8316 17.9042 18.8219 17.7561 18.8155 17.6107C18.8076 17.4677 18.7929 17.3283 18.769 17.1945C18.7211 16.9273 18.6363 16.6818 18.5105 16.4824C18.3853 16.2826 18.2254 16.1303 18.0674 16.0196C17.909 15.9084 17.7547 15.8345 17.6257 15.7801C17.4963 15.7266 17.3922 15.6892 17.3203 15.6656C17.2489 15.6444 17.2102 15.632 17.2102 15.632Z" fill="#3B82F6"/>
<path d="M16.4244 16.097C16.4244 16.097 16.4635 16.1049 16.5363 16.1197C16.6091 16.1353 16.7164 16.1566 16.8514 16.1907C16.9863 16.2253 17.1499 16.2687 17.3332 16.3365C17.5156 16.4039 17.7206 16.4958 17.914 16.6462C18.0108 16.721 18.1034 16.8114 18.1835 16.9171C18.2641 17.0228 18.3314 17.1446 18.383 17.2766C18.4345 17.4085 18.4686 17.5497 18.4903 17.6956C18.5013 17.768 18.5078 17.8437 18.5133 17.9157C18.5188 17.9886 18.5244 18.0624 18.5304 18.1367C18.5396 18.2862 18.5598 18.4344 18.5746 18.5857C18.5847 18.6614 18.5948 18.7376 18.6054 18.8137C18.6105 18.852 18.6156 18.8903 18.6206 18.9286C18.6266 18.9669 18.6331 19.0052 18.6391 19.0435C18.6856 19.3513 18.7501 19.661 18.827 19.9669C18.9025 20.2733 18.9924 20.5765 19.0992 20.8677C19.2061 21.1589 19.324 21.4413 19.4585 21.7039C19.5248 21.8359 19.5962 21.9618 19.6695 22.0832L19.6976 22.1307L19.7243 22.1769C19.7418 22.2101 19.7593 22.2461 19.7722 22.2803C19.7994 22.3499 19.8183 22.4215 19.8289 22.493C19.8505 22.6365 19.8385 22.7763 19.815 22.906C19.7911 23.0361 19.7538 23.157 19.7169 23.271C19.6451 23.4995 19.5594 23.7011 19.5898 23.8903C19.6096 24.08 19.6515 24.2447 19.6856 24.379C19.7211 24.5133 19.7505 24.6185 19.7722 24.69C19.7938 24.7616 19.8054 24.7994 19.8054 24.7994C19.8054 24.7994 19.7911 24.762 19.7644 24.6923C19.7386 24.6222 19.6999 24.5198 19.658 24.3869C19.617 24.2535 19.5663 24.0915 19.5354 23.8968C19.5317 23.8723 19.529 23.846 19.5267 23.8211C19.5258 23.8086 19.5253 23.7962 19.5244 23.7833C19.5235 23.7689 19.5244 23.756 19.5244 23.7422C19.5262 23.6877 19.535 23.6337 19.5465 23.5793C19.57 23.4708 19.6045 23.361 19.6368 23.2466C19.669 23.1326 19.7003 23.0135 19.7188 22.8899C19.7372 22.7666 19.7441 22.6374 19.7215 22.5101C19.7105 22.4464 19.692 22.3841 19.6667 22.3236C19.6538 22.2927 19.6395 22.2655 19.6239 22.2364L19.5962 22.1907L19.5686 22.1464C19.4903 22.0241 19.4161 21.8958 19.3461 21.7625C19.2056 21.4962 19.078 21.212 18.9689 20.9152C18.8588 20.6194 18.7653 20.3121 18.6874 20.0011C18.611 19.69 18.5469 19.3758 18.5018 19.0638C18.4958 19.0251 18.4898 18.9858 18.4838 18.9471C18.4792 18.9083 18.4742 18.8691 18.4695 18.8308C18.4603 18.7533 18.4511 18.6762 18.4424 18.5996C18.4299 18.4455 18.412 18.2927 18.4051 18.1441C18.4005 18.0698 18.3963 17.996 18.3917 17.9226C18.3871 17.8488 18.383 17.7796 18.3747 17.7099C18.3576 17.571 18.3291 17.4371 18.2839 17.313C18.195 17.0638 18.043 16.8571 17.8638 16.7094C17.6846 16.5613 17.4907 16.4607 17.3148 16.385C17.1383 16.3093 16.9776 16.2576 16.8454 16.2166C16.7127 16.1764 16.6077 16.146 16.5358 16.1261C16.4631 16.1077 16.4244 16.097 16.4244 16.097Z" fill="#3B82F6"/>
<path d="M17.0094 13.1524C17.0094 13.1524 17.0495 13.1501 17.125 13.1455C17.2006 13.1414 17.3106 13.1335 17.4516 13.1266C17.5216 13.121 17.599 13.1109 17.6828 13.1021C17.7247 13.0975 17.7685 13.0929 17.8136 13.0878C17.8362 13.0851 17.8593 13.0827 17.8827 13.08C17.9062 13.0758 17.9297 13.0721 17.9537 13.068C18.0499 13.0509 18.1527 13.0348 18.26 13.0149C18.3664 12.9891 18.4788 12.966 18.5949 12.9369C18.8256 12.8719 19.073 12.7952 19.3277 12.691C19.5838 12.5904 19.8482 12.469 20.131 12.3569C20.4139 12.2452 20.716 12.1469 21.032 12.0855C21.1113 12.0717 21.1909 12.0578 21.2706 12.0435C21.3512 12.0352 21.4318 12.0269 21.5125 12.0181C21.553 12.0144 21.5935 12.0084 21.6341 12.0066L21.7561 12.0024L22.0003 11.9941L22.2439 12.0024L22.3642 12.0066C22.4042 12.0084 22.4457 12.0144 22.4862 12.0181C22.5677 12.0264 22.6488 12.0352 22.7299 12.0435C22.8096 12.0574 22.8893 12.0717 22.9685 12.0855C23.2845 12.1469 23.5866 12.2452 23.8695 12.3569C24.1523 12.469 24.4167 12.5904 24.6728 12.691C24.9275 12.7952 25.1753 12.8714 25.4057 12.9369C25.5217 12.966 25.6341 12.9891 25.7405 13.0149C25.8479 13.0352 25.9506 13.0514 26.0468 13.0684C26.0708 13.0726 26.0947 13.0767 26.1178 13.0804C26.1413 13.0832 26.1643 13.0855 26.1869 13.0883C26.2325 13.0934 26.2762 13.098 26.3181 13.1026C26.4024 13.1114 26.4794 13.121 26.5494 13.127C26.6899 13.134 26.8 13.1418 26.8755 13.146C26.951 13.1506 26.9911 13.1529 26.9911 13.1529C26.9911 13.1529 26.951 13.1533 26.8755 13.1538C26.8 13.1543 26.6894 13.1561 26.548 13.1552C26.4775 13.1533 26.3997 13.1474 26.3145 13.1427C26.2721 13.1404 26.2279 13.1377 26.1818 13.1349C26.1588 13.1335 26.1353 13.1321 26.1118 13.1307C26.0883 13.128 26.0639 13.1252 26.0395 13.122C25.9418 13.11 25.8373 13.0989 25.7276 13.0837C25.6189 13.0634 25.5042 13.0431 25.3854 13.0181C25.1491 12.9609 24.8934 12.8922 24.6336 12.7925C24.372 12.6974 24.1025 12.5834 23.8229 12.4764C23.5429 12.3698 23.2476 12.2826 22.9418 12.2235C22.8649 12.2106 22.7879 12.1972 22.7105 12.1843C22.6327 12.1764 22.5549 12.169 22.477 12.1612C22.4379 12.158 22.3992 12.1524 22.3595 12.1506L22.2393 12.1469L22.0007 12.1395L21.7626 12.1464L21.6437 12.1501C21.6041 12.1515 21.565 12.157 21.5258 12.1607C21.4471 12.1686 21.3687 12.176 21.2904 12.1838C21.2131 12.1972 21.1361 12.2101 21.0592 12.223C20.7529 12.2821 20.4581 12.3693 20.178 12.4759C19.8984 12.583 19.629 12.697 19.3673 12.792C19.1075 12.8917 18.8519 12.9605 18.6156 13.0177C18.4968 13.0426 18.3821 13.0629 18.2734 13.0832C18.1637 13.0984 18.0592 13.1095 17.9615 13.1215C17.9371 13.1243 17.9131 13.1275 17.8892 13.1303C17.8652 13.1317 17.8422 13.133 17.8192 13.1344C17.7731 13.1372 17.7289 13.1395 17.6865 13.1423C17.6013 13.1469 17.5235 13.1529 17.453 13.1547C17.312 13.1552 17.2015 13.1533 17.1259 13.1533C17.0495 13.1529 17.0094 13.1524 17.0094 13.1524Z" fill="#3B82F6"/>
<path d="M17.0094 12.8141C17.0094 12.8141 17.0509 12.8118 17.1282 12.8081C17.1669 12.8058 17.2148 12.8044 17.271 12.7998C17.3268 12.7952 17.3913 12.7897 17.4631 12.7837C17.535 12.7749 17.6142 12.7661 17.7003 12.7541C17.786 12.7398 17.8791 12.7264 17.9772 12.7047C18.1734 12.6641 18.3917 12.6051 18.6225 12.5197C18.8528 12.4339 19.0942 12.3208 19.3406 12.1828C19.588 12.0467 19.8399 11.8847 20.114 11.7334C20.3872 11.582 20.6843 11.4403 21.0058 11.3531C21.3268 11.2617 21.6631 11.2248 22.0021 11.222L22.126 11.2253C22.167 11.2262 22.2085 11.2271 22.2513 11.2308L22.3784 11.24L22.5037 11.2548C22.6705 11.2765 22.8354 11.3074 22.9952 11.3536C23.3167 11.4408 23.6138 11.5829 23.887 11.7338C24.161 11.8852 24.413 12.0472 24.6604 12.1833C24.9068 12.3213 25.1482 12.4343 25.3785 12.5202C25.6088 12.6055 25.8276 12.6646 26.0238 12.7052C26.1215 12.7274 26.2145 12.7403 26.3002 12.755C26.3863 12.767 26.4655 12.7758 26.5374 12.7846C26.6093 12.7906 26.6737 12.7961 26.7295 12.8007C26.7857 12.8053 26.8331 12.8067 26.8718 12.809C26.9492 12.8132 26.9907 12.815 26.9907 12.815C26.9907 12.815 26.9492 12.8155 26.8718 12.8169C26.8331 12.8169 26.7852 12.8192 26.729 12.8178C26.6728 12.816 26.6079 12.8141 26.5356 12.8123C26.4632 12.8072 26.3831 12.8021 26.2956 12.7943C26.2085 12.7841 26.1141 12.7753 26.0141 12.7578C25.8138 12.7269 25.589 12.678 25.3513 12.5981C25.1136 12.5197 24.8626 12.4126 24.6092 12.2783C24.3545 12.1468 24.097 11.9913 23.8262 11.846C23.6903 11.7735 23.5507 11.7047 23.4061 11.6434C23.2614 11.582 23.1113 11.5308 22.9579 11.4883C22.8045 11.4449 22.6461 11.4159 22.4858 11.396L22.3655 11.3826L22.2453 11.3748C22.2057 11.3716 22.1642 11.3702 22.1228 11.3697L21.9989 11.3669C21.6769 11.3683 21.3494 11.402 21.0431 11.4883C20.8897 11.5312 20.7395 11.582 20.5949 11.6434C20.4503 11.7047 20.3107 11.7735 20.1748 11.846C19.904 11.9918 19.646 12.1468 19.3917 12.2783C19.1389 12.4126 18.8878 12.5197 18.6497 12.5981C18.412 12.678 18.1872 12.7269 17.9868 12.7578C17.8869 12.7753 17.7925 12.7841 17.7054 12.7943C17.6183 12.8021 17.5377 12.8072 17.4654 12.8123C17.3926 12.8146 17.3282 12.8164 17.2715 12.8178C17.2153 12.8187 17.1674 12.8169 17.1287 12.8169C17.0509 12.8146 17.0094 12.8141 17.0094 12.8141Z" fill="#3B82F6"/>
<path d="M17.0094 12.4754C17.0094 12.4754 17.0522 12.4731 17.1324 12.4685C17.1725 12.4658 17.2222 12.4653 17.2798 12.4588C17.3374 12.4528 17.4037 12.4459 17.4779 12.4385C17.6253 12.4168 17.8054 12.3915 18.0048 12.3352C18.2047 12.2812 18.4254 12.2027 18.6538 12.0924C18.8828 11.9826 19.1172 11.8368 19.3544 11.6665C19.5926 11.4971 19.8326 11.3005 20.0965 11.1127C20.2287 11.0191 20.366 10.9268 20.512 10.8432C20.658 10.7602 20.8128 10.6859 20.9749 10.6259C21.1366 10.5645 21.3066 10.523 21.4784 10.4921L21.6078 10.4722L21.7382 10.4598L21.8036 10.4538L21.869 10.4519L22.0021 10.4478L22.1302 10.4519L22.1942 10.4538L22.2601 10.4598L22.3918 10.4722L22.5212 10.4921C22.693 10.523 22.863 10.5645 23.0247 10.6259C23.1868 10.6859 23.3411 10.7602 23.4876 10.8432C23.6336 10.9272 23.7709 11.0191 23.9031 11.1127C24.167 11.3005 24.4066 11.4971 24.6452 11.6665C24.8824 11.8368 25.1168 11.9826 25.3458 12.0924C25.5742 12.2032 25.7949 12.2812 25.9948 12.3352C26.1942 12.3915 26.3743 12.4168 26.5217 12.4385C26.5959 12.4464 26.6622 12.4528 26.7203 12.4588C26.7779 12.4653 26.8276 12.4658 26.8677 12.4685C26.9478 12.4731 26.9907 12.4754 26.9907 12.4754C26.9907 12.4754 26.9478 12.4759 26.8677 12.4764C26.7875 12.4787 26.6696 12.4759 26.5194 12.4662C26.3702 12.4514 26.1873 12.4344 25.9824 12.3873C25.7774 12.3425 25.5484 12.2738 25.3112 12.1676C25.1919 12.1164 25.0722 12.0532 24.9496 11.9854C24.829 11.9148 24.7055 11.8391 24.5839 11.7546C24.3379 11.589 24.092 11.3984 23.8303 11.2166C23.699 11.1266 23.5641 11.0384 23.4222 10.96C23.2799 10.8825 23.1316 10.8132 22.9772 10.7565C22.8234 10.6988 22.6617 10.66 22.4982 10.6319L22.3747 10.6134L22.2513 10.6023L22.1896 10.5968L22.1255 10.595L21.997 10.5913L21.8736 10.5945L21.8109 10.5963L21.7488 10.6014L21.6239 10.6125L21.5005 10.631C21.337 10.6596 21.1753 10.6979 21.0214 10.7556C20.8676 10.8123 20.7188 10.8811 20.5765 10.9591C20.4346 11.0375 20.2992 11.1257 20.1684 11.2156C19.9067 11.397 19.6608 11.5876 19.4148 11.7537C19.2927 11.8377 19.1697 11.9138 19.049 11.9844C18.9265 12.0523 18.8068 12.1155 18.6875 12.1667C18.4502 12.2729 18.2213 12.3416 18.0163 12.3864C17.8113 12.4335 17.6289 12.451 17.4792 12.4653C17.3291 12.475 17.2112 12.4778 17.131 12.4754C17.0522 12.4759 17.0094 12.4754 17.0094 12.4754Z" fill="#3B82F6"/>
<path d="M4.01145 9.6093C4.02205 9.26597 4.06765 8.90879 4.17682 8.54792C4.28598 8.1889 4.47023 7.82019 4.7526 7.51377C5.03358 7.20597 5.40622 6.9817 5.78485 6.8691C6.16487 6.75281 6.5458 6.73389 6.90555 6.76943C7.26622 6.8068 7.61031 6.89956 7.93643 7.04261C8.26209 7.18844 8.57485 7.37487 8.85445 7.67344C8.92401 7.7482 8.99033 7.83265 9.05114 7.92863L9.06496 7.95032L9.06772 7.9554C9.06864 7.95955 9.0714 7.96186 9.07279 7.96509C9.07647 7.97155 9.0797 7.97663 9.08522 7.98263C9.10319 8.0057 9.15938 8.04077 9.25473 8.06754C9.44727 8.12199 9.73424 8.13629 10.0286 8.15245C10.3261 8.16906 10.6467 8.1889 10.977 8.25535C11.3064 8.32134 11.6504 8.43948 11.9544 8.64022C12.2598 8.83819 12.5104 9.11184 12.6896 9.40533C12.8711 9.69929 12.9918 10.0103 13.0779 10.3195C13.1221 10.4741 13.1558 10.6291 13.1848 10.7837L13.2244 11.0011C13.2364 11.0685 13.2483 11.1358 13.2658 11.2014C13.3349 11.5009 13.4381 11.7907 13.5805 12.0565C13.4284 12.2166 13.2833 12.3781 13.1442 12.5429C12.895 12.1894 12.7126 11.7897 12.5906 11.3841C12.5657 11.308 12.5464 11.2314 12.527 11.1543L12.4731 10.9388C12.439 10.805 12.4008 10.6734 12.3552 10.5465C12.2663 10.2923 12.1521 10.0555 12.0088 9.85572C11.866 9.65545 11.6947 9.49624 11.4961 9.38641C11.2981 9.27474 11.0701 9.21013 10.8195 9.17644C10.568 9.14322 10.2976 9.14183 10.006 9.14552C9.85999 9.14691 9.70845 9.14968 9.54677 9.14552C9.38509 9.14091 9.21282 9.13122 9.01982 9.09292C8.82912 9.05323 8.60203 8.97986 8.39337 8.81188C8.34178 8.77081 8.29295 8.7242 8.24873 8.6739C8.22662 8.64852 8.20451 8.6236 8.18563 8.59638L8.15661 8.55623L8.14325 8.53777L8.1391 8.5327C8.11837 8.50547 8.0912 8.47501 8.05757 8.44456C7.92445 8.31904 7.71579 8.20228 7.49791 8.12522C7.05894 7.96509 6.55087 7.94525 6.18928 8.08876C5.82723 8.23043 5.6241 8.50362 5.5246 8.92494C5.47762 9.13399 5.45919 9.36934 5.46933 9.61622C5.47025 9.6776 5.47624 9.74036 5.47992 9.80312L5.49881 10.0015C5.79038 11.4986 7.37401 12.134 8.4947 12.4736C9.08707 12.6531 9.61356 12.6222 9.6131 12.8714C9.61218 13.1852 8.28834 12.8751 8.25472 13.0034C8.22063 13.1331 9.42148 13.6624 9.37357 13.786C9.32521 13.9106 8.08152 13.4921 8.02026 13.6102C7.95854 13.7284 9.01106 14.5129 8.9369 14.6232C8.86228 14.7334 7.74251 14.0491 7.65637 14.1506C7.57023 14.2521 8.42331 15.2503 8.32658 15.3417C8.22985 15.4326 7.28879 14.5166 7.18239 14.5964C7.07598 14.6758 7.68677 15.8391 7.57161 15.907C7.45738 15.9739 6.74433 14.871 6.62181 14.925C6.50112 14.9785 7.09901 16.1146 6.70887 16.2895C6.44355 16.4086 6.30536 15.6868 6.14368 15.2844C5.89909 14.6748 4.81985 13.0163 4.81985 13.0163V13.0159C4.73049 12.8613 4.64896 12.703 4.57572 12.5424C4.29105 11.9148 4.12615 11.2526 4.05567 10.5987C4.04462 10.517 4.04001 10.4353 4.0331 10.3536C4.02711 10.272 4.01928 10.1903 4.0179 10.1095L4.00961 9.86588C4.00915 9.78051 4.00777 9.6956 4.01145 9.6093Z" fill="#3B82F6"/>
<path d="M5.13911 17.9065C6.62732 17.9065 7.83376 16.6979 7.83376 15.2069C7.83376 13.716 6.62732 12.5073 5.13911 12.5073C3.65089 12.5073 2.44446 13.716 2.44446 15.2069C2.44446 16.6979 3.65089 17.9065 5.13911 17.9065Z" fill="#3B82F6"/>
<path d="M39.9885 9.6093C39.978 9.26597 39.9323 8.90879 39.8232 8.54792C39.714 8.1889 39.5298 7.82019 39.2474 7.51377C38.9664 7.20644 38.5938 6.9817 38.2151 6.8691C37.8351 6.75281 37.4542 6.73389 37.0944 6.76943C36.7338 6.8068 36.3897 6.89956 36.0636 7.04261C35.7379 7.18844 35.4251 7.37487 35.1456 7.67344C35.076 7.7482 35.0097 7.83265 34.9489 7.92863L34.935 7.95032L34.9323 7.9554C34.9314 7.95955 34.9286 7.96186 34.9272 7.96509C34.9235 7.97155 34.9203 7.97663 34.9148 7.98263C34.8968 8.0057 34.8406 8.04077 34.7453 8.06754C34.5527 8.12199 34.2658 8.13629 33.9714 8.15245C33.6739 8.16906 33.3533 8.1889 33.023 8.25535C32.6937 8.32134 32.3496 8.43948 32.0456 8.64022C31.7402 8.83819 31.4896 9.11184 31.3104 9.40533C31.1289 9.69929 31.0082 10.0103 30.9221 10.3195C30.8779 10.4741 30.8442 10.6291 30.8152 10.7837L30.7756 11.0011C30.7636 11.0685 30.7517 11.1358 30.7342 11.2014C30.6651 11.5009 30.5619 11.7907 30.4196 12.0565C30.5716 12.2166 30.7167 12.3781 30.8558 12.5429C31.105 12.1894 31.2874 11.7897 31.4094 11.3841C31.4343 11.308 31.4537 11.2314 31.473 11.1543L31.5269 10.9388C31.561 10.805 31.5992 10.6734 31.6448 10.5465C31.7337 10.2923 31.8479 10.0555 31.9912 9.85572C32.134 9.65545 32.3053 9.49624 32.5039 9.38641C32.7019 9.27474 32.93 9.21013 33.1805 9.17644C33.432 9.14322 33.7024 9.14183 33.994 9.14552C34.14 9.14691 34.2916 9.14968 34.4532 9.14552C34.6149 9.14091 34.7872 9.13122 34.9802 9.09292C35.1709 9.05323 35.398 8.97986 35.6066 8.81188C35.6582 8.77081 35.7071 8.7242 35.7513 8.6739C35.7734 8.64852 35.7955 8.6236 35.8144 8.59638L35.8434 8.55623L35.8568 8.53777L35.8609 8.5327C35.8816 8.50547 35.9088 8.47501 35.9424 8.44456C36.0755 8.31904 36.2842 8.20228 36.5021 8.12522C36.9411 7.96509 37.4491 7.94525 37.8107 8.08876C38.1728 8.23043 38.3759 8.50362 38.4754 8.92494C38.5224 9.13399 38.5408 9.36934 38.5307 9.61622C38.5297 9.6776 38.5238 9.74036 38.5201 9.80312L38.5012 10.0015C38.2096 11.4986 36.626 12.134 35.5053 12.4736C34.9129 12.6531 34.3864 12.6222 34.3869 12.8714C34.3878 13.1852 35.7117 12.8751 35.7453 13.0034C35.7794 13.1331 34.5785 13.6624 34.6264 13.786C34.6748 13.9106 35.9185 13.4921 35.9797 13.6102C36.0415 13.7284 34.9889 14.5129 35.0631 14.6232C35.1377 14.7334 36.2575 14.0491 36.3436 14.1506C36.4298 14.2521 35.5767 15.2503 35.6734 15.3417C35.7702 15.4326 36.7112 14.5166 36.8176 14.5964C36.924 14.6758 36.3132 15.8391 36.4284 15.907C36.5426 15.9739 37.2557 14.871 37.3782 14.925C37.4989 14.9785 36.901 16.1146 37.2911 16.2895C37.5565 16.4086 37.6946 15.6868 37.8563 15.2844C38.1009 14.6748 39.1802 13.0163 39.1802 13.0163V13.0159C39.2695 12.8613 39.351 12.703 39.4243 12.5424C39.7089 11.9148 39.8738 11.2526 39.9443 10.5987C39.9554 10.517 39.96 10.4353 39.9669 10.3536C39.9729 10.272 39.9807 10.1903 39.9821 10.1095L39.9904 9.86588C39.9908 9.78051 39.9922 9.6956 39.9885 9.6093Z" fill="#3B82F6"/>
<path d="M38.861 17.9065C40.3492 17.9065 41.5557 16.6979 41.5557 15.2069C41.5557 13.716 40.3492 12.5073 38.861 12.5073C37.3728 12.5073 36.1664 13.716 36.1664 15.2069C36.1664 16.6979 37.3728 17.9065 38.861 17.9065Z" fill="#3B82F6"/>
</svg>
