<svg width="44" height="44" viewBox="0 0 44 44" fill="none" xmlns="http://www.w3.org/2000/svg">
<path d="M0 22C0 9.84974 9.84974 0 22 0C34.1503 0 44 9.84974 44 22C44 34.1503 34.1503 44 22 44C9.84974 44 0 34.1503 0 22Z" fill="#EFF6FF"/>
<path d="M3.48788 8.83472C3.49051 8.82828 3.49404 8.82203 3.4958 8.81526C3.57346 8.51142 3.79203 8.3714 4.08022 8.31314C4.41149 8.24611 4.73605 8.28071 5.05219 8.38981C5.43641 8.5225 5.82603 8.63392 6.2253 8.71058C6.56882 8.77655 6.91361 8.83491 7.2632 8.86084C7.47252 8.87637 7.68128 8.90399 7.89079 8.9112C8.99958 8.94931 10.1005 8.87244 11.1909 8.66205C11.8603 8.53295 12.5352 8.48419 13.2164 8.50226C14.3652 8.53268 15.4849 8.72372 16.5705 9.10225C17.4565 9.41117 18.2782 9.83882 19.0041 10.44C19.4161 10.7812 19.7758 11.1704 20.0852 11.6067C20.4335 12.0979 20.7504 12.6096 21.0756 13.1158C21.5296 13.8224 21.9937 14.5222 22.5059 15.1883C23.079 15.9339 23.7021 16.6324 24.441 17.22C24.831 17.5301 25.245 17.8024 25.6951 18.0193C26.1591 18.243 26.6462 18.3903 27.1533 18.4719C27.8991 18.5918 28.6461 18.7041 29.392 18.8238C30.6562 19.0266 31.9167 19.2495 33.1597 19.5599C34.3631 19.8604 35.5442 20.2289 36.6747 20.7462C37.4857 21.1173 38.2566 21.5556 38.9549 22.1143C39.6562 22.6753 40.2497 23.33 40.6795 24.1236C41.0471 24.8024 41.2677 25.5266 41.3535 26.2946C41.4153 26.8473 41.4089 27.3997 41.3522 27.9501C41.2291 29.1458 40.8888 30.2797 40.3491 31.3546C39.83 32.3884 39.1638 33.3183 38.3805 34.1671C37.2886 35.3502 36.0268 36.3187 34.6392 37.1276C33.3324 37.8895 31.9498 38.4767 30.4986 38.9004C29.5699 39.1715 28.6253 39.369 27.6634 39.4793C27.1069 39.5431 26.5495 39.5804 25.9889 39.5889C25.6033 39.5948 25.2186 39.5917 24.835 39.561C23.8635 39.4832 22.9058 39.322 21.9648 39.0652C20.2788 38.6052 18.6997 37.8992 17.2005 37.0078C16.2727 36.4562 15.3903 35.8391 14.5518 35.1593C14.1222 34.8109 13.7069 34.4463 13.3097 34.0614C12.9373 33.7005 12.6016 33.3069 12.2768 32.9028C11.8911 32.4229 11.4998 31.9474 11.1027 31.4768C10.5116 30.7761 9.90476 30.0889 9.26386 29.4328C8.92128 29.0821 8.56035 28.7533 8.15771 28.4692C7.67096 28.1258 7.22827 27.7273 6.79945 27.3146C6.03569 26.5795 5.35067 25.777 4.76063 24.8955C4.1141 23.9296 3.60298 22.8989 3.29575 21.7737C3.12934 21.1643 3.02912 20.5446 3.00061 19.9122C2.98637 19.5966 2.98851 19.2822 3.01299 18.9682C3.03198 18.7244 3.06837 18.4818 3.10105 18.2392C3.14782 17.8926 3.20012 17.5467 3.24667 17.2C3.283 16.9296 3.31511 16.6587 3.34693 16.3877C3.35997 16.2765 3.3676 16.1647 3.37723 16.0531C3.39279 15.8719 3.40858 15.6906 3.42319 15.5093C3.46423 14.9986 3.458 14.4882 3.40191 13.9793C3.3539 13.543 3.21402 13.1344 3.00811 12.747C2.81429 12.3822 2.62972 12.013 2.50486 11.6172C2.45426 11.4567 2.41577 11.2945 2.39182 11.1273C2.35891 10.897 2.39493 10.682 2.50014 10.4765C2.66265 10.0609 2.83235 9.97924 3.30051 10.0945C3.51892 10.1482 3.73077 10.2265 3.92565 10.3348C4.71047 10.7708 5.45859 11.2564 6.04629 11.9531C6.30822 12.2635 6.32113 12.3854 6.09344 12.731C5.90169 13.0222 5.69311 13.3033 5.56541 13.6259C5.56835 13.6213 5.56451 13.628 5.56531 13.6267C6.0919 12.609 6.72758 11.6821 7.68546 11.0233C7.68302 11.0247 7.67897 11.0274 7.66625 11.0352C7.39028 11.2309 7.12436 11.4319 6.90201 11.6874C6.75962 11.8511 6.57091 11.8497 6.38078 11.7803C6.12832 11.6882 5.91337 11.5304 5.70119 11.3718C5.50475 11.2249 5.29669 11.1025 5.07923 10.9885C4.55559 10.7137 4.01541 10.464 3.61305 10.0017C3.37192 9.72467 3.30873 9.41753 3.35614 9.06774C3.3698 8.96699 3.45726 8.91941 3.48788 8.83472Z" fill="#93C5FD"/>
<path d="M5.48334 13.7441C5.52408 13.5504 5.60292 13.3722 5.70833 13.2057C5.80176 13.0582 5.90048 12.9139 5.99369 12.7662C6.0457 12.6836 6.09286 12.5978 6.13936 12.5119C6.18265 12.4318 6.17542 12.3513 6.13564 12.2709C6.07943 12.1571 6.00471 12.0567 5.92266 11.961C5.66686 11.6624 5.37199 11.4059 5.06177 11.1667C4.65677 10.8545 4.22676 10.582 3.76004 10.3702C3.60729 10.3009 3.45108 10.2399 3.28965 10.1939C3.23609 10.1786 3.18146 10.1659 3.12644 10.1574C2.89105 10.1209 2.69885 10.1894 2.56374 10.3937C2.54451 10.4227 2.52145 10.4492 2.50026 10.4769C2.48676 10.4432 2.49004 10.4097 2.49689 10.3745C2.57943 9.94789 2.75871 9.56797 3.04003 9.23588C3.17105 9.08123 3.29948 8.92469 3.48815 8.83498C3.47786 8.89678 3.4697 8.95903 3.45704 9.02043C3.38067 9.3898 3.47119 9.71199 3.72283 9.99206C3.87852 10.1654 4.06006 10.3059 4.25428 10.4322C4.51289 10.6004 4.78851 10.7374 5.06569 10.8708C5.33142 10.9987 5.58294 11.1471 5.81604 11.3286C5.93161 11.4187 6.05476 11.4997 6.17939 11.5771C6.25595 11.6248 6.33973 11.6629 6.42369 11.6964C6.59097 11.7632 6.73853 11.731 6.86099 11.5949C6.99731 11.4435 7.15086 11.3108 7.31574 11.1919C7.43462 11.1062 7.55292 11.0181 7.69394 10.9694C7.7422 10.9595 7.75458 10.9825 7.74526 11.0253C7.56484 11.1904 7.38064 11.3517 7.20479 11.5215C6.5757 12.1286 6.06154 12.8234 5.63752 13.5864C5.60018 13.6536 5.56247 13.7207 5.52498 13.7879C5.48604 13.7969 5.46672 13.7876 5.48334 13.7441Z" fill="#DBEAFE"/>
<path d="M25.2664 39.4233C25.1545 39.4188 25.0426 39.4139 24.9306 39.41C24.5385 39.3967 24.1509 39.3424 23.7632 39.2862C23.3613 39.2279 22.9627 39.154 22.5679 39.0605C21.7153 38.8587 20.8834 38.5929 20.0702 38.2654C19.1789 37.9064 18.3193 37.4843 17.4887 37.0029C16.6948 36.5429 15.9318 36.0362 15.2016 35.4795C14.7896 35.1653 14.3887 34.8383 13.9994 34.4968C13.5413 34.0949 13.1075 33.6678 12.7139 33.2021C12.4657 32.9084 12.2308 32.6035 11.9891 32.3043C11.8704 32.1574 11.7517 32.0104 11.6299 31.8661C11.4223 31.6203 11.2106 31.3779 11.0036 31.1316C10.4855 30.5152 9.94192 29.9218 9.38408 29.3418C9.04457 28.9887 8.68393 28.6583 8.28205 28.3736C7.84767 28.0659 7.44661 27.7169 7.0596 27.3511C6.76466 27.0722 6.47175 26.7908 6.20077 26.4892C5.58726 25.8062 5.02669 25.0821 4.5533 24.2933C4.0829 23.5097 3.70513 22.6847 3.45538 21.8036C3.3157 21.3109 3.22136 20.8089 3.17377 20.2995C3.14844 20.0284 3.13789 19.7557 3.14797 19.4821C3.16639 18.9852 3.1961 18.4903 3.28893 18.0002C3.32654 17.8013 3.34135 17.5982 3.36789 17.3971C3.39903 17.1615 3.4315 16.9261 3.46344 16.6906C3.46629 16.6698 3.47099 16.6492 3.47242 16.6283C3.51164 16.056 3.59418 15.4861 3.58371 14.9113C3.57702 14.5412 3.56389 14.1702 3.49976 13.8037C3.42911 13.3997 3.2878 13.0211 3.09219 12.662C2.85236 12.222 2.69623 11.7521 2.59213 11.2636C2.55063 11.069 2.55917 10.8721 2.58676 10.6783C2.62088 10.4387 2.78888 10.215 3.14278 10.2851C3.38557 10.3332 3.61034 10.4302 3.82995 10.539C4.46808 10.8549 5.04274 11.2631 5.55922 11.7521C5.71126 11.8961 5.85445 12.0496 5.97088 12.2269C6.04546 12.3404 6.05439 12.443 5.97787 12.5565C5.89962 12.6724 5.82896 12.7935 5.75121 12.9099C5.60678 13.126 5.47672 13.3489 5.39497 13.5975C5.34211 13.7581 5.30004 13.9203 5.30313 14.0905C5.30496 14.1907 5.28469 14.2841 5.24297 14.375C4.92625 15.0648 4.69831 15.785 4.51946 16.5208C4.43861 16.8537 4.37221 17.1899 4.31736 17.5287C4.25454 17.916 4.20961 18.3038 4.19222 18.696C4.16467 19.314 4.20933 19.9257 4.31527 20.5344C4.47623 21.4592 4.7859 22.3324 5.21143 23.1673C5.54955 23.8308 5.95627 24.4487 6.4155 25.0337C6.63159 25.3091 6.85234 25.5811 7.0931 25.8342C7.66781 26.4381 8.27501 27.0067 8.96137 27.485C9.30111 27.7218 9.60509 28.0014 9.90714 28.2827C10.8862 29.1944 11.7948 30.1744 12.6865 31.1701C13.0316 31.5555 13.3593 31.9563 13.6861 32.3579C14.0834 32.846 14.4923 33.3252 14.9505 33.7597C15.1331 33.9329 15.3031 34.1188 15.4873 34.2911C15.8144 34.5971 16.1469 34.8964 16.4901 35.1842C17.1611 35.7472 17.8654 36.2651 18.6069 36.7314C19.426 37.2465 20.2804 37.6941 21.1789 38.0561C21.8749 38.3364 22.5863 38.5671 23.3183 38.7319C23.6866 38.8147 24.0583 38.8796 24.4325 38.9331C24.6897 38.9698 24.9472 38.9858 25.2052 39.0057C25.3306 39.0153 25.4557 39.0482 25.5803 39.045C25.9647 39.0348 26.3491 39.0527 26.7337 39.0302C27.09 39.0093 27.4452 38.9824 27.7993 38.9387C28.3488 38.8707 28.8913 38.7671 29.4287 38.6342C30.397 38.3947 31.3307 38.0573 32.2326 37.6325C33.1602 37.1957 34.0363 36.6701 34.8623 36.0632C35.4154 35.6568 35.9449 35.2197 36.4349 34.7379C37.2567 33.93 37.9885 33.0495 38.59 32.0628C38.9263 31.5111 39.2183 30.938 39.4552 30.3379C39.6819 29.7638 39.8469 29.1719 39.9624 28.5644C40.0689 28.004 40.108 27.4387 40.0952 26.8723C40.079 26.1632 39.975 25.4646 39.7247 24.7949C39.5421 24.3063 39.292 23.8568 38.97 23.4447C38.5496 22.9068 38.0266 22.4927 37.445 22.1467C36.8521 21.7939 36.215 21.5413 35.5579 21.3389C34.8884 21.1327 34.206 20.9798 33.5146 20.8673C33.0938 20.7989 32.6732 20.728 32.2514 20.6651C32.0164 20.6302 31.7791 20.6105 31.5432 20.5818C31.2934 20.5514 31.0439 20.5187 30.7943 20.4868C30.7527 20.4815 30.7114 20.4742 30.6696 20.4694C30.2529 20.4213 29.8349 20.3825 29.4198 20.3234C28.7691 20.2307 28.1197 20.1303 27.4814 19.9668C27.0109 19.8462 26.5619 19.6732 26.1303 19.4536C25.4087 19.0866 24.7591 18.6155 24.1472 18.0877C23.4935 17.5239 22.9023 16.8988 22.3407 16.2465C21.7563 15.5678 21.2161 14.8537 20.7024 14.1194C20.2169 13.4254 19.7542 12.7167 19.3043 11.9994C18.9256 11.3959 18.4263 10.9155 17.8323 10.5276C17.2039 10.1174 16.515 9.84985 15.7926 9.66337C15.3794 9.55673 14.9592 9.4869 14.5354 9.43052C14.0059 9.35999 13.4744 9.33946 12.9435 9.34415C12.2086 9.35062 11.4773 9.42033 10.7549 9.56805C10.0973 9.70252 9.48043 9.94214 8.89258 10.2621C8.65861 10.3895 8.43128 10.5275 8.21554 10.6837C8.13355 10.7431 8.05072 10.7827 7.9445 10.7722C7.83724 10.7616 7.73859 10.8026 7.64286 10.8488C7.40767 10.9623 7.19787 11.1133 7.00198 11.2842C6.92818 11.3486 6.85361 11.4139 6.79035 11.488C6.68121 11.616 6.5554 11.6267 6.41298 11.561C6.356 11.5347 6.29829 11.508 6.24602 11.4736C6.11744 11.389 5.98732 11.3058 5.86613 11.2114C5.5991 11.0034 5.3015 10.8492 5.00006 10.7001C4.69891 10.5511 4.40049 10.3972 4.12846 10.1972C3.98035 10.0883 3.85529 9.95695 3.7403 9.81564C3.4769 9.49185 3.53034 9.02964 3.69615 8.74758C3.72528 8.69798 3.76434 8.65822 3.81604 8.63322C3.87895 8.60272 3.94122 8.56811 4.00764 8.54823C4.35039 8.44547 4.69477 8.41991 5.03915 8.54181C5.4689 8.69392 5.90934 8.80729 6.35707 8.88936C6.55597 8.9258 6.75813 8.94937 6.95857 8.97866C7.45241 9.05075 7.94924 9.0508 8.44543 9.07014C8.76027 9.08243 9.07416 9.05373 9.38835 9.0379C9.68914 9.02273 9.98757 8.98844 10.2863 8.95326C10.6967 8.90507 11.1019 8.82485 11.5093 8.75832C11.9797 8.68152 12.4531 8.63953 12.9302 8.65723C13.2659 8.6696 13.6015 8.68874 13.9374 8.69807C14.1834 8.70487 14.4247 8.74849 14.6663 8.78448C15.2207 8.86708 15.7647 8.99846 16.2981 9.17149C17.2588 9.483 18.1506 9.92383 18.9317 10.5735C19.3707 10.9387 19.7463 11.3605 20.0624 11.8348C20.3224 12.2249 20.5811 12.6159 20.8329 13.0113C21.3292 13.7904 21.8387 14.5606 22.3984 15.2961C22.5254 15.463 22.6613 15.6232 22.7945 15.7853C22.8966 15.9096 22.9969 16.0358 23.105 16.1547C23.6193 16.7207 24.1743 17.2412 24.8061 17.6766C25.4481 18.1191 26.1457 18.4332 26.9132 18.5794C27.2976 18.6527 27.6858 18.7062 28.0723 18.7688C28.3621 18.8158 28.6517 18.8642 28.9417 18.9099C29.2387 18.9566 29.5363 18.9994 29.8332 19.0464C30.0749 19.0847 30.3168 19.1222 30.5572 19.1678C31.0587 19.2631 31.5592 19.363 32.06 19.4621C32.5337 19.5558 33.0024 19.6713 33.4697 19.7922C34.3584 20.0224 35.2301 20.3046 36.0806 20.6502C37.0048 21.0258 37.8813 21.4894 38.6812 22.0899C39.1362 22.4315 39.5536 22.8152 39.9132 23.2562C40.6147 24.1166 41.0539 25.0934 41.1918 26.2007C41.2264 26.4789 41.2524 26.7567 41.2396 27.0375C41.2358 27.121 41.241 27.2053 41.2472 27.2889C41.2533 27.3733 41.2501 27.4564 41.2389 27.54C41.2249 27.644 41.2106 27.7483 41.2053 27.8528C41.1876 28.2033 41.1269 28.5476 41.0571 28.8904C40.9238 29.5443 40.7204 30.1763 40.4525 30.7874C40.179 31.4109 39.8508 32.0042 39.4671 32.567C39.0756 33.1408 38.6441 33.6833 38.1646 34.1846C37.8118 34.5534 37.4466 34.91 37.054 35.2398C36.5061 35.7001 35.9356 36.1275 35.3394 36.5211C34.8072 36.8724 34.2552 37.1906 33.6845 37.4755C33.4465 37.5943 33.2069 37.7102 32.9654 37.8215C31.6492 38.4281 30.2787 38.8656 28.8563 39.1416C28.2925 39.2511 27.7251 39.3316 27.1526 39.3783C26.8738 39.401 26.5944 39.4129 26.3156 39.4304C25.9645 39.4532 25.6159 39.4302 25.2664 39.4233Z" fill="#3B82F6"/>
<path d="M33.553 34.0305C33.6171 34.0028 33.681 33.9744 33.7454 33.9475C33.836 33.9097 33.929 33.8748 33.9918 33.7937C34.0302 33.7441 34.0808 33.7294 34.139 33.7288C34.6385 33.723 35.0923 33.2349 35.1295 32.7024C35.1437 32.4982 35.1305 32.2971 35.0856 32.0976C35.0534 31.9543 35.0222 31.8107 34.9908 31.6672C34.9377 31.4241 34.9365 31.1785 34.9897 30.9373C35.0866 30.497 34.9764 30.0906 34.8019 29.6945C34.7732 29.6293 34.7686 29.5859 34.8023 29.523C34.9471 29.2534 35.0203 28.9634 35.0296 28.6578C35.0332 28.5388 35.032 28.4198 35.0342 28.3009C35.0358 28.224 35.0374 28.1469 35.0433 28.0702C35.0574 27.8828 35.154 27.7508 35.333 27.698C35.5633 27.6302 35.7789 27.5351 35.9824 27.4086C36.0487 27.3674 36.0799 27.3926 36.0811 27.4784C36.0817 27.5274 36.0822 27.5766 36.0779 27.6253C36.0611 27.8139 36.1104 27.987 36.2044 28.1474C36.275 28.268 36.3513 28.3854 36.4298 28.5012C36.5514 28.6808 36.6795 28.8561 36.8003 29.0362C36.941 29.2459 37.0648 29.4651 37.1516 29.7034C37.2641 30.0122 37.2988 30.3232 37.2285 30.6511C37.0989 31.256 36.909 31.8406 36.6698 32.4093C36.1095 33.7408 35.3564 34.9585 34.4762 36.1005C34.4114 36.1846 34.3355 36.2541 34.247 36.3135C32.5399 37.4594 30.6845 38.2501 28.6651 38.6469C27.9428 38.7888 27.2138 38.8688 26.4772 38.8919C26.0073 38.9066 25.5387 38.8965 25.0716 38.8562C24.3245 38.7919 23.5876 38.6623 22.8625 38.4678C21.4801 38.0969 20.1877 37.5181 18.9666 36.7773C18.1635 36.2901 17.3956 35.7532 16.6888 35.1323C16.6176 35.0763 16.5627 35.0019 16.4854 34.9529L16.4866 34.9539C15.5995 34.1567 14.8284 33.2589 14.1608 32.2712C13.9458 31.9531 13.6993 31.658 13.481 31.3418C13.1745 30.8978 13.0105 30.4074 12.987 29.8725C12.972 29.534 12.8442 29.2542 12.6262 29.0017C12.2011 28.5093 11.6814 28.1364 11.1413 27.7835C10.5672 27.4084 9.9566 27.0973 9.36637 26.7506C8.55575 26.2743 7.79496 25.7345 7.11078 25.0898C6.45819 24.4747 5.85311 23.8185 5.40642 23.033C5.05389 22.4132 4.78356 21.7583 4.59952 21.0686C4.47318 20.6227 4.40522 20.1668 4.36027 19.7063C4.3316 19.4128 4.32929 19.1185 4.33495 18.8254C4.34075 18.5252 4.36525 18.2237 4.40551 17.9259C4.49477 17.2666 4.62984 16.6156 4.81381 15.9758C4.94548 15.518 5.10492 15.0698 5.28884 14.6303C5.37816 14.4168 5.48545 14.2131 5.59934 14.0117C5.76805 13.7131 5.92717 13.4092 6.10628 13.1163C6.45186 12.551 6.8669 12.0435 7.3552 11.5955C7.68026 11.2973 8.0045 10.9995 8.37242 10.7516C9.28276 10.1384 10.2767 9.7509 11.3667 9.61183C11.9434 9.53821 12.5215 9.49943 13.1036 9.49536C13.539 9.49237 13.9715 9.51988 14.4025 9.56599C15.3833 9.67096 16.3322 9.90048 17.2175 10.3503C18.0522 10.7746 18.7441 11.3581 19.2326 12.1674C19.4206 12.4789 19.6143 12.787 19.8054 13.0967C19.8384 13.1364 19.8564 13.1854 19.8861 13.2271L19.8854 13.2261C20.2068 13.7574 20.5435 14.279 20.885 14.7976C21.3347 15.4808 21.7694 16.1741 22.2586 16.8304C23.068 17.9161 23.9481 18.9334 25.0614 19.7255C25.6074 20.114 26.1975 20.4076 26.8396 20.6032C27.9448 20.9398 29.0653 21.2116 30.2067 21.3888C30.9124 21.4985 31.6248 21.5145 32.3397 21.4982C32.8772 21.4859 33.4147 21.4374 33.9527 21.4668C34.1288 21.4764 34.3009 21.4432 34.4761 21.4431C35.1113 21.4427 35.7191 21.584 36.3168 21.7819C36.3302 21.7858 36.3434 21.7907 36.357 21.7938C36.6245 21.855 36.7862 22.0339 36.9046 22.2703C37.1867 22.8334 37.3574 23.4268 37.3903 24.0559C37.4132 24.4945 37.315 24.9028 37.0351 25.2541C36.9132 25.4071 36.7973 25.5659 36.6641 25.7083C36.3406 26.0541 36.1731 26.466 36.1159 26.9292C36.1142 26.943 36.1122 26.9569 36.1113 26.9709C36.0995 27.1413 36.0873 27.1719 35.9125 27.1152C35.7774 27.0713 35.6371 27.0743 35.5001 27.119C35.3465 27.1691 35.2327 27.2678 35.1549 27.4077C35.0084 27.6712 34.812 27.9005 34.6441 28.1493C34.6292 28.1714 34.6039 28.1866 34.5834 28.2051C34.5011 28.1943 34.467 28.1339 34.4453 28.0653C34.3239 27.6814 34.1153 27.344 33.8887 27.0162C33.7742 26.8506 33.6919 26.6639 33.5561 26.5125C33.4665 26.3769 33.3749 26.2425 33.2717 26.1165C33.1585 25.9758 33.0107 25.8688 32.8958 25.7297C32.6849 25.4716 32.476 25.2108 32.2363 24.9795C31.7506 24.5108 31.2894 24.0165 30.7628 23.5899C30.4102 23.3042 30.0508 23.0305 29.6606 22.7987C29.5631 22.7408 29.474 22.6806 29.4201 22.5752C29.345 22.4283 29.2213 22.346 29.0564 22.3273C28.8413 22.2064 28.6127 22.1756 28.3732 22.2295C28.0886 22.2934 27.813 22.3831 27.5575 22.5284C27.4343 22.5465 27.3071 22.5377 27.1876 22.5826C27.0614 22.6238 26.9303 22.6385 26.8001 22.6564C26.6951 22.6709 26.6072 22.6449 26.5611 22.5383C26.5092 22.3972 26.5755 22.2646 26.5989 22.1304C26.6196 22.0126 26.6367 21.896 26.6211 21.7784C26.5939 21.5735 26.5159 21.5359 26.331 21.6312C26.2929 21.6507 26.2552 21.666 26.2113 21.6573C26.1063 21.5948 26.0885 21.4874 26.069 21.381C26.0642 21.3474 26.0649 21.3124 26.0554 21.2795C26.031 21.1955 26.0247 21.0912 25.9136 21.0752C25.8055 21.0597 25.758 21.1453 25.7179 21.2267C25.6837 21.2962 25.6483 21.3615 25.5631 21.3777C25.5011 21.3766 25.4699 21.3331 25.4394 21.2886C25.4046 21.2355 25.371 21.1818 25.364 21.1167C25.3559 21.0758 25.3506 21.0341 25.3336 20.9953C25.3024 20.9237 25.2705 20.8481 25.1765 20.8493C25.0851 20.8505 25.0441 20.9212 25.0165 20.9944C24.9471 21.1784 24.9174 21.3709 24.8983 21.5661C24.8893 21.658 24.9076 21.7715 24.7736 21.8003C24.643 21.6536 24.6363 21.4647 24.5987 21.2866C24.5877 21.2121 24.5948 21.1167 24.4989 21.1011C24.392 21.0838 24.3646 21.1834 24.3325 21.2581C24.2687 21.4064 24.2541 21.5677 24.2215 21.7241C24.2075 21.7916 24.2127 21.8645 24.1611 21.9206C24.1038 21.97 24.039 22.005 23.9655 22.0229C23.8058 22.0099 23.7415 22.0985 23.6917 22.2405C23.6198 22.4457 23.683 22.6705 23.5826 22.8683C23.4824 22.9257 23.435 23.0672 23.2897 23.0528C23.1535 23.0674 23.0321 23.0536 22.9869 22.8945C22.9633 22.6493 23.0399 22.4123 23.0479 22.1676C23.0727 21.4026 22.947 20.6795 22.538 20.0191C22.4549 19.8849 22.4254 19.7154 22.2688 19.633C22.1558 19.4626 21.9933 19.3306 21.8892 19.1523C21.8622 19.0699 21.8127 19.0014 21.7426 18.9536C21.4706 18.7682 21.3792 18.4538 21.2013 18.2014C21.1742 18.163 21.1622 18.112 21.1654 18.0613C21.2243 17.7294 21.1316 17.407 21.088 17.085C20.878 15.5352 20.2638 14.1609 19.2544 12.9644C18.0366 11.5209 16.4939 10.6316 14.649 10.25C14.2371 10.1648 13.8193 10.1 13.4037 10.0907C12.6767 10.0743 11.9524 10.1403 11.2423 10.3237C9.89391 10.6719 8.7159 11.3194 7.69027 12.2649C6.68138 13.195 5.95287 14.3045 5.46307 15.5778C5.11462 16.4849 4.90978 17.4209 4.8417 18.3932C4.75051 19.6971 4.94326 20.9483 5.48627 22.1335C6.13098 23.5406 7.14801 24.6202 8.46696 25.4266C9.02515 25.7679 9.62915 26.0052 10.2239 26.2657C10.2491 26.2768 10.2786 26.2767 10.3065 26.2807C10.3944 26.3008 10.4511 26.3635 10.5012 26.4305C11.194 27.3561 12.1261 27.87 13.2596 28.0453C13.7494 28.121 14.2402 28.1753 14.736 28.1862C14.8816 28.1893 15.0293 28.1825 15.1725 28.2223C15.2113 28.2472 15.2508 28.2717 15.2607 28.3221C15.2397 28.4953 15.0808 28.5055 14.9671 28.5523C14.3664 28.7997 14.0194 29.2592 13.8737 29.8724C13.7633 30.3373 13.8074 30.7859 14.0967 31.1944C14.4565 31.7027 14.8463 32.1856 15.2459 32.6627C15.9807 33.5398 16.8068 34.3212 17.6919 35.0409C18.635 35.8079 19.6766 36.4209 20.7672 36.953C21.7374 37.4264 22.7378 37.8222 23.7769 38.1174C24.7919 38.4059 25.8281 38.5685 26.8833 38.5409C28.1012 38.5089 29.2484 38.2084 30.2753 37.5234C31.1425 36.9451 31.8083 36.183 32.3197 35.2804C32.3607 35.2082 32.3845 35.1233 32.4674 35.0826C32.5315 35.0504 32.5929 35.0117 32.6637 34.9949C32.6963 34.9827 32.7386 34.9723 32.7504 34.9416C32.8511 34.6799 33.0926 34.5382 33.2547 34.3321C33.3458 34.2164 33.4387 34.1166 33.553 34.0305Z" fill="#DBEAFE"/>
<path d="M36.2609 27.2862C36.276 27.127 36.2722 26.9324 36.3121 26.7378C36.3865 26.3766 36.5505 26.0682 36.8008 25.8026C36.9839 25.6083 37.1371 25.3912 37.2909 25.1743C37.3231 25.1288 37.3534 25.0801 37.3739 25.0287C37.5079 24.6942 37.6017 24.3528 37.5445 23.9865C37.5294 23.8901 37.5261 23.7919 37.5138 23.6949C37.4483 23.1765 37.296 22.6846 37.0607 22.2183C37.0544 22.2059 37.0466 22.193 37.0454 22.1797C37.0443 22.1675 37.0474 22.1507 37.0554 22.1432C37.0636 22.1353 37.0836 22.1294 37.0924 22.134C37.2224 22.202 37.3559 22.2649 37.4797 22.3429C37.734 22.5035 37.987 22.6689 38.2082 22.873C38.392 23.0425 38.5834 23.2045 38.7372 23.4077C38.8635 23.5746 39.0007 23.7328 39.1153 23.9092C39.4513 24.4261 39.6695 24.9912 39.7977 25.591C39.8604 25.8843 39.9054 26.1812 39.9201 26.483C39.9365 26.8177 39.9565 27.1519 39.951 27.487C39.9497 27.571 39.942 27.6543 39.9211 27.7365C39.9075 27.7904 39.9 27.8466 39.8965 27.9021C39.8676 28.3717 39.7704 28.8293 39.6456 29.2812C39.575 29.5373 39.5012 29.7936 39.4096 30.0427C39.3059 30.3247 39.1891 30.6027 39.0621 30.8751C38.9411 31.1348 38.8023 31.3865 38.6665 31.6389C38.4906 31.9658 38.2843 32.2738 38.0769 32.5814C37.7673 33.0407 37.413 33.4645 37.0514 33.8821C36.9054 34.0507 36.7454 34.208 36.589 34.368C36.3591 34.6034 36.1264 34.8355 35.8791 35.0518C35.6637 35.2404 35.4372 35.4161 35.2154 35.5974C35.2046 35.6063 35.1941 35.6165 35.1818 35.6225C35.0995 35.6625 35.0711 35.7864 34.9525 35.7694C34.969 35.6669 35.0492 35.6027 35.1044 35.5246C35.3994 35.1073 35.6689 34.6744 35.9324 34.2365C36.1167 33.93 36.2796 33.6132 36.4413 33.2957C36.5809 33.0217 36.6966 32.7358 36.8255 32.4563C36.9784 32.1249 37.0875 31.7776 37.1964 31.4308C37.2991 31.1038 37.3789 30.7703 37.432 30.4316C37.4595 30.2561 37.4223 30.0814 37.3829 29.9124C37.3094 29.5965 37.1699 29.3055 36.9948 29.0337C36.87 28.84 36.7314 28.6553 36.602 28.4644C36.5001 28.3142 36.3903 28.1692 36.3136 28.0024C36.2625 27.8915 36.2355 27.7798 36.2449 27.6574C36.2536 27.5456 36.2549 27.4335 36.2609 27.2862Z" fill="#3B82F6"/>
<path d="M36.3169 21.782C36.2552 21.7713 36.1929 21.7631 36.1318 21.7493C35.8589 21.6877 35.5847 21.6397 35.3057 21.6082C35.055 21.5799 34.8046 21.5428 34.5534 21.5511C34.1692 21.5639 33.7843 21.5369 33.4007 21.5729C33.3729 21.5755 33.3447 21.5757 33.3168 21.576C33.0232 21.5807 32.7288 21.5723 32.4362 21.5927C31.8964 21.6302 31.3589 21.5868 30.8212 21.5611C30.5915 21.5502 30.362 21.5153 30.1348 21.4779C29.7692 21.4177 29.4041 21.3541 29.0417 21.2774C28.6587 21.1962 28.2785 21.1011 27.8984 21.0064C27.4093 20.8846 26.9248 20.7453 26.4487 20.5803C26.1045 20.461 25.7777 20.2993 25.4651 20.1111C24.9898 19.8249 24.5524 19.4872 24.142 19.1159C23.8359 18.8391 23.55 18.5411 23.2729 18.2347C22.9443 17.8712 22.6382 17.49 22.3406 17.101C21.7447 16.3219 21.2109 15.5014 20.7001 14.6654C20.4447 14.2474 20.2014 13.8223 19.9528 13.4002C19.9208 13.3459 19.8885 13.2915 19.8851 13.2259C20.0167 13.3451 20.0967 13.503 20.1927 13.6475C20.6266 14.3005 21.0922 14.9306 21.5734 15.5488C22.0939 16.2175 22.6546 16.8524 23.2516 17.4533C23.8442 18.0498 24.481 18.5972 25.1802 19.0672C25.8108 19.4911 26.4811 19.8363 27.2141 20.0486C27.5502 20.1458 27.8913 20.2238 28.2361 20.2844C28.5252 20.3353 28.8149 20.3832 29.1045 20.4318C29.2631 20.4584 29.4238 20.467 29.583 20.4936C29.8171 20.533 30.0549 20.5495 30.2909 20.5783C30.5476 20.6095 30.804 20.6435 31.0606 20.6762C31.1022 20.6815 31.1438 20.6886 31.1855 20.6918C31.4927 20.7147 31.7966 20.762 32.101 20.8063C32.433 20.8547 32.7664 20.8945 33.0981 20.9439C33.3194 20.9768 33.5396 21.0175 33.7595 21.059C34.3648 21.1732 34.965 21.3095 35.5524 21.4969C35.7789 21.5692 36.0026 21.6506 36.2268 21.7299C36.2592 21.7413 36.2871 21.7644 36.3169 21.782Z" fill="#3B82F6"/>
<path d="M4.59956 21.0688C4.63577 21.1053 4.64697 21.1536 4.66144 21.2003C4.92087 22.0366 5.3171 22.8037 5.82778 23.5136C6.08162 23.8664 6.36911 24.1899 6.66139 24.5106C7.08256 24.9727 7.55576 25.3758 8.04874 25.7565C8.47549 26.0859 8.92825 26.3767 9.39289 26.6511C9.7726 26.8754 10.1628 27.0803 10.5422 27.3044C11.0602 27.6104 11.5728 27.9252 12.0449 28.3008C12.32 28.5197 12.5658 28.7685 12.7853 29.0413C12.9688 29.2696 13.0712 29.5309 13.082 29.8319C13.1009 30.3609 13.2523 30.8511 13.5627 31.2853C13.7537 31.5526 13.9496 31.8163 14.1434 32.0816C14.3743 32.3977 14.6035 32.7151 14.8369 33.0295C14.9534 33.1866 15.0782 33.3374 15.1982 33.492C15.5634 33.9629 15.9825 34.3852 16.387 34.8208C16.425 34.8616 16.4679 34.8988 16.4865 34.9541C16.4352 34.9463 16.3991 34.9131 16.3619 34.8808C15.919 34.4949 15.4872 34.0976 15.0764 33.6768C14.8615 33.4567 14.6439 33.2392 14.4383 33.0103C14.1065 32.6409 13.7911 32.2577 13.4832 31.8683C13.4615 31.8409 13.4401 31.8131 13.4175 31.7864C12.7025 30.9433 11.9552 30.129 11.1884 29.3332C10.7083 28.8351 10.2167 28.3472 9.69837 27.8879C9.51002 27.721 9.31988 27.5559 9.1138 27.4102C8.4085 26.9117 7.77422 26.3344 7.18793 25.7005C6.59175 25.0558 6.06337 24.3627 5.62046 23.605C5.19848 22.8831 4.86667 22.1218 4.64125 21.3155C4.61894 21.2349 4.59036 21.155 4.59956 21.0688Z" fill="#3B82F6"/>
<path d="M33.6026 26.4673C33.8954 26.8252 34.1501 27.2088 34.3704 27.6149C34.471 27.8005 34.5268 28.0032 34.5833 28.2053C34.5723 28.2453 34.5671 28.2882 34.5493 28.325C34.3584 28.7192 34.3914 29.1097 34.5815 29.4895C34.64 29.6066 34.6381 29.7023 34.6037 29.8247C34.5443 30.0366 34.471 30.2517 34.5198 30.4791C34.5368 30.5584 34.5016 30.6297 34.4903 30.7046C34.5564 30.8404 34.5322 30.9782 34.4857 31.11C34.3224 31.5724 34.1153 32.0128 33.7856 32.3831C33.6889 32.4916 33.6581 32.6024 33.6762 32.7454C33.7005 32.938 33.736 33.1314 33.7144 33.3274C33.7052 33.4102 33.7052 33.4988 33.603 33.5312C33.5202 33.5237 33.4332 33.5366 33.3609 33.4797C33.361 32.9896 33.3184 32.5065 33.1239 32.0489C33.0017 31.7615 32.9701 31.7452 32.664 31.8205C32.5063 31.8592 32.3695 31.8605 32.3147 31.6678C32.316 31.6461 32.3234 31.6267 32.3364 31.6094C32.5372 31.5262 32.7555 31.5089 32.9617 31.4452C33.049 31.4182 33.109 31.4569 33.1507 31.5344C33.2167 31.657 33.2827 31.7795 33.3345 31.9091C33.29 31.7988 33.2378 31.692 33.1805 31.5881C33.1161 31.4714 33.1332 31.3863 33.2649 31.3419C33.6009 31.2285 33.6733 30.9398 33.7033 30.6448C33.7464 30.2214 33.7408 29.7951 33.7183 29.3693C33.7273 29.1455 33.7363 28.9224 33.7453 28.699C33.7551 28.419 33.7713 28.1393 33.776 27.8593C33.7462 27.4584 33.6771 27.065 33.5573 26.6801C33.5356 26.6106 33.4492 26.5075 33.6026 26.4673Z" fill="#60A5FA"/>
<path d="M33.553 34.0305C33.5545 34.0726 33.5592 34.1254 33.5256 34.1483C33.4417 34.2053 33.3926 34.2758 33.3758 34.3771C33.3675 34.4271 33.3131 34.449 33.2651 34.4627C33.2212 34.4752 33.1949 34.5004 33.1811 34.5451C33.1591 34.6166 33.1114 34.667 33.0354 34.6783C32.9672 34.6884 32.9445 34.7268 32.9375 34.7904C32.9219 34.9308 32.8546 35.0383 32.7231 35.1C32.6658 35.1187 32.6073 35.1072 32.549 35.1068C32.5291 35.106 32.5093 35.1048 32.4894 35.1032C32.469 35.1018 32.4498 35.0962 32.4316 35.087C32.4145 35.0762 32.3999 35.0626 32.3872 35.047C32.3396 34.9702 32.3139 34.8835 32.2941 34.7973C32.2673 34.6802 32.2055 34.5992 32.0946 34.5551C32.0084 34.4941 31.9328 34.4244 31.9063 34.3165C31.898 34.294 31.891 34.2706 31.8812 34.2481C31.8714 34.234 31.8648 34.2188 31.8581 34.2032C31.8295 34.1145 31.7781 34.0402 31.7153 33.9726C31.4401 33.5601 31.1374 33.1744 30.7331 32.8762C30.5471 32.7389 30.4997 32.5021 30.3829 32.3148C30.1324 31.9134 30.1598 31.8779 30.624 31.8779C30.6805 31.8779 30.7337 31.8609 30.7876 31.856C30.8865 31.8469 30.9973 31.8105 31.074 31.9165C31.1031 31.988 31.1368 32.0575 31.1925 32.1119C31.2711 32.1887 31.3071 32.2766 31.3138 32.3896C31.3225 32.5347 31.3495 32.6791 31.4069 32.8165C31.499 33.0361 31.6441 33.2061 31.8467 33.3318C32.009 33.4326 32.1874 33.4927 32.3675 33.5452C32.5778 33.6064 32.7706 33.6965 32.9492 33.823C33.1289 33.9503 33.3288 34.0284 33.553 34.0305Z" fill="#60A5FA"/>
<path d="M32.3421 31.6721C32.4344 31.7533 32.5333 31.7789 32.6501 31.7218C32.7468 31.6744 32.8568 31.6951 32.9593 31.6727C33.0299 31.6571 33.0887 31.6959 33.1111 31.7584C33.1676 31.916 33.2568 32.0608 33.2911 32.2272C33.3093 32.3161 33.3296 32.406 33.363 32.4899C33.4154 32.6218 33.4362 32.7587 33.4499 32.8977C33.454 32.939 33.4636 32.9846 33.4512 33.0217C33.4183 33.1206 33.4304 33.2112 33.4648 33.3074C33.4935 33.3878 33.4722 33.4115 33.3609 33.4797C33.2215 33.476 33.0856 33.5131 32.9449 33.508C32.7884 33.5024 32.6617 33.4546 32.5595 33.3341C32.4426 33.1963 32.319 33.065 32.2092 32.9201C32.019 32.6689 31.7906 32.452 31.5166 32.2936C31.398 32.225 31.3379 32.1469 31.3613 32.0097C31.3683 31.9688 31.3653 31.9263 31.3668 31.8846C31.3617 31.7985 31.4275 31.7963 31.485 31.7845C31.6673 31.7523 31.8463 31.7097 32.0182 31.6381C32.1297 31.5918 32.2436 31.5733 32.3421 31.6721Z" fill="#60A5FA"/>
<path d="M33.603 33.531C33.6438 33.2788 33.6102 33.0286 33.5822 32.7783C33.5759 32.7228 33.5715 32.666 33.5564 32.6126C33.5343 32.5341 33.5646 32.4803 33.6163 32.4251C34.048 31.9637 34.2976 31.4053 34.4731 30.808C34.4828 30.7748 34.4847 30.7392 34.4903 30.7045C34.525 30.716 34.5503 30.7356 34.5631 30.7724C34.6133 30.9174 34.6676 31.0609 34.7159 31.2066C34.7783 31.3952 34.7869 31.5855 34.7554 31.7843C34.6952 32.1646 34.6145 32.5385 34.4741 32.8977C34.3743 33.153 34.2462 33.3911 34.0579 33.5945C34.0084 33.6478 33.9664 33.672 33.8956 33.6395C33.8009 33.5963 33.6928 33.5882 33.603 33.531Z" fill="#DBEAFE"/>
<path d="M31.4941 31.8476C31.4482 31.8476 31.4042 31.8542 31.3669 31.8845C31.2677 31.8813 31.1679 31.8721 31.0739 31.9165C30.9622 31.911 30.8516 31.9163 30.7398 31.9294C30.6227 31.943 30.5027 31.9317 30.3842 31.9337C30.3205 31.9348 30.2969 31.9747 30.3256 32.0318C30.4354 32.25 30.5471 32.4672 30.6566 32.6857C30.6889 32.7504 30.7378 32.7969 30.7951 32.8391C31.0963 33.0606 31.3338 33.3442 31.5611 33.6366C31.6422 33.7411 31.7134 33.8533 31.789 33.9621C31.7977 34.0037 31.7723 34.0182 31.7384 34.0258C31.6021 34.0143 31.5407 33.9012 31.4673 33.8133C31.2221 33.5199 30.9888 33.2237 30.6623 33.0025C30.4657 32.8694 30.3848 32.6067 30.2277 32.4192C30.1836 32.3666 30.1408 32.3094 30.1071 32.2487C30.0045 32.0641 29.8519 31.9832 29.6412 31.9408C28.9902 31.8094 28.3448 31.6505 27.8079 31.2227C27.3788 30.8808 27.0158 30.4788 26.711 30.023C26.6619 29.9495 26.6313 29.8759 26.6686 29.7879C26.6872 29.7578 26.7139 29.7391 26.7483 29.7312C26.9001 29.7228 26.9631 29.8457 27.0427 29.9376C27.4563 30.4141 27.9135 30.8397 28.4627 31.1572C28.9743 31.4529 29.5473 31.5512 30.1172 31.6542C30.5097 31.7252 30.9055 31.7533 31.3044 31.713C31.3526 31.7081 31.4023 31.7144 31.4464 31.7403C31.467 31.7513 31.4843 31.766 31.4986 31.7842C31.5113 31.8063 31.5099 31.8275 31.4941 31.8476Z" fill="#60A5FA"/>
<path d="M16.4854 34.953C16.585 34.9768 16.6434 35.0472 16.6888 35.1324C16.5974 35.0995 16.531 35.0381 16.4854 34.953Z" fill="#3B82F6"/>
<path d="M7.74533 11.0253C7.7282 11.0066 7.71098 10.9879 7.69385 10.9692C7.71627 10.9548 7.73752 10.9381 7.7614 10.9265C7.79074 10.9123 7.83538 10.885 7.85287 10.9114C7.88491 10.9598 7.82084 10.9701 7.7973 10.9955C7.78421 11.0095 7.76287 11.0156 7.74533 11.0253Z" fill="#3B82F6"/>
<path d="M5.48312 13.7443C5.49692 13.7587 5.51064 13.7731 5.52443 13.7876C5.51321 13.8105 5.50378 13.8347 5.48974 13.8558C5.48461 13.8636 5.46306 13.8703 5.45848 13.8664C5.45023 13.8595 5.44315 13.8421 5.44621 13.8325C5.45581 13.8022 5.47045 13.7736 5.48312 13.7443Z" fill="#3B82F6"/>
<path d="M19.8865 13.2276C19.8359 13.1987 19.81 13.1543 19.8056 13.0968C19.8546 13.1268 19.8827 13.1697 19.8865 13.2276Z" fill="#3B82F6"/>
<path d="M22.3167 19.547C22.7829 20.0936 23.0482 20.7272 23.1246 21.4393C23.1756 21.9133 23.153 22.3858 23.0661 22.855C23.1631 23.2242 22.9537 23.5354 22.8737 23.871C22.8762 23.8924 22.8758 23.9139 22.8731 23.9354C22.8662 23.9662 22.8581 23.9968 22.8464 24.0264C22.8404 24.0464 22.8308 24.0649 22.8204 24.0828C22.8116 24.1015 22.7995 24.1179 22.7864 24.1337C22.5772 24.371 22.477 24.6771 22.2871 24.9267C21.6803 25.7537 20.9146 26.3832 19.9815 26.8153C19.304 27.1291 18.6225 27.4326 17.9278 27.7061C17.8911 27.7165 17.8551 27.729 17.8201 27.7445C17.8023 27.751 17.7846 27.7575 17.7669 27.7645C17.7404 27.777 17.7131 27.7867 17.684 27.7918C17.6641 27.7969 17.6445 27.8021 17.6247 27.8078C17.0874 28.0005 16.5414 28.1587 15.9749 28.2385C15.8484 28.2618 15.7206 28.2767 15.5943 28.3008C15.5298 28.3018 15.4667 28.3154 15.4033 28.3259C15.3148 28.3489 15.2418 28.2575 15.1518 28.2915C14.5991 28.2978 14.0493 28.2555 13.5019 28.1846C13.1557 28.1397 12.8135 28.0715 12.4793 27.9674C11.6444 27.7074 10.9816 27.2048 10.4441 26.5257C10.3922 26.4603 10.3489 26.3877 10.2746 26.3432C10.211 26.2575 10.0334 26.2002 10.203 26.0561C10.4625 26.1514 10.7104 26.2732 10.9771 26.3563C11.3382 26.4688 11.7038 26.4818 12.1258 26.4948C11.182 26.4949 10.7785 26.3339 10.1541 26.0138C9.89835 25.8826 9.76704 25.6209 9.64291 25.369C9.47042 25.0189 9.30299 24.6668 9.27112 24.2688C9.22947 24.0138 9.21618 23.7592 9.25517 23.502C9.32087 23.0692 9.63782 22.7107 10.1259 22.7595C10.1814 22.765 10.2374 22.7637 10.2926 22.768C10.3868 22.8103 10.4925 22.8128 10.5634 22.838C10.5347 22.8239 10.477 22.8146 10.4177 22.8109C9.79402 22.6136 9.32823 22.9365 9.25236 23.5366C9.21884 23.8019 9.22804 24.062 9.28788 24.3213C9.30374 24.3648 9.30411 24.4089 9.29302 24.4536C9.22215 24.556 9.1382 24.5166 9.08255 24.4518C8.6433 23.9403 8.03301 23.6417 7.53667 23.2005C6.77525 22.5234 6.34097 21.6809 6.29938 20.671C6.21788 18.6942 6.63763 16.8215 7.60007 15.0847C7.99493 14.3721 8.47524 13.7186 9.09302 13.1763C9.59199 12.7382 10.1684 12.4226 10.7566 12.127C11.7178 11.644 12.7337 11.3333 13.808 11.273C14.9542 11.2087 16.1045 11.1882 17.2031 11.6153C18.1148 11.9698 18.8186 12.5906 19.4354 13.337C20.1877 14.2476 20.5014 15.3365 20.7737 16.4485C20.8703 16.8427 20.9753 17.2351 21.1301 17.611C21.192 17.7612 21.184 17.9267 21.2508 18.0737C21.2749 18.1765 21.3264 18.2665 21.3817 18.3549C21.5034 18.5493 21.6416 18.7313 21.7885 18.907C21.8462 18.976 21.901 19.0475 21.957 19.1178C21.8916 19.2423 21.8037 19.1683 21.7308 19.1357C21.595 19.0749 21.4577 19.0306 21.3075 19.0409C20.7476 19.0794 20.4674 19.5563 20.6724 20.1199C20.7091 20.221 20.7893 20.3201 20.6945 20.4313C20.6798 20.4458 20.6625 20.4569 20.6437 20.4654C20.6178 20.481 20.5885 20.4869 20.5605 20.4963C20.529 20.5134 20.5014 20.5348 20.4914 20.5711C20.3427 21.1077 19.9408 21.2919 19.4346 21.3312C19.393 21.3344 19.3505 21.3284 19.3098 21.3414C19.3036 21.3434 19.2987 21.3488 19.2931 21.3527C19.4677 21.5682 19.8217 21.6319 20.1487 21.5067C20.56 21.3493 20.7506 21.0838 20.7353 20.6886C20.7306 20.6559 20.7347 20.6246 20.7461 20.5939C20.7544 20.5735 20.7669 20.5561 20.7828 20.5409C20.8698 20.4787 20.9398 20.532 21.0126 20.5741C21.1335 20.6441 21.2544 20.7153 21.393 20.7453C21.9651 20.8693 22.3862 20.4191 22.2734 19.8107C22.2574 19.7231 22.1713 19.6126 22.3167 19.547Z" fill="#93C5FD"/>
<path d="M31.4541 31.8016C31.2662 31.8039 31.0804 31.8334 30.8908 31.8282C30.4074 31.8149 29.9343 31.74 29.4657 31.6276C29.3776 31.6065 29.2907 31.5803 29.2024 31.5603C28.6288 31.4296 28.1505 31.1225 27.7129 30.746C27.502 30.5645 27.3063 30.3654 27.1058 30.172C27.061 30.1288 27.0232 30.0777 26.9854 30.0279C26.9134 29.9334 26.8378 29.8425 26.7469 29.7654C26.6922 29.7487 26.6544 29.7114 26.6367 29.6768C26.6653 29.7058 26.6819 29.7584 26.6953 29.8126C26.7932 30.0076 26.9286 30.1786 27.0648 30.3453C27.3256 30.6649 27.6084 30.965 27.9489 31.2041C28.2082 31.3862 28.4856 31.5297 28.7905 31.6199C29.1254 31.7188 29.4577 31.8271 29.8062 31.8709C29.9154 31.8846 30.002 31.9311 30.0669 32.0253C30.2532 32.2954 30.4451 32.5616 30.6329 32.8307C30.6807 32.899 30.7169 32.9679 30.8126 32.9926C30.8999 33.0151 30.964 33.0902 31.0258 33.1572C31.2054 33.3524 31.3943 33.5393 31.5474 33.758C31.6073 33.8436 31.6795 33.9205 31.7461 34.0013C31.8433 34.0474 31.887 34.1417 31.9453 34.2228L31.9441 34.2207C31.9595 34.2331 31.9595 34.2463 31.9463 34.2604C31.9951 34.3497 32.0637 34.4212 32.1449 34.4814C32.2372 34.5308 32.2779 34.6168 32.3019 34.7114C32.3327 34.8324 32.3842 34.9425 32.4589 35.042L32.4577 35.0396C32.4722 35.0538 32.4859 35.0686 32.4989 35.0842L32.4976 35.0853C32.5277 35.0984 32.5271 35.11 32.4958 35.1199C32.4115 35.3363 32.2964 35.5358 32.1674 35.7283C31.7353 36.3733 31.2247 36.945 30.6017 37.4123C29.7835 38.0261 28.8625 38.3929 27.8561 38.5508C27.0618 38.6754 26.2663 38.6603 25.4708 38.5607C24.2752 38.4111 23.1324 38.0682 22.0186 37.62C20.9383 37.1854 19.9064 36.656 18.919 36.0395C18.0428 35.4923 17.2475 34.8423 16.5024 34.1294C15.6306 33.2952 14.8325 32.3965 14.1329 31.412C14.0439 31.2867 13.9585 31.1578 13.8834 31.024C13.7572 30.7997 13.7055 30.558 13.717 30.2978C13.7295 30.0146 13.7774 29.7427 13.8922 29.4824C14.1025 29.0057 14.4436 28.6616 14.9239 28.4582C15.0268 28.4146 15.1339 28.3809 15.2392 28.3426C15.2953 28.2805 15.3763 28.2936 15.4467 28.2741C15.5019 28.2703 15.555 28.2503 15.6112 28.2533C15.7948 28.2138 15.9849 28.2215 16.1679 28.1767C16.5864 28.1368 17.0062 28.2139 17.4241 28.1587C17.6078 28.2074 17.7989 28.2004 17.9856 28.2149C18.827 28.2808 19.6684 28.3891 20.5149 28.2818C20.8853 28.2349 21.2089 28.1028 21.4903 27.8423C22.181 27.203 22.7858 26.4934 23.3066 25.7111C23.4628 25.5185 23.5834 25.3011 23.73 25.1015C23.8881 24.9059 23.8229 24.7022 23.7268 24.5169C23.5755 24.2249 23.5538 23.8981 23.4486 23.5945C23.4136 23.3339 23.3739 23.0731 23.5346 22.8349C23.5395 22.7387 23.5493 22.6423 23.5485 22.5461C23.547 22.3774 23.5948 22.2199 23.6469 22.0628C23.6513 22.0497 23.655 22.0364 23.6606 22.0238C23.6871 21.9651 23.7251 21.917 23.7897 21.8988C23.8592 21.8791 23.9084 21.9138 23.9508 21.9638C24.0663 22.006 24.0568 22.1087 24.0629 22.2014C24.0686 22.2889 24.0468 22.3771 24.0683 22.4642C24.0762 22.5049 24.0704 22.5461 24.0704 22.556C24.0453 22.4272 24.0745 22.2654 24.0537 22.1049C24.033 22.019 24.0742 21.9502 24.1145 21.8811C24.1363 21.7224 24.1569 21.5636 24.1803 21.4052C24.1946 21.3081 24.2263 21.2159 24.2701 21.128C24.2952 21.0775 24.327 21.0321 24.373 20.9981C24.4721 20.9249 24.5743 20.9442 24.6398 21.0501C24.6731 21.1038 24.6975 21.1614 24.6975 21.2265C24.7045 21.5888 24.7521 21.9506 24.7036 22.2831C24.7494 22.1372 24.6684 21.9427 24.7903 21.7786C24.8072 21.5713 24.816 21.3629 24.8615 21.159C24.8797 21.0781 24.8998 20.9966 24.9304 20.92C24.9504 20.8701 24.9845 20.8216 25.0234 20.7842C25.1336 20.6787 25.2759 20.6939 25.364 20.8185C25.421 20.899 25.4541 20.99 25.4586 21.0898C25.5268 21.4148 25.464 21.7327 25.4063 22.0509C25.4322 21.9114 25.4532 21.771 25.4746 21.6305C25.4818 21.5299 25.4727 21.4243 25.5672 21.3531C25.5924 21.282 25.6144 21.2097 25.6435 21.1403C25.6675 21.083 25.7049 21.0329 25.7548 20.994C25.8695 20.9045 26.0189 20.9305 26.0903 21.056C26.1383 21.1406 26.1643 21.2331 26.1615 21.332C26.2199 21.6427 26.0999 21.936 26.0703 22.2381C26.0585 22.3573 26.0549 22.4736 26.048 22.5588C26.0813 22.2649 26.0504 21.9314 26.2305 21.633C26.2539 21.5818 26.2849 21.5355 26.328 21.4991C26.4587 21.3888 26.6233 21.4289 26.6831 21.5882C26.7151 21.6735 26.7254 21.7637 26.7229 21.8552C26.7168 22.0723 26.6811 22.2842 26.6144 22.4909C26.5582 22.5889 26.6921 22.662 26.6497 22.7584C26.5918 22.9063 26.6232 23.0665 26.5861 23.2174C26.5198 23.3227 26.5794 23.4291 26.5823 23.5352C26.5864 23.6923 26.5829 23.8494 26.558 24.0051C26.493 24.1701 26.4644 24.3391 26.4902 24.517C26.5163 24.6969 26.4221 24.8552 26.3911 25.0249C26.3958 25.0727 26.387 25.1181 26.3666 25.1612C26.3488 25.2144 26.3292 25.2672 26.3228 25.3237C26.2996 25.6408 26.1949 25.9398 26.1167 26.2446C25.7379 27.5725 25.2257 28.8357 24.2813 29.8752C23.7547 30.455 23.1216 30.9039 22.4378 31.2834C21.3425 31.8915 20.1801 32.2902 18.9324 32.4351C18.461 32.4899 17.504 32.4585 17.2209 32.3933C17.6419 32.4813 18.2364 32.4741 18.8288 32.4606C19.4666 32.4461 20.0953 32.3476 20.7118 32.1776C21.4388 31.9772 22.1174 31.6676 22.7607 31.2766C22.8444 31.2257 22.9272 31.1733 23.0133 31.1264C23.2074 31.0207 23.2712 31.0353 23.3538 31.232C23.9254 32.5918 24.7763 33.772 25.6947 34.9116C26.1665 35.4969 26.6873 36.0296 27.117 36.3721C26.5519 35.8579 25.8983 35.1506 25.2955 34.3987C24.5023 33.4096 23.8195 32.3499 23.3253 31.1758C23.2685 31.0409 23.2901 30.9539 23.4066 30.8719C24.0965 30.3857 24.6016 29.7359 25.0049 29.0074C25.289 28.4944 25.5316 27.9587 25.7279 27.4042C25.8162 27.1548 25.8235 27.1518 26.0864 27.1557C27.153 27.1713 28.1935 27.3621 29.2282 27.6035C29.6414 27.6998 30.0597 27.775 30.4714 27.8789C30.9852 28.0289 31.0142 28.0147 31.2279 27.5339C31.3046 27.361 31.3777 27.1874 31.409 26.9996C31.4146 26.9352 31.4285 26.8731 31.4613 26.8166C31.5613 26.4047 31.7863 26.0247 31.7716 25.5837C31.769 25.5069 31.8065 25.436 31.8215 25.3614C31.8273 25.3389 31.8379 25.3189 31.8528 25.3011C31.9771 25.1804 32.1172 25.1922 32.2632 25.2509C32.4737 25.3653 32.4966 25.4164 32.4193 25.5989C32.5358 25.4781 32.6268 25.4558 32.7067 25.5286C32.7785 25.5939 32.7704 25.6462 32.6424 25.808C32.7501 25.6889 32.8192 25.5607 32.9652 25.6846C33.0957 25.807 33.2278 25.9275 33.3717 26.0342C33.3611 26.2095 33.4694 26.3429 33.5306 26.4936C33.8098 27.1818 33.8309 27.9 33.7694 28.6271C33.7117 29.268 33.7738 29.9109 33.7338 30.552C33.7294 30.6216 33.7291 30.6913 33.7173 30.7608C33.6481 31.1692 33.394 31.383 33.0014 31.4727C32.7572 31.5285 32.5136 31.5839 32.2656 31.6178C32.0275 31.6507 31.8176 31.7883 31.5751 31.8056C31.5343 31.8139 31.4955 31.7718 31.4541 31.8016Z" fill="#93C5FD"/>
<path d="M21.2508 18.0736C21.13 17.9156 21.0641 17.7294 20.9956 17.5474C20.8624 17.1938 20.7661 16.8282 20.6721 16.462C20.5471 15.9742 20.4252 15.4853 20.2595 15.0089C20.1 14.5501 19.8742 14.126 19.5996 13.7258C19.3612 13.3784 19.0908 13.0569 18.7889 12.766C18.1581 12.1578 17.4231 11.7245 16.5666 11.514C16.4045 11.4742 16.2365 11.4565 16.0716 11.4289C15.5787 11.3465 15.081 11.3669 14.586 11.3349C14.4743 11.3277 14.3625 11.3235 14.2515 11.3489C14.2179 11.3565 14.1819 11.3573 14.1472 11.3565C13.7818 11.3489 13.4221 11.4039 13.064 11.4643C12.5661 11.5483 12.0787 11.6791 11.6082 11.8612C11.2824 11.9874 10.9662 12.14 10.65 12.2897C10.3524 12.4305 10.0766 12.6112 9.79509 12.7812C9.40888 13.0144 9.0768 13.3077 8.76765 13.637C8.41035 14.0175 8.11763 14.4404 7.84144 14.8791C7.45877 15.4869 7.17231 16.1378 6.94271 16.8163C6.79436 17.2549 6.68534 17.7022 6.60771 18.158C6.56443 18.4127 6.51333 18.666 6.46747 18.9204C6.4576 18.9752 6.45288 19.0314 6.44996 19.0871C6.44418 19.1991 6.43652 19.3099 6.40712 19.4194C6.39096 19.4793 6.39073 19.544 6.38737 19.6068C6.3803 19.7396 6.37412 19.8725 6.37091 20.0055C6.35719 20.5757 6.42094 21.1358 6.59958 21.6797C6.67205 21.9004 6.78071 22.1048 6.90188 22.301C7.13552 22.679 7.43081 23.0026 7.78128 23.2775C7.96858 23.4244 8.15892 23.566 8.35748 23.6973C8.60301 23.8599 8.82976 24.0458 9.02882 24.2641C9.08071 24.3209 9.13352 24.3769 9.18679 24.4324C9.20776 24.4542 9.23353 24.4621 9.26286 24.4481C9.35143 24.4466 9.32624 24.522 9.34126 24.5677C9.49293 25.0286 9.65208 25.4845 9.98741 25.8545C10.058 25.9324 10.1827 25.9595 10.2035 26.0834C10.18 26.1242 10.1961 26.1612 10.2166 26.1962C10.2438 26.2425 10.2731 26.2874 10.2749 26.3435C10.2274 26.333 10.1782 26.3274 10.1326 26.3117C8.68046 25.8078 7.4281 25.0052 6.43571 23.8212C5.54628 22.7602 5.01046 21.5386 4.80343 20.17C4.68948 19.4171 4.68747 18.6622 4.78088 17.9093C4.98728 16.2458 5.54598 14.7145 6.55967 13.367C7.66164 11.902 9.07775 10.8718 10.8376 10.3323C11.5376 10.1177 12.2545 10.0047 12.9878 10.0005C15.0863 9.98823 16.9343 10.6653 18.5043 12.0527C19.9798 13.3568 20.862 14.999 21.1725 16.9459C21.2243 17.2709 21.2595 17.5978 21.2596 17.9275C21.2593 17.9761 21.2537 18.0249 21.2508 18.0736Z" fill="#60A5FA"/>
<path d="M32.9649 25.6848C32.7616 25.6616 32.6728 25.813 32.5703 25.9473C32.5242 25.9198 32.5531 25.8871 32.567 25.8649C32.6002 25.812 32.641 25.7642 32.6767 25.7128C32.7027 25.6756 32.7076 25.6344 32.6784 25.5968C32.6499 25.56 32.6098 25.5522 32.5658 25.5633C32.4886 25.5829 32.4307 25.6317 32.375 25.686C32.3357 25.7242 32.3258 25.7866 32.2602 25.8161C32.2519 25.7414 32.2953 25.6953 32.3302 25.6466C32.4287 25.5095 32.4278 25.4941 32.3067 25.3675C32.2922 25.3525 32.2764 25.3388 32.2612 25.3246C32.1279 25.2198 31.9998 25.1918 31.8841 25.3499L31.8851 25.3483C31.8244 25.4692 31.7968 25.593 31.8203 25.7309C31.8395 25.8433 31.8025 25.9548 31.7571 26.056C31.6538 26.2861 31.6126 26.5337 31.5392 26.7721C31.4331 26.8651 31.3368 26.8174 31.2416 26.7524C30.8791 26.2053 30.6028 25.6131 30.345 25.0114C30.2098 24.6962 30.0491 24.3961 29.8372 24.125C29.7636 24.0308 29.741 23.9262 29.7674 23.8102C29.7955 23.6862 29.7963 23.5618 29.7688 23.4347C29.8909 24.0713 29.6154 24.5722 29.2271 25.0337C29.1906 25.0771 29.1431 25.108 29.0804 25.099C29.0459 25.0899 29.0195 25.0699 28.9994 25.041C28.9878 25.0211 28.9817 24.9995 28.9806 24.9767C28.9635 24.863 29.0189 24.775 29.0855 24.6924C29.4782 24.2056 29.5461 23.6481 29.4284 23.0576C29.3873 22.8518 29.2685 22.674 29.1471 22.5033C29.0897 22.4225 29.0266 22.344 29.1088 22.2431C29.2698 22.2913 29.3869 22.3982 29.485 22.5282C29.5315 22.5899 29.5779 22.6466 29.649 22.6845C30.0512 22.8983 30.4124 23.1718 30.761 23.4621C31.529 24.1016 32.2287 24.8103 32.8813 25.5664C32.913 25.6026 32.9373 25.6451 32.9649 25.6848Z" fill="#60A5FA"/>
<path d="M29.1089 22.243C29.1329 22.317 29.1688 22.3838 29.2213 22.4421C29.3544 22.59 29.4203 22.7771 29.5119 22.9492C29.5276 22.9785 29.5311 23.0159 29.5349 23.0501C29.5547 23.2301 29.573 23.4103 29.5912 23.5906C29.594 23.6183 29.5969 23.647 29.5929 23.6741C29.5422 24.0298 29.4533 24.3709 29.2296 24.6641C29.1541 24.7631 29.0649 24.8563 29.0381 24.9853C28.8781 25.0812 28.7323 24.9977 28.6985 24.8689C28.6273 24.5979 28.4481 24.5474 28.2174 24.5444C28.1984 24.5356 28.1818 24.523 28.1676 24.5075C28.1294 24.4466 28.1561 24.3914 28.1764 24.3309C28.2387 24.1464 28.1975 24.0382 28.018 23.9658C27.8959 23.9165 27.8081 23.8531 27.7488 23.73C27.6876 23.6034 27.5724 23.5373 27.423 23.5612C27.3739 23.5691 27.327 23.5741 27.2839 23.5428C27.2199 23.3672 27.3933 23.2786 27.4184 23.1621C27.3269 23.2607 27.3181 23.4504 27.1524 23.5275C26.9708 23.4918 26.8598 23.3824 26.8146 23.2043C26.8275 23.1286 26.8681 23.0636 26.8959 22.9935C26.9061 22.9752 26.9196 22.9593 26.9346 22.9449C27.0175 22.8827 27.0997 22.8196 27.1593 22.7316C27.2543 22.591 27.3867 22.4974 27.5424 22.4344C27.831 22.251 28.1519 22.1564 28.4861 22.1139C28.7032 22.0864 28.9181 22.1193 29.1089 22.243Z" fill="#60A5FA"/>
<path d="M20.6482 20.4076C20.6802 20.369 20.6705 20.3309 20.6472 20.2927C20.5815 20.1843 20.5422 20.0668 20.5208 19.9417C20.4748 19.6732 20.5274 19.4318 20.7014 19.2173C20.7925 19.1051 20.9063 19.0282 21.0408 18.9851C21.2896 18.9053 21.5328 18.9179 21.7667 19.0443C21.8263 19.0765 21.8799 19.1291 21.957 19.1176C22.0903 19.2495 22.2151 19.3886 22.3167 19.547C22.3017 19.5902 22.3183 19.6292 22.3342 19.6676C22.4064 19.8411 22.4033 20.0232 22.3752 20.2017C22.3148 20.5859 22.0045 20.8449 21.6273 20.8629C21.3559 20.8759 21.1244 20.7793 20.9131 20.6202C20.8806 20.5958 20.8546 20.5575 20.805 20.5776C20.6703 20.5969 20.6179 20.5404 20.6482 20.4076Z" fill="#BFDBFE"/>
<path d="M23.5347 22.8352C23.533 22.8899 23.5332 22.9447 23.529 22.9993C23.5129 23.2115 23.5176 23.4228 23.5508 23.6333C23.5806 23.8055 23.5406 23.9564 23.4451 24.1064C23.27 24.3813 23.1671 24.6808 23.2224 25.0151C23.226 25.0673 23.2084 25.1195 23.2216 25.1721C23.2274 25.2019 23.2306 25.232 23.2327 25.2623C23.2137 25.4167 23.2688 25.5537 23.3332 25.6887C23.2759 25.8203 23.2221 25.9548 23.0654 26.0016C23.0373 25.9984 23.0003 25.9954 22.9896 25.9727C22.8514 25.6816 22.59 25.4579 22.5263 25.1265C22.5103 25.043 22.5133 24.9603 22.5462 24.8804C22.5615 24.7977 22.5842 24.715 22.6353 24.649C22.8148 24.4174 22.8521 24.1443 22.8746 23.8661C22.8916 23.6561 22.9679 23.4627 23.0373 23.2669C23.0871 23.1264 23.1849 23.0376 23.3192 22.9829C23.4038 22.9522 23.4594 22.8794 23.5347 22.8352Z" fill="#3B82F6"/>
<path d="M23.3193 22.983C23.2693 23.0502 23.2258 23.124 23.1676 23.1833C23.0269 23.3265 22.9709 23.5031 22.9541 23.6946C22.9413 23.8409 22.9372 23.9881 22.9358 24.1351C22.9341 24.3016 22.8846 24.4493 22.7925 24.5879C22.727 24.6865 22.6747 24.7938 22.6165 24.8972C22.5269 24.9269 22.4366 24.9628 22.358 24.8735C22.3092 24.795 22.3745 24.7434 22.4056 24.6861C22.5183 24.4793 22.6309 24.2725 22.7278 24.0577L22.7265 24.0599C22.7512 24.0347 22.7592 24.008 22.7336 23.9783C22.7463 23.964 22.759 23.9498 22.7718 23.9355C22.7895 23.9242 22.7914 23.9105 22.778 23.8945C22.8248 23.7633 22.8714 23.6321 22.9182 23.501C22.9745 23.3431 23.0268 23.1844 23.0238 23.0136C23.0228 22.9572 23.0309 22.9022 23.0661 22.855C23.0863 22.9789 23.0863 22.9791 23.197 22.9816C23.2379 22.9824 23.2785 22.9825 23.3193 22.983Z" fill="#60A5FA"/>
<path d="M26.5674 22.7428C26.5748 22.6575 26.5551 22.567 26.6145 22.4914C26.6207 22.5347 26.6327 22.5762 26.6878 22.57C26.7906 22.5586 26.8928 22.5421 26.9955 22.5298C27.0638 22.5216 27.1326 22.5169 27.201 22.5107C27.2467 22.4908 27.2981 22.4766 27.3287 22.5251C27.3555 22.5674 27.3091 22.5992 27.2864 22.6299C27.1888 22.7617 27.0849 22.8883 26.9747 23.0097L26.9754 23.0088C26.9379 23.0572 26.9039 23.1101 26.837 23.1232C26.6975 23.1114 26.645 23.0107 26.6163 22.8954C26.6031 22.8428 26.5958 22.7898 26.5674 22.7428Z" fill="#3B82F6"/>
<path d="M33.7301 28.6154C33.7386 28.4055 33.7437 28.1956 33.7561 27.9859C33.7845 27.5092 33.6803 27.0541 33.5356 26.6058C33.5077 26.5193 33.4746 26.4312 33.4058 26.3686C33.3447 26.3132 33.3395 26.2541 33.3584 26.1803C33.3703 26.1336 33.3677 26.0831 33.3716 26.0344C33.377 26.0388 33.3833 26.0425 33.3876 26.0479C33.4405 26.1152 33.4025 26.2124 33.4716 26.2794C33.5253 26.3316 33.5597 26.4038 33.6027 26.4671C33.5663 26.5129 33.587 26.5576 33.6032 26.6041C33.6949 26.8666 33.7655 27.1345 33.7998 27.4109C33.8168 27.5481 33.8285 27.6861 33.8426 27.8237C33.7913 28.0312 33.8202 28.2447 33.7948 28.4537C33.7879 28.5093 33.8429 28.5993 33.7301 28.6154Z" fill="#60A5FA"/>
<path d="M24.7904 21.7791C24.7988 21.9989 24.7646 22.2133 24.6907 22.4269C24.6794 22.332 24.6567 22.2368 24.6592 22.1422C24.6671 21.837 24.6842 21.5321 24.6977 21.227C24.7514 21.3212 24.725 21.4265 24.7398 21.5262C24.7524 21.611 24.7227 21.705 24.7904 21.7791Z" fill="#3B82F6"/>
<path d="M26.2307 21.6334C26.1248 21.9593 26.094 22.2987 26.0561 22.6462C26.0057 22.6113 26.0269 22.5687 26.0254 22.5345C26.0154 22.2959 26.0586 22.062 26.1029 21.8298C26.1345 21.6646 26.1455 21.4986 26.1616 21.3323C26.1948 21.3857 26.1907 21.4458 26.1939 21.5049C26.1965 21.5506 26.1916 21.5984 26.2307 21.6334Z" fill="#3B82F6"/>
<path d="M25.5107 21.6392C25.4731 21.8509 25.4356 22.0626 25.3981 22.2743C25.3914 22.2749 25.3847 22.2755 25.3779 22.276C25.3751 22.2345 25.3698 22.1931 25.3702 22.1516C25.3705 22.1029 25.3685 22.0524 25.38 22.0057C25.4435 21.7453 25.4374 21.4796 25.448 21.2151C25.4497 21.1734 25.4551 21.1319 25.4587 21.0901C25.4979 21.1423 25.4931 21.2035 25.4945 21.2636C25.5617 21.3861 25.4704 21.5155 25.5107 21.6392Z" fill="#3B82F6"/>
<path d="M26.9746 23.0096C26.9942 22.9088 27.0824 22.8536 27.1326 22.7729C27.1686 22.7151 27.2148 22.6636 27.2557 22.6087C27.303 22.5452 27.3032 22.5437 27.2009 22.5105C27.3147 22.4853 27.4285 22.4599 27.5422 22.4346C27.4106 22.5386 27.303 22.6656 27.2015 22.7977C27.1373 22.8812 27.0672 22.957 26.9746 23.0096Z" fill="#3B82F6"/>
<path d="M24.0517 22.4768C24.0196 22.4296 24.0127 22.3759 24.0158 22.3211C24.0225 22.1966 23.997 22.0785 23.9509 21.964C24.0055 21.9364 24.0601 21.9089 24.1147 21.8814C24.112 21.9675 24.1093 22.0537 24.1066 22.1398C24.0508 22.246 24.1148 22.3717 24.0517 22.4768Z" fill="#3B82F6"/>
<path d="M15.4485 28.3077C15.3787 28.3194 15.309 28.3312 15.2392 28.3429C15.21 28.3257 15.1809 28.3085 15.1517 28.2914C15.2344 28.2513 15.3232 28.2644 15.4102 28.2614C15.4525 28.2524 15.4633 28.2695 15.4485 28.3077Z" fill="#60A5FA"/>
<path d="M32.4959 35.1201L32.4948 35.1026L32.4978 35.0854C32.5732 35.0902 32.6485 35.0951 32.7239 35.0999C32.6526 35.1597 32.5726 35.1208 32.4959 35.1201Z" fill="#60A5FA"/>
<path d="M33.7302 28.6154C33.7755 28.5563 33.7747 28.486 33.7777 28.4168C33.7835 28.2852 33.7885 28.1535 33.7943 28.0219C33.7972 27.9528 33.7957 27.8823 33.8425 27.8238C33.8307 28.1172 33.8189 28.4105 33.8069 28.7038C33.7649 28.9402 33.755 29.178 33.7785 29.4169C33.7754 29.5285 33.7716 29.6395 33.7938 29.7505C33.8045 29.8045 33.8022 29.8617 33.8003 29.9173C33.7924 30.1544 33.7822 30.3914 33.7734 30.6284C33.7665 30.8135 33.7114 30.9832 33.6225 31.1454C33.5623 31.2551 33.4808 31.3336 33.3638 31.3764C33.331 31.3883 33.2983 31.401 33.267 31.4162C33.2114 31.4433 33.1937 31.4782 33.2149 31.5346C33.2444 31.6128 33.2821 31.6879 33.3124 31.7658C33.358 31.8826 33.4008 32.0005 33.4433 32.1186C33.447 32.129 33.4389 32.1437 33.4355 32.1598C33.3797 32.1423 33.3785 32.0875 33.359 32.048C33.2939 31.917 33.2433 31.779 33.1644 31.6546C33.0621 31.4931 33.0579 31.4905 32.8793 31.5375C32.785 31.5623 32.6897 31.584 32.5953 31.6086C32.5134 31.63 32.4304 31.6366 32.3463 31.632C32.2929 31.6437 32.227 31.6875 32.2193 31.5824C32.2597 31.5719 32.2997 31.5538 32.3404 31.5523C32.6372 31.5411 32.9177 31.4603 33.1961 31.3641C33.4121 31.2896 33.5447 31.1378 33.6178 30.9298C33.6477 30.8447 33.6709 30.7547 33.6799 30.6652C33.7066 30.401 33.7254 30.1346 33.7066 29.8704C33.6922 29.6676 33.6907 29.466 33.6973 29.2639C33.7045 29.0477 33.7189 28.8317 33.7302 28.6154Z" fill="#60A5FA"/>
<path d="M32.2193 31.5824C32.2542 31.6181 32.2992 31.6277 32.3463 31.632C32.3447 31.6453 32.3433 31.6587 32.342 31.672C32.2153 31.6604 32.0958 31.6766 31.9777 31.7323C31.8259 31.8038 31.6613 31.834 31.4941 31.8476L31.495 31.8283L31.4957 31.8089C31.4988 31.782 31.5259 31.7823 31.5409 31.7688C31.7277 31.747 31.9085 31.7031 32.0815 31.6272C32.1255 31.6078 32.1732 31.5971 32.2193 31.5824Z" fill="#60A5FA"/>
<path d="M33.7784 29.4171C33.7225 29.1768 33.7325 28.9391 33.8069 28.7041C33.7974 28.9416 33.7879 29.1793 33.7784 29.4171Z" fill="#60A5FA"/>
<path d="M32.4589 35.0421C32.358 34.9814 32.3154 34.8798 32.2826 34.7759C32.2494 34.6709 32.2048 34.5731 32.1448 34.4815C32.1741 34.4695 32.1983 34.4793 32.2198 34.4995C32.2712 34.5477 32.3075 34.6056 32.3306 34.6719C32.3736 34.7952 32.4162 34.9186 32.4589 35.0421Z" fill="#60A5FA"/>
<path d="M31.9451 34.223C31.86 34.1659 31.7955 34.0905 31.7459 34.0015C31.7603 33.9884 31.7746 33.9753 31.7891 33.9622C31.8702 34.0317 31.9232 34.118 31.9451 34.223Z" fill="#60A5FA"/>
<path d="M31.9474 34.2618C31.9456 34.2479 31.9449 34.234 31.945 34.22C31.9579 34.2331 31.9597 34.247 31.9474 34.2618Z" fill="#93C5FD"/>
<path d="M26.6951 29.8127C26.6004 29.7184 26.548 29.5976 26.48 29.489C26.5182 29.4475 26.5377 29.4795 26.5513 29.4974C26.6181 29.5855 26.6819 29.6759 26.7469 29.7655C26.7296 29.7811 26.7124 29.7969 26.6951 29.8127Z" fill="#60A5FA"/>
<path d="M31.5406 31.7689C31.5256 31.7822 31.5106 31.7955 31.4955 31.8088C31.4817 31.8065 31.4678 31.804 31.4541 31.8016C31.483 31.7908 31.5118 31.7798 31.5406 31.7689Z" fill="#93C5FD"/>
<path d="M16.0396 20.6828C16.2102 20.6689 16.3887 20.7249 16.5651 20.7972C16.7858 20.8878 16.9631 21.0337 17.0933 21.2284C17.2896 21.5219 17.3225 21.8347 17.1697 22.1625C16.9812 22.5669 16.649 22.7912 16.2363 22.9113C16.1098 22.9481 15.9759 22.9623 15.8445 22.9791C15.7034 22.9971 15.5675 22.9586 15.4307 22.9291C15.2006 22.8795 14.9941 22.7856 14.8198 22.6246C14.6106 22.4315 14.4892 22.2024 14.4876 21.9091C14.4854 21.4839 14.6884 21.1776 15.0236 20.9456C15.2511 20.7883 15.5983 20.6417 16.0396 20.6828Z" fill="#BFDBFE"/>
<path d="M9.95181 24.6596C9.81101 24.4139 9.74829 23.9679 9.80139 23.7259C9.85375 23.4873 9.97301 23.37 10.2033 23.3274C10.2742 23.3142 10.3412 23.3226 10.4097 23.3429C10.5829 23.394 10.7253 23.4956 10.8454 23.6238C10.9896 23.7779 11.0967 23.958 11.1679 24.1586C11.2201 24.3056 11.206 24.431 11.0737 24.5323C11.0129 24.5788 10.9576 24.6335 10.9049 24.6893C10.8497 24.7481 10.8574 24.8079 10.9242 24.846C10.9723 24.8736 11.0243 24.8964 11.0768 24.9144C11.2388 24.9698 11.3724 25.0712 11.5045 25.1747C11.565 25.2222 11.5541 25.2667 11.4783 25.2931C11.3188 25.3486 11.1531 25.3771 10.9861 25.392C10.8171 25.407 10.6701 25.3557 10.5538 25.2243C10.4527 25.1099 10.3498 24.9981 10.3095 24.8283C10.391 24.8369 10.424 24.8975 10.4744 24.9271C10.5285 24.9589 10.577 25.0003 10.6316 25.031C10.6847 25.0608 10.7365 25.1018 10.8051 25.0871C10.8233 25.0482 10.7877 25.0426 10.7699 25.0274C10.7277 24.9912 10.6787 24.9613 10.6427 24.9199C10.5638 24.8291 10.5349 24.7241 10.5866 24.6088C10.6123 24.5517 10.6407 24.4953 10.6737 24.4422C10.7736 24.2811 10.8025 24.1048 10.7947 23.9193C10.7918 23.8477 10.7746 23.7803 10.7362 23.7204C10.5734 23.4668 10.3507 23.4296 10.1391 23.6765C10.0064 23.8312 9.96275 24.0238 9.94432 24.2209C9.93088 24.366 9.92514 24.512 9.95181 24.6596Z" fill="#60A5FA"/>
<path d="M20.6482 20.4076C20.6896 20.4742 20.7419 20.531 20.8049 20.5776C20.8066 20.5918 20.8083 20.6061 20.8101 20.6204C20.8215 20.6341 20.832 20.6484 20.8412 20.6636C20.843 20.7682 20.8486 20.8731 20.8186 20.9757C20.7636 21.1637 20.6504 21.3141 20.4989 21.4309C20.3542 21.5424 20.1892 21.6178 20.0062 21.6516C19.6374 21.7197 19.3343 21.5956 19.0734 21.3425C19.0646 21.334 19.0634 21.3177 19.0587 21.3049C19.1689 21.2424 19.1745 21.2371 19.3485 21.2387C19.4973 21.24 19.6397 21.2105 19.7819 21.1735C19.9718 21.1241 20.1226 21.0143 20.2479 20.8683C20.3365 20.7652 20.3856 20.6454 20.395 20.5064C20.4042 20.371 20.4108 20.3714 20.5655 20.3633C20.5794 20.3745 20.593 20.3861 20.6063 20.398C20.6202 20.4012 20.6342 20.4044 20.6482 20.4076Z" fill="#3B82F6"/>
<path d="M16.2377 19.1779C16.2946 19.3612 16.245 19.5445 16.2256 19.723C16.249 19.7327 16.261 19.7426 16.2719 19.7415C16.5278 19.7153 16.5277 19.7151 16.6208 19.4809C16.631 19.4553 16.6426 19.4302 16.6536 19.4049C16.7557 19.4216 16.7021 19.4873 16.6954 19.5381C16.6896 19.5863 16.6838 19.6344 16.6771 19.6897C16.8678 19.7356 17.0674 19.7311 17.2459 19.8159C17.2531 19.8652 17.2137 19.87 17.1845 19.8786C16.9843 19.937 16.7816 19.9875 16.5834 20.0523C15.998 20.2434 15.4505 20.5145 14.9345 20.8502C14.8706 20.8917 14.8045 20.9297 14.7393 20.9694C14.7165 20.9396 14.7168 20.91 14.7406 20.8808C14.9248 20.4764 15.2334 20.1928 15.616 19.982C15.6891 19.9417 15.7658 19.9069 15.843 19.8749C16.0812 19.7764 16.0825 19.7776 16.1358 19.5261C16.1603 19.41 16.1805 19.2931 16.2026 19.1765C16.2153 19.1478 16.2271 19.1482 16.2377 19.1779Z" fill="#3B82F6"/>
<path d="M17.6642 27.7285C17.6762 27.7268 17.6883 27.726 17.7004 27.7259C17.7157 27.7147 17.7311 27.7035 17.7467 27.6925C17.7608 27.6912 17.7749 27.6899 17.7889 27.6887C17.812 27.6635 17.8509 27.6759 17.8747 27.6525C18.4663 27.4353 19.0409 27.1781 19.6083 26.9055C19.9989 26.7178 20.3842 26.5187 20.7536 26.2904C20.9684 26.1576 21.1676 26.0059 21.3569 25.8383C21.6829 25.5495 21.9789 25.2347 22.2335 24.8813C22.2715 24.8696 22.294 24.8905 22.3128 24.9191C22.3536 25.0163 22.3088 25.0934 22.2566 25.1714C21.8297 25.81 21.2879 26.3237 20.6098 26.6896C19.7831 27.1355 18.9233 27.5037 18.0291 27.7911C18.0016 27.8026 17.9742 27.8152 17.9449 27.8225C17.9265 27.8301 17.9073 27.835 17.8877 27.8389C17.8483 27.8462 17.8085 27.8476 17.7685 27.843C17.7488 27.8386 17.7294 27.8323 17.7105 27.8249C17.6746 27.8024 17.6413 27.7788 17.6642 27.7285Z" fill="#60A5FA"/>
<path d="M10.2032 26.083C10.1606 26.0479 10.1197 26.0103 10.075 25.978C9.92685 25.8708 9.81079 25.7357 9.71684 25.5794C9.52985 25.2684 9.39505 24.9363 9.30788 24.5845C9.29625 24.5376 9.29266 24.4884 9.26264 24.4478C9.26249 24.4072 9.26235 24.3666 9.2622 24.326C9.24718 24.2802 9.26902 24.2732 9.30717 24.2835C9.37626 24.5402 9.45455 24.7936 9.55941 25.0385C9.64763 25.2447 9.74889 25.4445 9.86569 25.635C10.0222 25.8906 10.2628 26.0456 10.5387 26.1445C10.9347 26.2866 11.3368 26.4046 11.7642 26.4001C11.8411 26.3993 11.9181 26.4043 11.9949 26.4089C12.0945 26.4148 12.1904 26.4074 12.277 26.3502C12.3002 26.3349 12.3303 26.3234 12.3536 26.3463C12.3839 26.3762 12.3679 26.4116 12.3518 26.4426C12.3211 26.502 12.2679 26.5342 12.207 26.5564C12.1465 26.5785 12.0836 26.5783 12.0206 26.5793C11.4041 26.5901 10.8302 26.4371 10.2948 26.1345C10.2643 26.1172 10.2337 26.1002 10.2032 26.083Z" fill="#60A5FA"/>
<path d="M20.6623 18.2952C20.6758 18.2944 20.69 18.2905 20.7027 18.2934C20.8641 18.3302 20.96 18.2664 20.9942 18.106C21.0764 18.1047 21.0524 18.1537 21.0377 18.1982C21.0295 18.3223 21.0299 18.3211 21.1323 18.3657C21.2058 18.3978 21.2868 18.4184 21.3431 18.4801C21.3181 18.5222 21.283 18.5267 21.2488 18.5335C21.1188 18.5594 20.9893 18.588 20.8588 18.6114C20.5447 18.6677 20.2566 18.7856 19.9942 18.9673C19.9377 19.0064 19.8782 19.0413 19.8235 19.076C19.7835 19.0433 19.808 19.0177 19.8172 18.9953C19.8986 18.799 20.0125 18.6253 20.178 18.4888C20.2485 18.4306 20.3252 18.3802 20.4118 18.3517C20.4853 18.3275 20.532 18.289 20.5439 18.2098C20.55 18.1687 20.5653 18.1289 20.5766 18.0886C20.6098 18.0689 20.5766 17.9828 20.6559 18.0091C20.6536 18.0644 20.6515 18.1197 20.6492 18.1751C20.63 18.2177 20.6064 18.2608 20.6623 18.2952Z" fill="#3B82F6"/>
<path d="M15.9969 17.3186C16.1071 17.324 16.1647 17.3572 16.1682 17.4177C16.173 17.5027 16.1109 17.5393 16.0476 17.5719C16.023 17.5846 15.996 17.5967 15.9689 17.6002C15.7254 17.6313 15.5225 17.7587 15.3148 17.8742C15.186 17.9458 15.0546 18.011 14.9139 18.0552C14.8977 18.0603 14.8718 18.0516 14.8575 18.0404C14.8401 18.0269 14.8426 18.0011 14.8554 17.9842C14.8934 17.9339 14.9278 17.8788 14.9742 17.8377C15.2172 17.6224 15.4833 17.4442 15.798 17.3494C15.8653 17.3288 15.9333 17.3127 15.9969 17.3186Z" fill="#3B82F6"/>
<path d="M19.9654 24.0823C19.8464 24.0735 19.7263 24.0743 19.6206 24.0099C19.6058 24.0008 19.592 23.975 19.5934 23.9582C19.5956 23.9295 19.6172 23.9063 19.6492 23.9079C19.6835 23.9097 19.7176 23.9173 19.7516 23.9234C20.2239 24.0088 20.6175 23.8671 20.9374 23.5122C20.9746 23.4711 21.0089 23.427 21.0491 23.3892C21.0593 23.3797 21.0921 23.3822 21.1055 23.3918C21.1193 23.4017 21.1313 23.4285 21.1283 23.4451C21.1145 23.5243 21.06 23.5817 21.0085 23.6375C20.7273 23.9414 20.378 24.0872 19.9654 24.0823Z" fill="#3B82F6"/>
<path d="M9.30711 24.2835C9.29212 24.2977 9.27712 24.3119 9.26214 24.326C9.21829 24.2579 9.21824 24.178 9.21161 24.1029C9.18745 23.8305 9.18226 23.5577 9.25954 23.2911C9.2788 23.2244 9.30728 23.1596 9.33811 23.0973C9.47045 22.8308 9.69546 22.7137 9.9843 22.711C10.1452 22.7095 10.3067 22.7153 10.4602 22.7748C10.4435 22.8772 10.3816 22.826 10.331 22.8128C10.2752 22.8099 10.2187 22.8119 10.1638 22.8035C9.85436 22.7559 9.45032 22.9925 9.34036 23.3545C9.28981 23.5207 9.24388 23.6881 9.27002 23.8673C9.2901 24.0051 9.29524 24.1448 9.30711 24.2835Z" fill="#60A5FA"/>
<path d="M19.7723 16.2929C19.9405 16.2795 20.0994 16.344 20.2652 16.3604C20.2742 16.3612 20.2875 16.3783 20.288 16.3885C20.2887 16.399 20.2787 16.4169 20.2694 16.4202C20.2039 16.443 20.1384 16.4692 20.0707 16.4822C19.9002 16.5147 19.7286 16.5421 19.557 16.5688C19.5017 16.5773 19.4454 16.572 19.3931 16.5495C19.3464 16.5294 19.3084 16.5002 19.3056 16.4437C19.303 16.388 19.3329 16.3511 19.381 16.3301C19.4453 16.3021 19.5128 16.2848 19.5834 16.2858C19.646 16.2865 19.7084 16.2904 19.7723 16.2929Z" fill="#3B82F6"/>
<path d="M17.6642 27.7284C17.6914 27.7431 17.7186 27.7579 17.7457 27.7726C17.7571 27.8963 17.658 27.9112 17.5769 27.9426C17.4017 28.0104 17.2125 28.0127 17.0324 28.0583C16.9525 28.0785 16.8686 28.0857 16.8133 28.1543C16.7875 28.1555 16.825 28.1579 16.7979 28.1647C16.7889 28.1671 16.795 28.1663 16.8159 28.1611C17.0098 28.114 17.2044 28.1555 17.3984 28.1618C17.4456 28.1634 17.492 28.1963 17.4714 28.2625C17.0241 28.2469 16.5769 28.2313 16.1297 28.2156C16.0686 28.2218 15.9918 28.2791 15.9676 28.1658C16.1429 28.1583 16.3119 28.1135 16.4807 28.072C16.8462 27.9821 17.2086 27.8808 17.5629 27.7524C17.5954 27.7407 17.6304 27.7362 17.6642 27.7284Z" fill="#60A5FA"/>
<path d="M22.2783 24.9312C22.2633 24.9144 22.2483 24.8977 22.2334 24.8811C22.3909 24.6419 22.5254 24.3895 22.664 24.1394C22.6806 24.1095 22.7065 24.0848 22.7281 24.0576C22.7089 24.2127 22.6278 24.3437 22.5602 24.4793C22.4984 24.6032 22.4278 24.7226 22.3612 24.8441C22.376 24.9135 22.3395 24.9341 22.2783 24.9312Z" fill="#60A5FA"/>
<path d="M10.331 22.8129C10.3772 22.8109 10.4228 22.8068 10.4603 22.7748C10.5871 22.8036 10.7038 22.8568 10.8166 22.9233C10.7266 22.938 10.6473 22.903 10.5668 22.8792C10.4884 22.8561 10.4007 22.8659 10.331 22.8129Z" fill="#60A5FA"/>
<path d="M15.9676 28.1659C16.0132 28.21 16.073 28.2079 16.1296 28.2156C16.1106 28.2236 16.0918 28.2372 16.0723 28.2387C15.9076 28.251 15.7426 28.2611 15.5776 28.2719C15.5589 28.26 15.5588 28.2478 15.5772 28.2354C15.7074 28.2122 15.8375 28.189 15.9676 28.1659Z" fill="#60A5FA"/>
<path d="M20.6565 18.0092C20.6301 18.0358 20.6035 18.0624 20.577 18.089C20.5687 18.0134 20.5828 17.9399 20.6002 17.8671C20.6024 17.8579 20.6188 17.8461 20.6285 17.8463C20.638 17.8465 20.6533 17.8588 20.6557 17.8683C20.6674 17.9149 20.672 17.9622 20.6565 18.0092Z" fill="#3B82F6"/>
<path d="M16.6954 19.5382C16.6784 19.4948 16.6987 19.4396 16.6535 19.405C16.6476 19.3392 16.6831 19.2923 16.7329 19.2095C16.7497 19.3487 16.7505 19.4463 16.6954 19.5382Z" fill="#3B82F6"/>
<path d="M21.0381 18.1986C21.0235 18.1677 21.009 18.1369 20.9944 18.1061C20.9887 18.0399 21.025 17.9933 21.0707 17.9198C21.0919 18.0363 21.089 18.1202 21.0381 18.1986Z" fill="#3B82F6"/>
<path d="M15.5777 28.2352C15.5782 28.2475 15.5784 28.2596 15.5781 28.2719C15.5376 28.2934 15.4964 28.3123 15.4486 28.3079C15.4358 28.2924 15.423 28.277 15.4102 28.2615C15.4625 28.2294 15.5194 28.2277 15.5777 28.2352Z" fill="#60A5FA"/>
<path d="M16.2375 19.1778C16.2258 19.1779 16.214 19.1775 16.2023 19.1765C16.2021 19.1578 16.1993 19.1388 16.2024 19.1208C16.2043 19.1096 16.2151 19.1 16.222 19.0897C16.2282 19.1004 16.2381 19.1107 16.2396 19.122C16.2419 19.1403 16.2385 19.1592 16.2375 19.1778Z" fill="#3B82F6"/>
<path d="M20.6621 18.2949C20.6016 18.2611 20.6176 18.219 20.6493 18.1752C20.6534 18.2151 20.6578 18.255 20.6621 18.2949Z" fill="#3B82F6"/>
<path d="M14.7404 20.881C14.7399 20.9105 14.7395 20.9399 14.7391 20.9694C14.7241 20.9945 14.7064 20.9912 14.7004 20.9665C14.6918 20.9302 14.7117 20.9024 14.7404 20.881Z" fill="#93C5FD"/>
<path d="M17.8744 27.6525C17.8459 27.6646 17.8174 27.6766 17.7888 27.6886C17.8174 27.6766 17.8459 27.6646 17.8744 27.6525Z" fill="#93C5FD"/>
<path d="M22.7344 23.9779C22.7617 24.0079 22.7565 24.0352 22.7272 24.0604C22.7296 24.0329 22.732 24.0054 22.7344 23.9779Z" fill="#93C5FD"/>
<path d="M17.7475 27.6918C17.7319 27.7032 17.7161 27.7145 17.7004 27.726C17.7161 27.7145 17.7318 27.7031 17.7475 27.6918Z" fill="#93C5FD"/>
<path d="M22.7794 23.8932C22.7908 23.9097 22.7878 23.9241 22.7728 23.9365C22.7751 23.9222 22.7773 23.9077 22.7794 23.8932Z" fill="#93C5FD"/>
<path d="M20.8419 20.6644C20.8313 20.6497 20.8208 20.635 20.8102 20.6203C20.8208 20.635 20.8314 20.6496 20.8419 20.6644Z" fill="#93C5FD"/>
<path d="M20.607 20.3988C20.5932 20.387 20.5793 20.3752 20.5655 20.3634C20.5794 20.3752 20.5932 20.387 20.607 20.3988Z" fill="#93C5FD"/>
<path d="M30.4742 27.9421C30.4191 27.9328 30.3633 27.9264 30.3091 27.9135C29.6014 27.7456 28.8923 27.5852 28.1748 27.4627C27.789 27.3969 27.4027 27.3379 27.0141 27.2892C26.7214 27.2525 26.4292 27.2368 26.1358 27.2239C26.0938 27.222 26.0517 27.2227 26.0098 27.2211C25.914 27.2173 25.8496 27.2557 25.8209 27.3514C25.7949 27.4386 25.7649 27.5246 25.735 27.6105C25.5713 28.0809 25.3748 28.5382 25.137 28.9749C24.7765 29.637 24.3386 30.242 23.7532 30.7282C23.6564 30.8086 23.5576 30.8882 23.4519 30.956C23.3197 31.0407 23.3394 31.0825 23.3901 31.1985C23.5386 31.5384 23.6904 31.8764 23.8718 32.2008C24.1833 32.7579 24.5467 33.2791 24.9288 33.7892C25.526 34.5862 26.2056 35.3105 26.8906 36.03C27.0542 36.2018 27.2356 36.3567 27.4076 36.5209C27.4624 36.5731 27.5129 36.6301 27.5624 36.6817C27.5381 36.7304 27.5112 36.7115 27.4891 36.7009C27.2154 36.5693 26.9776 36.3846 26.7505 36.1867C26.3909 35.8733 26.0705 35.5203 25.7636 35.1571C25.3798 34.7031 25.0287 34.2231 24.6955 33.7302C24.2914 33.1324 23.921 32.5149 23.5941 31.8716C23.5339 31.7531 23.481 31.6309 23.4254 31.5101C23.3903 31.4338 23.3568 31.3567 23.3219 31.2803C23.241 31.1037 23.2408 31.1036 23.0658 31.2099C22.9941 31.2536 22.9227 31.298 22.851 31.3417C22.4979 31.5571 22.1327 31.7501 21.7533 31.9146C21.0355 32.2258 20.2877 32.4233 19.5095 32.5115C18.9924 32.5701 18.4748 32.5723 17.9594 32.5221C17.5995 32.487 17.2373 32.447 16.8397 32.3345C16.9265 32.3309 16.9686 32.326 17.0102 32.3284C17.0589 32.3311 17.1075 32.3389 17.1558 32.3467C17.4611 32.3957 17.7679 32.4049 18.0761 32.3854C18.125 32.3823 18.1738 32.3765 18.2227 32.3764C18.7995 32.3755 19.3664 32.2919 19.9262 32.1613C20.5552 32.0147 21.1635 31.8039 21.7471 31.5264C22.3618 31.2341 22.9533 30.8986 23.4891 30.4777C23.8467 30.1966 24.1707 29.8768 24.454 29.5163C25.0135 28.8045 25.4257 28.0127 25.7437 27.1699C25.8572 26.8689 25.9466 26.5589 26.047 26.253C26.1294 26.2422 26.1354 26.314 26.1646 26.3609C26.1957 26.5125 26.1252 26.6473 26.0898 26.7876C26.0558 26.9221 26.0779 27.0027 26.2411 27.0037C26.5195 27.0052 26.7975 27.0264 27.0759 27.0399C27.2181 27.0332 27.3546 27.0646 27.4911 27.0979C27.8839 27.1355 28.2717 27.2001 28.6516 27.3084C28.7307 27.3282 28.8164 27.3191 28.8901 27.3626C29.3921 27.4655 29.8849 27.6029 30.3734 27.7566C30.4421 27.7782 30.5023 27.8077 30.5286 27.8809C30.5318 27.9205 30.5287 27.9543 30.4742 27.9421Z" fill="#60A5FA"/>
<path d="M17.4714 28.2624C17.406 28.2132 17.3285 28.2176 17.253 28.2144C17.0192 28.2046 16.7854 28.1956 16.5178 28.1849C16.5833 28.1362 16.6279 28.1499 16.6677 28.1491C16.717 28.1481 16.7639 28.1423 16.8061 28.1149C17.0059 28.0163 17.224 28.0138 17.4383 28.0018C17.9341 27.974 18.4299 27.994 18.9259 28.0127C19.4498 28.0323 19.9719 27.9975 20.4943 27.9476C21.1361 27.8864 21.58 27.5036 21.9968 27.0698C22.3017 26.7524 22.6047 26.4326 22.877 26.0859C22.9276 26.0214 23.0007 25.9974 23.0727 25.9706C23.1765 25.9016 23.2439 25.8032 23.2958 25.6925C23.306 25.6738 23.3215 25.6636 23.3431 25.6631C23.3745 25.6733 23.3977 25.6878 23.3779 25.7263C23.2087 25.9914 23.0175 26.2408 22.8277 26.491C22.5829 26.8136 22.3244 27.1248 22.0543 27.4267C21.8442 27.6615 21.613 27.8743 21.3706 28.074C21.2132 28.2038 21.0284 28.2862 20.8253 28.3281C20.5507 28.3847 20.2746 28.407 19.9945 28.4128C19.7086 28.4187 19.4221 28.4395 19.1376 28.4088C18.7559 28.3677 18.3725 28.3528 17.9909 28.3162C17.8181 28.2996 17.6452 28.2754 17.4714 28.2624Z" fill="#60A5FA"/>
<path d="M23.1162 25.0383C23.1175 24.8853 23.1166 24.7321 23.1403 24.5802C23.1755 24.3544 23.2809 24.1598 23.4091 23.9754C23.4813 23.8714 23.545 23.7644 23.5509 23.6332C23.5624 23.6656 23.5785 23.6971 23.5847 23.7305C23.6357 24.0038 23.7149 24.2677 23.8402 24.517C23.8557 24.5477 23.8658 24.5812 23.8772 24.6138C23.9457 24.8119 23.932 24.9949 23.777 25.1515C23.746 25.151 23.7189 25.1404 23.6951 25.1208C23.5789 24.9787 23.42 25.0275 23.2733 25.0304C23.2212 25.0313 23.1711 25.0768 23.1162 25.0383Z" fill="#60A5FA"/>
<path d="M26.4723 23.9971C26.4734 23.7909 26.5064 23.5846 26.4633 23.3787C26.4505 23.3174 26.4617 23.2549 26.4972 23.1998C26.7872 23.2333 26.9973 23.3705 27.0919 23.6577C27.074 23.8462 26.9007 23.9335 26.8172 24.0799C26.7249 24.1516 26.6347 24.2303 26.5032 24.1928C26.4747 24.1748 26.4616 24.1461 26.4506 24.1161C26.4504 24.075 26.4398 24.0321 26.4723 23.9971Z" fill="#3B82F6"/>
<path d="M27.0357 23.68C26.9698 23.5134 26.8638 23.3912 26.6823 23.3437C26.603 23.3231 26.525 23.2912 26.4973 23.1997C26.5075 23.0453 26.5277 22.8925 26.5673 22.7426C26.6361 22.7813 26.6706 22.8488 26.7116 22.9115C26.7523 22.9736 26.7806 23.0457 26.8445 23.0907C26.8795 23.108 26.8621 23.1494 26.8825 23.1733C26.892 23.2617 26.9364 23.3286 27.0092 23.3776C27.0607 23.4124 27.1127 23.4464 27.1644 23.4806C27.2198 23.6106 27.1931 23.6875 27.0357 23.68Z" fill="#93C5FD"/>
<path d="M26.4723 23.9971C26.4708 24.0395 26.4693 24.0821 26.4677 24.1245C26.5187 24.2945 26.6671 24.396 26.7579 24.5383C26.7618 24.6457 26.8209 24.7436 26.812 24.8533C26.7074 25.018 26.5398 25.0573 26.3628 25.0778C26.3422 25.0698 26.3237 25.0585 26.307 25.0439C26.3222 24.9688 26.3355 24.8933 26.353 24.8188C26.3996 24.621 26.4198 24.4205 26.4228 24.2176C26.424 24.1414 26.4215 24.0629 26.4723 23.9971Z" fill="#3B82F6"/>
<path d="M30.4741 27.9422C30.4888 27.9289 30.5035 27.9156 30.5181 27.9023C30.5738 27.8205 30.655 27.8429 30.7263 27.8614C30.8573 27.8954 30.9374 27.8375 31.0054 27.7359C31.0912 27.6077 31.1429 27.4632 31.2073 27.325C31.2466 27.2408 31.2067 27.1643 31.1653 27.089C31.1224 27.0109 31.0687 26.9312 31.1281 26.8367C31.2917 26.7612 31.3596 26.9533 31.4915 26.967C31.4995 26.9856 31.4968 27.0024 31.4823 27.0169C31.4149 27.3476 31.27 27.6458 31.0979 27.9323C31.0767 27.9678 31.0496 28 31.0233 28.0322C31.0002 28.0606 30.9684 28.079 30.9321 28.0694C30.7789 28.029 30.6178 28.0166 30.4741 27.9422Z" fill="#3B82F6"/>
<path d="M31.5296 26.7653C31.5623 26.5591 31.6075 26.3565 31.6895 26.163C31.7469 26.0278 31.7838 25.8873 31.7838 25.7386C31.7837 25.6761 31.7885 25.6135 31.7923 25.5511C31.7972 25.4719 31.8232 25.4018 31.8851 25.3484C31.876 25.403 31.866 25.4576 31.8577 25.5125C31.8516 25.5534 31.8356 25.5977 31.845 25.6352C31.8883 25.8094 31.8313 25.9674 31.7659 26.1201C31.7024 26.2683 31.6613 26.4213 31.6241 26.5766C31.6015 26.6708 31.5854 26.7676 31.5333 26.8521C31.5267 26.8465 31.5201 26.8408 31.5136 26.8352C31.504 26.8083 31.5075 26.7847 31.5296 26.7653Z" fill="#3B82F6"/>
<path d="M26.307 25.0441C26.3191 25.0437 26.3311 25.0434 26.3431 25.0435C26.4238 25.0884 26.413 25.1674 26.4171 25.241C26.4419 25.3516 26.3488 25.4443 26.3688 25.5544C26.3424 25.7144 26.3086 25.8729 26.2651 26.0293C26.2289 26.1591 26.2833 26.3358 26.0832 26.3807C26.0824 26.3349 26.0779 26.2904 26.0467 26.2534C26.0862 26.0907 26.1287 25.9288 26.1641 25.7653C26.198 25.6088 26.2457 25.4546 26.2548 25.2932C26.2908 25.2585 26.2603 25.202 26.2964 25.1674C26.3001 25.1262 26.3036 25.0851 26.307 25.0441Z" fill="#3B82F6"/>
<path d="M23.7404 25.1105C23.7526 25.1241 23.7647 25.1377 23.7768 25.1513C23.6528 25.3491 23.5352 25.5513 23.3779 25.7261C23.3639 25.7111 23.3497 25.6961 23.3357 25.681C23.3163 25.4738 23.5307 25.1715 23.7404 25.1105Z" fill="#3B82F6"/>
<path d="M24.0517 22.477C24.0691 22.3645 24.0382 22.2441 24.1066 22.1399C24.0978 22.3672 24.0895 22.5945 24.0799 22.8219C24.0794 22.834 24.0686 22.8458 24.0567 22.87C24.0276 22.7955 24.0455 22.7283 24.0458 22.663C24.046 22.601 24.0496 22.5389 24.0517 22.477Z" fill="#3B82F6"/>
<path d="M31.8841 25.3499C31.9014 25.2743 31.948 25.2334 32.0262 25.2309C32.0939 25.2287 32.1614 25.2287 32.224 25.2609C32.2495 25.274 32.2672 25.2925 32.2612 25.3246C32.2484 25.3206 32.2349 25.3181 32.2229 25.3123C32.1021 25.2543 31.9894 25.2684 31.8841 25.3499Z" fill="#3B82F6"/>
<path d="M31.4826 27.0173C31.4822 27.0016 31.4817 26.9861 31.4813 26.9704C31.4497 26.9116 31.4361 26.8595 31.5275 26.8463C31.5275 26.8463 31.5336 26.8516 31.5337 26.8517C31.5283 26.9105 31.5241 26.9696 31.4826 27.0173Z" fill="#3B82F6"/>
<path d="M26.2963 25.1674C26.2968 25.2139 26.2872 25.2571 26.2548 25.2928C26.2544 25.2463 26.2647 25.2033 26.2963 25.1674Z" fill="#93C5FD"/>
<path d="M31.5271 26.8466C31.4934 26.881 31.4835 26.9243 31.4811 26.9703C31.4659 26.9931 31.4506 27.0157 31.4357 27.0385C31.3898 27.1086 31.3685 27.1091 31.3201 27.0394C31.2967 27.0057 31.2762 26.9699 31.254 26.9352C31.2278 26.8938 31.1931 26.8612 31.1507 26.8367C30.8776 26.8827 30.6323 26.7707 30.3852 26.69C30.0527 26.5815 29.8088 26.3412 29.6188 26.063C29.4857 25.8684 29.304 25.849 29.1114 25.8267C28.9872 25.8123 29.0235 25.9071 29.0366 25.9704C29.112 26.3323 29.0687 26.6956 29.0458 27.0577C29.0363 27.2075 29.0224 27.3704 28.8551 27.4508C28.7904 27.4222 28.7225 27.4076 28.6522 27.4017C28.6081 27.3401 28.6 27.2736 28.6259 27.2027C28.7894 26.7565 28.6669 26.3509 28.4524 25.9571C28.3963 25.8541 28.3235 25.755 28.3339 25.6277C28.3381 25.5757 28.3763 25.5408 28.4028 25.5002C28.5212 25.3942 28.6831 25.3635 28.807 25.2667C28.8843 25.2256 28.9779 25.2141 29.0369 25.1392C29.0632 25.1208 29.0928 25.1145 29.1241 25.1142C29.3424 25.137 29.4515 25.3083 29.5754 25.4544C29.6307 25.5196 29.6787 25.5801 29.7694 25.5963C30.123 25.6594 30.4411 25.8045 30.7281 26.0193C30.9286 26.223 31.0523 26.492 31.2816 26.6717C31.3539 26.7301 31.4403 26.7515 31.5294 26.7654C31.5288 26.7924 31.528 26.8195 31.5271 26.8466Z" fill="#3B82F6"/>
<path d="M28.8498 25.3541C28.7333 25.4366 28.6025 25.4912 28.4728 25.5478C28.4406 25.5739 28.3978 25.5741 28.3624 25.5967C28.1789 25.7145 28.0822 25.6892 27.9443 25.4947C27.9033 25.3998 27.9321 25.3307 28.0318 25.3071C28.1666 25.2753 28.2839 25.2049 28.4045 25.1526C28.4001 25.1538 28.4039 25.1567 28.4008 25.1582C28.1439 25.2634 27.9044 25.4211 27.6092 25.3665C27.5895 25.3649 27.5701 25.3623 27.5507 25.3585C27.5128 25.3461 27.4795 25.324 27.4431 25.3083C27.4173 25.292 27.3973 25.2702 27.3823 25.2437C27.3732 25.2261 27.3679 25.2073 27.3651 25.1878C27.3587 25.1495 27.3424 25.1134 27.3381 25.0743C27.3368 25.0442 27.3394 25.0146 27.3491 24.9859C27.3621 24.9583 27.3814 24.9348 27.3986 24.91C27.4185 24.8864 27.4435 24.8706 27.4724 24.8608C27.759 24.8127 27.9638 24.6007 28.2179 24.4876C28.3251 24.441 28.4313 24.4473 28.5389 24.4886C28.6645 24.5369 28.7536 24.6133 28.7548 24.7582C28.7555 24.8395 28.7979 24.8839 28.8681 24.9119C28.9255 24.9349 28.9816 24.9607 29.0383 24.9852C29.0382 24.9986 29.0383 25.0119 29.0386 25.0252C29.0576 25.0484 29.0615 25.0773 29.0693 25.1048C29.0675 25.124 29.0618 25.1421 29.0527 25.1591C29.0064 25.2464 28.9368 25.3094 28.8498 25.3541Z" fill="#93C5FD"/>
<path d="M29.0298 25.1492C29.0311 25.1358 29.0329 25.1226 29.0351 25.1095C29.0502 25.0966 29.0521 25.0702 29.0778 25.0683C29.0897 25.061 29.1045 25.0561 29.1131 25.0461C29.3978 24.7159 29.6601 24.3738 29.7148 23.9207C29.7198 23.8792 29.7269 23.8376 29.738 23.7975C29.7685 23.6873 29.7724 23.5777 29.7429 23.4666C29.7217 23.3863 29.7101 23.3056 29.766 23.2165C29.8007 23.3144 29.8165 23.4011 29.814 23.4914C29.8125 23.5472 29.8107 23.603 29.8091 23.6589C29.801 23.9345 29.7854 23.9231 29.9635 24.1308C30.113 24.3051 30.2249 24.5097 30.3219 24.7192C30.4391 24.9726 30.5527 25.2278 30.6667 25.4827C30.8493 25.8907 31.0442 26.2922 31.2819 26.6715C31.1899 26.6528 31.1178 26.6013 31.0572 26.5327C30.9296 26.3882 30.8032 26.2426 30.6762 26.0975C30.3082 25.7043 30.1196 25.2047 29.869 24.7417C29.7479 24.5182 29.743 24.5195 29.5911 24.7275C29.5173 24.8287 29.4473 24.9328 29.3663 25.0286C29.3004 25.1066 29.218 25.1537 29.1135 25.1562C29.0996 25.1684 29.0855 25.1804 29.0716 25.1926C29.0326 25.2021 29.014 25.1923 29.0298 25.1492Z" fill="#3B82F6"/>
<path d="M29.0789 25.0682C29.0645 25.0821 29.0501 25.096 29.0356 25.1099C29.0368 25.0815 29.0379 25.053 29.039 25.0246C29.0523 25.0392 29.0656 25.0538 29.0789 25.0682Z" fill="#93C5FD"/>
<path d="M26.5124 24.1716C26.5977 24.1195 26.6831 24.0675 26.7685 24.0153C26.9288 23.8917 27.0634 23.7431 27.186 23.5828C27.2121 23.5487 27.242 23.5196 27.2906 23.5259C27.3863 23.458 27.4891 23.4268 27.6038 23.4703C27.7195 23.5143 27.8104 23.5943 27.8521 23.7075C27.8849 23.7971 27.928 23.8491 28.0236 23.8596C28.0566 23.8632 28.089 23.8819 28.1194 23.8979C28.3295 24.0091 28.3752 24.2312 28.2277 24.4202C28.2107 24.4421 28.1937 24.4639 28.1766 24.4858C28.0043 24.7161 27.7518 24.8122 27.4917 24.8955C27.4613 24.9006 27.4329 24.9114 27.4051 24.9246C27.3561 24.9422 27.3095 24.967 27.2565 24.9717C27.1588 24.9732 27.0614 24.9674 26.9639 24.9618C26.9413 24.9608 26.9201 24.9549 26.9001 24.9444C26.7989 24.8276 26.6857 24.714 26.7874 24.5408C26.941 24.4852 27.1075 24.4711 27.2399 24.4034C27.1144 24.4576 26.9686 24.5054 26.8151 24.5169C26.6001 24.5332 26.4749 24.3865 26.5124 24.1716Z" fill="#93C5FD"/>
<path d="M27.2905 23.5261C27.2191 23.6099 27.1488 23.6945 27.0763 23.7771C26.9894 23.8764 26.891 23.9617 26.7685 24.0154C26.7513 23.9751 26.7729 23.9502 26.8045 23.9323C26.909 23.8731 26.9823 23.7859 27.0356 23.6801C27.1133 23.636 27.147 23.5636 27.1645 23.4809C27.263 23.3286 27.3611 23.176 27.4602 23.0242C27.4781 22.9969 27.4867 22.9584 27.5294 22.9557C27.5334 22.962 27.5413 22.9697 27.5398 22.9732C27.4955 23.0755 27.4516 23.1783 27.4045 23.2793C27.3661 23.3613 27.31 23.4353 27.2905 23.5261Z" fill="#3B82F6"/>
<path d="M27.4872 24.8752C27.5185 24.8602 27.5486 24.8419 27.5813 24.8308C27.8028 24.7555 27.9955 24.6311 28.1765 24.486C28.1903 24.4867 28.204 24.4873 28.2178 24.4877C28.0298 24.727 27.782 24.8644 27.4852 24.919C27.4614 24.9034 27.462 24.8887 27.4872 24.8752Z" fill="#3B82F6"/>
<path d="M26.8827 23.1736C26.87 23.1459 26.8573 23.1182 26.8446 23.0906C26.8882 23.0632 26.932 23.0357 26.9757 23.0082C26.9657 23.0752 26.9176 23.1206 26.8827 23.1736Z" fill="#3B82F6"/>
<path d="M23.0727 25.9705C23.0161 26.1101 22.9054 26.2102 22.8113 26.321C22.4813 26.7099 22.1415 27.0904 21.7618 27.4321C21.6322 27.5487 21.4938 27.6562 21.3534 27.7598C21.2057 27.8687 21.039 27.9397 20.8581 27.9775C20.4673 28.0592 20.0729 28.091 19.6737 28.1073C19.1278 28.1296 18.5844 28.0815 18.0402 28.0869C17.74 28.0898 17.44 28.0882 17.1399 28.0882C17.0288 28.0882 16.9175 28.1055 16.8062 28.1149C16.7734 28.1103 16.7405 28.1057 16.7078 28.1011C16.7068 28.093 16.7059 28.0849 16.7049 28.0769C16.8078 28.05 16.9112 28.0243 17.0138 27.9961C17.227 27.9373 17.4401 27.8778 17.6527 27.8167C17.6853 27.8073 17.7148 27.7875 17.7458 27.7725C17.7594 27.7719 17.7729 27.7708 17.7865 27.7693C17.8109 27.7474 17.8491 27.7594 17.8721 27.7345C17.8861 27.7334 17.9002 27.7323 17.9142 27.7312C17.9297 27.7197 17.9456 27.7086 17.9618 27.698C18.2696 27.6283 18.5584 27.5025 18.8522 27.392C19.1987 27.2618 19.5386 27.1145 19.8715 26.9528C20.2543 26.7669 20.6397 26.5854 20.9907 26.3396C21.3832 26.0647 21.7208 25.735 22.0054 25.351C22.1047 25.2171 22.2194 25.0918 22.2784 24.9312C22.306 24.9022 22.3335 24.8731 22.3611 24.8441C22.4488 24.8496 22.5409 24.834 22.6166 24.897C22.6033 24.9873 22.6184 25.0752 22.6339 25.1642C22.6522 25.2697 22.6898 25.3643 22.7665 25.4391C22.8731 25.5428 22.9452 25.6637 22.985 25.8078C23.001 25.8657 23.0427 25.9165 23.0727 25.9705Z" fill="#93C5FD"/>
<path d="M23.7405 25.1105C23.6055 25.3007 23.4706 25.4908 23.3357 25.681C23.3223 25.6843 23.309 25.688 23.2958 25.6922C23.1827 25.6537 23.1456 25.5628 23.1384 25.4555C23.134 25.3882 23.1387 25.3203 23.1393 25.2527C23.1288 25.2397 23.1189 25.2261 23.1097 25.212C23.1118 25.1541 23.1139 25.0962 23.116 25.0382C23.1315 25.0075 23.1461 24.9764 23.1623 24.9463C23.176 24.921 23.1957 24.9024 23.2272 24.9047C23.3847 24.9165 23.5423 24.9272 23.6996 24.9413C23.8004 24.9502 23.8108 24.9754 23.761 25.0746C23.7549 25.087 23.7474 25.0986 23.7405 25.1105Z" fill="#60A5FA"/>
<path d="M23.11 25.2121C23.1201 25.2259 23.1302 25.2397 23.1402 25.2535C23.1301 25.2397 23.12 25.2259 23.11 25.2121Z" fill="#93C5FD"/>
<path d="M17.8717 27.7346C17.8433 27.7462 17.8149 27.7578 17.7864 27.7694C17.8149 27.7578 17.8433 27.7462 17.8717 27.7346Z" fill="#93C5FD"/>
<path d="M17.9626 27.6974C17.9464 27.7087 17.9302 27.72 17.9141 27.7312C17.9303 27.7199 17.9464 27.7086 17.9626 27.6974Z" fill="#93C5FD"/>
<path d="M28.8553 27.4506C29.0261 26.8589 29.0262 26.2658 28.8647 25.6778C28.8988 25.6325 28.9306 25.6569 28.9613 25.6677C29.0803 25.7095 29.2004 25.7444 29.327 25.7561C29.3822 25.7612 29.4355 25.7826 29.4904 25.7928C29.566 25.8069 29.6082 25.8543 29.6468 25.9183C29.9018 26.3419 30.2662 26.6101 30.7598 26.6943C30.8978 26.7178 31.0334 26.7535 31.1509 26.8364C31.1676 26.9283 31.2248 27.0003 31.2734 27.0753C31.3446 27.1851 31.3556 27.2905 31.2859 27.4059C31.2036 27.5421 31.1638 27.7012 31.0613 27.827C31.035 27.8593 31.0124 27.8944 30.9855 27.926C30.9355 27.9846 30.872 28.0029 30.7981 27.9821C30.7047 27.9559 30.6115 27.9289 30.5183 27.9022C30.0096 27.7418 29.4924 27.6117 28.9781 27.4718C28.9381 27.461 28.8962 27.4575 28.8553 27.4506Z" fill="#60A5FA"/>
<path d="M27.9754 25.4416C28.0815 25.5645 28.2103 25.6089 28.369 25.5588C28.4015 25.5485 28.438 25.5511 28.4727 25.5478C28.4239 25.5914 28.3867 25.6315 28.4287 25.7074C28.5163 25.8654 28.5991 26.0266 28.6752 26.1905C28.7958 26.4503 28.8228 26.7255 28.7859 27.0073C28.7677 27.1468 28.7053 27.2731 28.6523 27.4017C28.2639 27.3153 27.8747 27.2334 27.479 27.1866C27.3907 27.1041 27.4236 27.0004 27.4503 26.9128C27.5193 26.6856 27.4399 26.4998 27.3008 26.3359C27.1349 26.1404 26.961 25.9511 26.7792 25.7699C26.6886 25.6796 26.5863 25.6125 26.4522 25.6071C26.3899 25.6046 26.3261 25.6003 26.2834 25.5433C26.2791 25.444 26.3084 25.3511 26.3375 25.2581C26.3856 25.1712 26.4605 25.108 26.5565 25.1479C26.8622 25.2753 27.195 25.2484 27.5077 25.3283C27.6075 25.3567 27.7117 25.3597 27.8122 25.3485C27.8987 25.3385 27.9346 25.3871 27.9754 25.4416Z" fill="#60A5FA"/>
<path d="M26.0834 26.3805C26.1482 26.2641 26.147 26.1298 26.1855 26.0062C26.3121 25.8781 26.4775 25.9058 26.6332 25.8939C26.7786 25.9288 26.8183 26.0574 26.8607 26.172C26.9071 26.2972 26.9669 26.413 27.0378 26.5245C27.0554 26.6547 27.0778 26.7843 27.0985 26.9142C27.111 26.9927 27.1147 27.0658 27.057 27.129C26.8353 27.121 26.6138 27.1124 26.3921 27.1053C26.2675 27.1014 26.1433 27.0955 26.0188 27.1169C25.9335 27.1315 25.9087 27.0978 25.9311 27.0058C25.9622 26.8779 25.9992 26.7515 26.031 26.6238C26.0511 26.5433 26.0661 26.4616 26.0834 26.3805Z" fill="#60A5FA"/>
<path d="M27.0569 27.129C26.9907 26.9383 26.9558 26.7422 26.9577 26.5399C26.9045 26.4006 26.92 26.2409 26.8364 26.1116C26.7924 26.0437 26.7691 25.9363 26.6456 25.9772C26.4935 26.0075 26.3399 26.0141 26.1855 26.0061C26.2222 25.8526 26.2217 25.6913 26.2834 25.543C26.3379 25.5324 26.3922 25.5169 26.4472 25.5123C26.5556 25.503 26.6551 25.5284 26.7384 25.6031C26.7747 25.6356 26.8143 25.6651 26.8475 25.7004C27.0199 25.8832 27.1893 26.0688 27.3627 26.2505C27.4571 26.3494 27.5097 26.47 27.5567 26.5942C27.5901 26.6824 27.5847 26.7729 27.563 26.8623C27.5367 26.9707 27.5072 27.0784 27.4791 27.1863C27.3383 27.1673 27.1976 27.1481 27.0569 27.129Z" fill="#3B82F6"/>
<path d="M26.5124 24.1716C26.5173 24.2126 26.5163 24.2556 26.5286 24.2942C26.5636 24.4038 26.6382 24.4608 26.7571 24.4728C26.9536 24.4927 27.1244 24.4197 27.294 24.34C27.3621 24.3079 27.4247 24.2639 27.4881 24.2264C27.5291 24.2642 27.4962 24.2816 27.4779 24.2947C27.3299 24.4008 27.1691 24.479 26.9895 24.5168C26.9356 24.5282 26.883 24.5458 26.8298 24.5607C26.7877 24.5574 26.7436 24.5923 26.7032 24.5545C26.6981 24.5499 26.6936 24.5438 26.6875 24.5411C26.5042 24.4603 26.4304 24.3218 26.4677 24.1246C26.4826 24.1402 26.4975 24.1559 26.5124 24.1716Z" fill="#3B82F6"/>
<path d="M27.5499 25.3847C27.4535 25.3817 27.3572 25.376 27.2609 25.3764C27.0243 25.3773 26.7942 25.3438 26.575 25.2522C26.4941 25.2184 26.4156 25.2115 26.3375 25.2579C26.3395 25.1865 26.3414 25.115 26.3434 25.0434C26.4728 24.9466 26.6265 24.905 26.7754 24.8526C26.8402 24.8353 26.8882 24.8789 26.9428 24.8988L26.9402 24.8979C27.0347 24.9496 27.1403 24.936 27.2371 24.9275C27.3698 24.9159 27.3882 24.9786 27.3793 25.0815C27.3855 25.1004 27.3922 25.1192 27.399 25.1379C27.4117 25.1637 27.4147 25.1947 27.439 25.2148C27.4507 25.2264 27.4623 25.2381 27.474 25.2497C27.4917 25.2825 27.5338 25.2768 27.5565 25.3016L27.5563 25.3006C27.5788 25.3305 27.5777 25.3586 27.5499 25.3847Z" fill="#3B82F6"/>
<path d="M26.9426 24.8989C26.8825 24.899 26.8279 24.8793 26.7753 24.8526C26.7294 24.7585 26.6881 24.6634 26.7033 24.5545C26.7465 24.5356 26.7896 24.5175 26.8298 24.5607C26.7684 24.6531 26.7879 24.7381 26.8562 24.8162C26.8823 24.846 26.9136 24.8714 26.9426 24.8989Z" fill="#3B82F6"/>
<path d="M29.1135 25.1561C29.3293 24.9348 29.5132 24.6895 29.6719 24.4244C29.7222 24.3404 29.7725 24.3467 29.8227 24.4397C29.8658 24.5196 29.9059 24.6012 29.9482 24.6816C30.1823 25.127 30.417 25.5721 30.6506 26.0179C30.6633 26.0422 30.6679 26.0707 30.6763 26.0973C30.4033 25.8588 30.0718 25.7554 29.7244 25.6973C29.6468 25.6843 29.592 25.6587 29.5538 25.5965C29.442 25.4143 29.2902 25.2729 29.1135 25.1561Z" fill="#60A5FA"/>
<path d="M29.0298 25.1492C29.0437 25.1636 29.0576 25.1781 29.0716 25.1924C29.0171 25.2729 28.9549 25.3428 28.8498 25.354C28.9098 25.2858 28.9698 25.2175 29.0298 25.1492Z" fill="#3B82F6"/>
<path d="M27.5499 25.3847C27.5519 25.3567 27.554 25.3286 27.5561 25.3007C27.6731 25.3027 27.7901 25.321 27.9069 25.3005C28.0227 25.28 28.1348 25.2494 28.2426 25.2C28.3361 25.1571 28.4258 25.1023 28.5311 25.0895L28.5299 25.0883C28.4911 25.1507 28.427 25.1784 28.3639 25.206C28.2692 25.2474 28.1743 25.2886 28.0777 25.3252C28.0207 25.3468 27.9831 25.3796 27.9754 25.4416C27.8628 25.3927 27.8628 25.3932 27.7115 25.3915C27.6576 25.3909 27.6038 25.3871 27.5499 25.3847Z" fill="#3B82F6"/>
<path d="M27.3925 25.1696C27.3381 25.1144 27.3776 25.012 27.2974 24.9723C27.2342 24.941 27.1624 24.9522 27.0941 24.9474C27.0383 24.9434 26.9847 24.9355 26.94 24.8981C27.0516 24.9024 27.1633 24.9066 27.275 24.911C27.312 24.8763 27.3673 24.9131 27.4042 24.8778C27.4318 24.877 27.4595 24.8762 27.4871 24.8754C27.4864 24.8901 27.4858 24.9046 27.4851 24.9192C27.4702 24.9333 27.4552 24.9474 27.4403 24.9614C27.4257 24.9749 27.4135 24.9905 27.401 25.0059C27.4 25.0318 27.399 25.0577 27.398 25.0836C27.4191 25.1136 27.4173 25.1423 27.3925 25.1696Z" fill="#3B82F6"/>
<path d="M27.3924 25.1694C27.3943 25.1408 27.3961 25.1122 27.3979 25.0836C27.4089 25.1131 27.4201 25.1427 27.4312 25.1723C27.4217 25.1827 27.4128 25.1857 27.4043 25.1814C27.3961 25.1771 27.3921 25.173 27.3922 25.1693L27.3924 25.1694Z" fill="#93C5FD"/>
<path d="M27.556 25.3015C27.5216 25.2955 27.4931 25.2799 27.4738 25.2498C27.5012 25.267 27.5287 25.2843 27.556 25.3015Z" fill="#93C5FD"/>
<path d="M27.3923 25.1694C27.4053 25.1704 27.4183 25.1714 27.4313 25.1724C27.4337 25.1864 27.436 25.2005 27.4385 25.2146C27.4231 25.1996 27.4078 25.1845 27.3923 25.1694Z" fill="#93C5FD"/>
<path d="M28.5312 25.0896L28.5381 25.0819L28.53 25.0883L28.5312 25.0896Z" fill="#93C5FD"/>
<path d="M27.4011 25.0057C27.4144 24.9907 27.4277 24.9757 27.441 24.9607C27.4277 24.9758 27.4144 24.9907 27.4011 25.0057Z" fill="#93C5FD"/>
<path d="M27.4038 24.8777C27.3658 24.9079 27.3218 24.9145 27.2751 24.9109C27.3134 24.8818 27.3572 24.8744 27.4038 24.8777Z" fill="#3B82F6"/>
<path d="M26.6455 25.9773C26.6952 25.944 26.7471 25.9418 26.8013 25.9649C26.847 25.9844 26.881 26.0168 26.9048 26.0599C26.945 26.1329 26.9703 26.21 26.9673 26.2944C26.9645 26.3763 26.961 26.4581 26.9576 26.54C26.8602 26.4062 26.8109 26.2488 26.7439 26.1002C26.7211 26.0497 26.7031 25.9986 26.6455 25.9773Z" fill="#3B82F6"/>
<g clip-path="url(#clip0_1813_7260)">
<path d="M28.9909 13.9453C29.0266 13.9017 29.4202 13.4529 29.275 12.961C29.1297 12.4691 28.5249 12.2073 28.0987 12.2838C27.289 12.43 26.7999 13.8221 26.9701 14.8942C26.9987 15.0831 27.0451 15.2471 27.0969 15.3804C27.1424 15.5017 27.212 15.6102 27.3055 15.6937C27.3991 15.7834 27.5046 15.8544 27.6276 15.8884C27.7631 15.9343 27.929 15.9735 28.1128 15.9939C29.1855 16.1293 30.5611 15.5857 30.6779 14.7763C30.7418 14.347 30.4599 13.7541 29.9619 13.6245C29.4641 13.5009 29.0329 13.9077 28.9909 13.9453Z" fill="#3B82F6"/>
<path d="M28.9053 13.666C29.0814 13.6132 29.1765 13.2077 29.0597 12.8985C28.9361 12.5589 28.5708 12.3469 28.235 12.3665C27.8627 12.393 27.6313 12.7098 27.5305 12.8526C26.9314 13.6848 27.2323 14.864 27.2751 14.8631C27.2995 14.8626 27.2298 14.4729 27.4454 13.9914C27.4865 13.911 27.7894 13.232 28.1991 13.2352C28.5476 13.2398 28.6927 13.7256 28.9053 13.666Z" fill="#93C5FD"/>
</g>
<g clip-path="url(#clip1_1813_7260)">
<path d="M8.31256 32.8964C8.259 32.8789 7.69813 32.6747 7.29228 32.9883C6.88643 33.302 6.86158 33.9605 7.08741 34.33C7.51705 35.0318 8.99181 34.9831 9.92934 34.4359C10.095 34.3408 10.2311 34.2381 10.3366 34.1415C10.4331 34.0552 10.509 33.951 10.553 33.8336C10.6026 33.7138 10.6305 33.5898 10.6176 33.4628C10.6114 33.3199 10.5877 33.1511 10.5401 32.9724C10.2776 31.9235 9.27243 30.8384 8.47573 31.0229C8.05246 31.1189 7.60208 31.5965 7.66168 32.1077C7.72693 32.6164 8.26231 32.8709 8.31256 32.8964Z" fill="#3B82F6"/>
<path d="M8.08324 33.0774C7.97025 32.9324 7.55786 32.9908 7.31203 33.2117C7.0403 33.4499 6.97505 33.8672 7.11498 34.1731C7.2746 34.5104 7.65375 34.6113 7.82337 34.6535C8.81613 34.9103 9.80617 34.2025 9.78979 34.163C9.78044 34.1404 9.4425 34.3466 8.91558 34.3201C8.82582 34.311 8.08315 34.2747 7.93774 33.8917C7.81571 33.5653 8.21592 33.2539 8.08324 33.0774Z" fill="#93C5FD"/>
</g>
<defs>
<clipPath id="clip0_1813_7260">
<rect width="3.74611" height="3.74611" fill="white" transform="translate(30.6341 12.2222) rotate(88.7444)"/>
</clipPath>
<clipPath id="clip1_1813_7260">
<rect width="3.74611" height="3.74611" fill="white" transform="translate(6.11111 31.9894) rotate(-22.5032)"/>
</clipPath>
</defs>
</svg>
