<svg width="44" height="44" viewBox="0 0 44 44" fill="none" xmlns="http://www.w3.org/2000/svg">
<path d="M0 22C0 9.84974 9.84974 0 22 0C34.1503 0 44 9.84974 44 22C44 34.1503 34.1503 44 22 44C9.84974 44 0 34.1503 0 22Z" fill="#EFF6FF"/>
<path d="M24.8592 22.7117C24.7573 22.7616 24.6754 22.8446 24.6269 22.9472L19.7561 33.2471C19.686 33.3952 19.693 33.5682 19.7747 33.7102C19.8564 33.8522 20.0025 33.9452 20.1657 33.9591C22.0266 34.1173 24.2799 34.1101 26.1005 34.1043C26.1502 34.1042 26.1997 34.104 26.2487 34.1039C27.1784 34.101 27.9808 34.0997 28.5616 34.1214C28.8541 34.1323 29.0731 34.1486 29.2177 34.1701C29.2444 34.1741 29.2667 34.1779 29.285 34.1816C30.9114 35.7201 33.0497 35.8305 34.7003 35.5961C35.5408 35.4767 36.2815 35.265 36.8112 35.0839C37.0768 34.9931 37.291 34.9094 37.4401 34.8478C37.4594 34.8399 37.4777 34.8322 37.4948 34.825C37.5843 34.8523 37.7019 34.8864 37.8396 34.9223C38.1552 35.0045 38.5881 35.099 39.0383 35.1398C39.4782 35.1796 39.987 35.1735 40.4262 35.0133C40.8965 34.8418 41.298 34.4841 41.4068 33.8738L41.4068 33.8738C41.4895 33.4098 41.33 32.9844 41.1193 32.6473C40.9075 32.3083 40.6138 32.0083 40.335 31.7662C40.1144 31.5745 39.8913 31.409 39.7024 31.279C40.6612 30.0928 41.2217 28.663 41.3985 27.13C41.6708 24.7687 41.1482 22.8012 39.9349 21.3752C38.724 19.9521 36.8816 19.1347 34.6426 18.9574L34.6426 18.9574C32.6076 18.7962 30.9757 19.3482 29.4458 20.1307C28.757 20.483 28.0809 20.8864 27.4032 21.2908C27.3347 21.3317 27.2662 21.3726 27.1976 21.4135C26.4455 21.8616 25.6827 22.309 24.8592 22.7117Z" fill="white" stroke="#3B82F6" stroke-linejoin="round"/>
<path d="M38.4447 31.3329C38.4217 31.5378 38.5269 31.7357 38.7094 31.8315C38.892 31.9272 39.1147 31.901 39.2701 31.7656C40.66 30.5543 41.4643 28.7598 41.6521 27.1296C41.9259 24.755 41.3295 22.6852 40.0625 21.16C38.7965 19.6361 36.8955 18.6973 34.6366 18.5184L34.6366 18.5184C32.5708 18.355 30.4444 19.2638 28.7822 20.4816C28.67 20.5637 28.5972 20.6889 28.581 20.8269C28.5649 20.965 28.607 21.1035 28.6971 21.2093C29.1049 21.6877 29.6315 22.5035 30.0881 23.4607C30.5444 24.4176 30.9135 25.4801 31.033 26.4502C31.052 26.6042 31.1414 26.7407 31.275 26.8196C31.4086 26.8985 31.5712 26.9109 31.7153 26.8532C34.0012 25.9371 35.7444 26.3705 36.8753 27.3261C38.0309 28.3026 38.6084 29.8732 38.4447 31.3329Z" fill="#3B82F6" stroke="#3B82F6" stroke-linejoin="round"/>
<path d="M18.3434 32.3521C18.3218 32.3622 18.3011 32.3739 18.2812 32.3869C18.0269 32.5543 17.8122 32.8293 17.6476 33.1048C17.4768 33.3907 17.331 33.7262 17.2351 34.0633C17.1407 34.3953 17.0855 34.7616 17.1261 35.0993C17.1671 35.4393 17.3182 35.8206 17.7015 36.0346C18.2621 36.3476 18.9256 36.2819 19.4792 36.1285C20.049 35.9707 20.611 35.69 21.0515 35.4326C21.0692 35.4223 21.0863 35.4109 21.1026 35.3984C21.2581 35.2797 21.5018 35.2311 22.0769 35.2966C22.2963 35.3216 22.5378 35.3591 22.8186 35.4027C22.8938 35.4144 22.9718 35.4265 23.0529 35.4389C23.431 35.4968 23.8618 35.5589 24.3478 35.6056C26.5334 35.8196 28.0895 34.9035 28.5652 33.3915C29.0287 31.9183 28.3806 30.1252 26.7169 28.7354C26.5676 28.6107 26.3596 28.5839 26.1836 28.6666L18.3434 32.3521Z" fill="white" stroke="#3B82F6" stroke-linejoin="round"/>
<path d="M7.61625 31.9517L7.61638 31.9518C7.82774 32.0825 8.02299 32.1974 8.20393 32.3039C8.93986 32.7371 9.43899 33.0309 9.82231 33.6789C11.0345 35.924 13.2519 36.3461 15.0361 36.2469C15.9347 36.197 16.7561 36.0156 17.3497 35.8486C17.6475 35.7648 17.8907 35.6838 18.0607 35.6233C18.1457 35.593 18.2127 35.5678 18.2592 35.5498C18.2824 35.5408 18.3006 35.5336 18.3134 35.5284L18.3285 35.5223L18.3329 35.5205L18.3344 35.5199L18.3349 35.5197C18.3351 35.5196 18.3353 35.5195 18.1439 35.0587L18.3353 35.5195L18.3381 35.5183C20.2241 34.7213 21.9494 33.5374 23.1643 31.8961C23.9893 30.7815 27.6114 25.7911 24.8044 18.8718C24.8017 18.865 24.7988 18.8584 24.7958 18.8518C24.0206 17.1562 22.4403 14.8931 20.168 13.2486C18.587 12.0827 15.1861 10.8829 11.665 11.3141C8.09377 11.7513 4.42292 13.8647 2.39245 19.2664C2.10712 19.8546 1.78544 20.9553 1.69577 22.2713C1.60445 23.6113 1.75084 25.2141 2.45509 26.7601C3.57107 29.2902 5.65963 30.7411 7.61625 31.9517Z" fill="#3B82F6" stroke="#3B82F6" stroke-linejoin="round"/>
<path d="M8.48717 26.0915C8.83238 25.9225 8.97026 25.5074 8.80377 25.1668L8.80338 25.166C8.635 24.823 8.2209 24.6826 7.87883 24.8498L7.87796 24.8502L6.77748 27.8532C6.77748 27.8532 6.77748 27.8532 6.77748 27.8531L6.89392 27.8414M8.48717 26.0915C8.48703 26.0916 8.48689 26.0916 8.48676 26.0917L8.31867 25.7478C7.41088 26.1939 7.32513 27.137 7.39137 27.791C7.38174 27.697 7.33116 27.6177 7.25944 27.5683C7.26203 27.6521 7.26768 27.7309 7.27493 27.8028C7.27494 27.8028 7.27495 27.8029 7.27495 27.803M8.48717 26.0915C8.48731 26.0914 8.48745 26.0914 8.48758 26.0913L8.26719 25.6425M8.48717 26.0915C7.79333 26.4325 7.71529 27.1864 7.77241 27.7526L7.3914 27.7912L7.27495 27.803M7.27495 27.803C7.27497 27.8032 7.27499 27.8034 7.27501 27.8036C7.28533 27.9086 7.2087 28.0021 7.10361 28.0127M7.27495 27.803L7.3914 27.7912L7.77243 27.7528C7.81071 28.1318 7.5356 28.4689 7.15881 28.5096M7.10361 28.0127C7.09722 28.0135 7.09084 28.0135 7.08402 28.0135H7.08401C6.9869 28.0135 6.90383 27.9403 6.89394 27.8416C6.89393 27.8415 6.89393 27.8415 6.89393 27.8414C6.89392 27.8414 6.89392 27.8414 6.89392 27.8414M7.10361 28.0127L7.16969 28.5083C7.16602 28.5088 7.16239 28.5092 7.15881 28.5096M7.10361 28.0127L7.15397 28.5101C7.15558 28.51 7.1572 28.5098 7.15881 28.5096M6.89392 27.8414C6.88619 27.7651 6.88008 27.682 6.87693 27.5939C6.80732 27.6573 6.76735 27.7516 6.77745 27.8529M6.89392 27.8414L6.77745 27.8529M6.77745 27.8529C6.71446 27.2283 6.73465 25.8381 8.04671 25.1937C7.95248 25.2402 7.89335 25.3271 7.87809 25.422C7.94694 25.3784 8.02028 25.3373 8.0984 25.299C8.09843 25.299 8.09845 25.2989 8.09847 25.2989C8.09868 25.2988 8.09889 25.2987 8.09911 25.2986C8.19401 25.2527 8.30822 25.292 8.35456 25.3863C8.40102 25.4814 8.36223 25.596 8.26719 25.6425M6.77745 27.8529L6.39636 27.8907C6.39637 27.8909 6.39639 27.891 6.39641 27.8912C6.43216 28.2491 6.73353 28.5135 7.08401 28.5135L7.08428 28.5135C7.08763 28.5136 7.12022 28.514 7.15881 28.5096M8.26719 25.6425C8.26718 25.6425 8.26717 25.6425 8.26716 25.6425L8.27496 25.6584L8.26719 25.6425ZM8.04692 25.1936L8.04762 25.1933L8.04692 25.1936ZM8.04692 25.1936C8.04687 25.1937 8.04683 25.1937 8.04679 25.1937L8.04692 25.1936ZM8.26649 25.6428C8.19503 25.678 8.12842 25.716 8.06635 25.7567C8.14497 25.7886 8.23622 25.7881 8.31797 25.7482L8.26649 25.6428Z" fill="#3B82F6" stroke="#3B82F6" stroke-linejoin="round"/>
<path d="M12.8783 20.6728L12.877 20.6724C12.5101 20.5665 12.2985 20.1839 12.4044 19.8166L12.8783 20.6728ZM12.8783 20.6728C12.9385 20.69 13.0026 20.6997 13.0689 20.6997C13.3698 20.6997 13.6454 20.5026 13.7329 20.2002L13.7331 20.1998C13.9027 19.6116 14.5444 19.2771 15.0937 19.3106L15.0937 19.3107L15.1024 19.3111C15.4768 19.3274 15.8024 19.0451 15.8257 18.662L15.8257 18.6619C15.8489 18.2787 15.5565 17.9531 15.1769 17.9301L15.1762 17.9301M12.8783 20.6728L15.1762 17.9301M15.1762 17.9301C14.1133 17.8674 12.7935 18.4673 12.4044 19.8164L15.1762 17.9301Z" fill="#3B82F6" stroke="#3B82F6" stroke-linejoin="round"/>
<path d="M14.3222 33.7948C14.7097 33.0407 14.4506 32.0919 13.6878 31.6919L14.3222 33.7948ZM13.6876 31.6918C12.921 31.2898 11.9972 31.6253 11.6089 32.3819L13.6876 31.6918Z" fill="#3B82F6" stroke="#3B82F6" stroke-linejoin="round"/>
<path d="M19.994 22.5549L19.994 22.5548C20.4176 21.7313 21.4213 21.3683 22.2528 21.804C23.0809 22.2379 23.3645 23.269 22.9421 24.091C22.9421 24.0911 22.942 24.0912 22.942 24.0913L22.4973 23.8627C22.1921 24.4573 21.4833 24.6976 20.9147 24.3993L19.994 22.5549ZM19.994 22.5549C19.5715 23.3769 19.8549 24.408 20.6824 24.842L19.994 22.5549Z" fill="#3B82F6" stroke="#3B82F6" stroke-linejoin="round"/>
<mask id="path-10-outside-1_1813_7406" maskUnits="userSpaceOnUse" x="13.4915" y="27.6455" width="4" height="4" fill="black">
<rect fill="white" x="13.4915" y="27.6455" width="4" height="4"/>
<path d="M15.7925 29.6596C15.7643 29.6596 15.7358 29.6502 15.7123 29.631C15.5009 29.4597 15.4353 29.2125 15.5414 28.9866C15.6578 28.7377 15.9357 28.6021 16.2174 28.658C16.2865 28.6716 16.3316 28.739 16.318 28.808C16.3044 28.8771 16.2374 28.9218 16.168 28.9086C15.9826 28.8719 15.8287 28.9747 15.7724 29.0949C15.717 29.2129 15.7537 29.3361 15.873 29.4328C15.9276 29.4772 15.9361 29.5577 15.8918 29.6123C15.8666 29.6434 15.83 29.6596 15.7925 29.6596Z"/>
</mask>
<path d="M15.7925 29.6596C15.7643 29.6596 15.7358 29.6502 15.7123 29.631C15.5009 29.4597 15.4353 29.2125 15.5414 28.9866C15.6578 28.7377 15.9357 28.6021 16.2174 28.658C16.2865 28.6716 16.3316 28.739 16.318 28.808C16.3044 28.8771 16.2374 28.9218 16.168 28.9086C15.9826 28.8719 15.8287 28.9747 15.7724 29.0949C15.717 29.2129 15.7537 29.3361 15.873 29.4328C15.9276 29.4772 15.9361 29.5577 15.8918 29.6123C15.8666 29.6434 15.83 29.6596 15.7925 29.6596Z" fill="#3B82F6"/>
<path d="M15.7123 29.631L16.3456 28.8571L16.342 28.8541L15.7123 29.631ZM15.5414 28.9866L16.4465 29.4118L16.4473 29.4101L15.5414 28.9866ZM16.2174 28.658L16.023 29.6389L16.0236 29.639L16.2174 28.658ZM16.168 28.9086L15.974 29.8896L15.9811 29.891L16.168 28.9086ZM15.7724 29.0949L16.6777 29.5197L16.6781 29.5188L15.7724 29.0949ZM15.873 29.4328L16.5036 28.6567L16.5028 28.656L15.873 29.4328ZM15.8918 29.6123L15.1157 28.9817L15.114 28.9837L15.8918 29.6123ZM15.7925 28.6596C15.9851 28.6596 16.1827 28.7238 16.3456 28.8571L15.0791 30.405C15.2889 30.5766 15.5436 30.6596 15.7925 30.6596V28.6596ZM16.342 28.8541C16.3803 28.8852 16.4432 28.9553 16.4744 29.0728C16.5068 29.1951 16.4907 29.3179 16.4465 29.4118L14.6363 28.5614C14.3106 29.2547 14.5597 29.984 15.0827 30.4079L16.342 28.8541ZM16.4473 29.4101C16.3574 29.6024 16.1656 29.6672 16.023 29.6389L16.4118 27.6771C15.7057 27.5371 14.9581 27.873 14.6355 28.5631L16.4473 29.4101ZM16.0236 29.639C15.5515 29.5458 15.2434 29.0876 15.337 28.6142L17.299 29.0018C17.4198 28.3903 17.0214 27.7975 16.4112 27.6769L16.0236 29.639ZM15.337 28.6142C15.4311 28.1375 15.8912 27.838 16.3548 27.9262L15.9811 29.891C16.5837 30.0056 17.1776 29.6167 17.299 29.0018L15.337 28.6142ZM16.3619 27.9276C15.7003 27.7968 15.1068 28.158 14.8668 28.6709L16.6781 29.5188C16.5506 29.7913 16.2648 29.9471 15.974 29.8896L16.3619 27.9276ZM14.8672 28.67C14.7407 28.9394 14.708 29.2521 14.7987 29.5571C14.8857 29.8492 15.0641 30.0644 15.2433 30.2096L16.5028 28.656C16.5626 28.7046 16.663 28.8098 16.7157 28.9866C16.7721 29.1763 16.7487 29.3683 16.6777 29.5197L14.8672 28.67ZM15.2424 30.209C14.8705 29.9067 14.81 29.3579 15.1157 28.9817L16.6679 30.2429C17.0622 29.7576 16.9847 29.0476 16.5036 28.6567L15.2424 30.209ZM15.114 28.9837C15.2866 28.7701 15.5407 28.6596 15.7925 28.6596V30.6596C16.1192 30.6596 16.4466 30.5166 16.6695 30.2409L15.114 28.9837Z" fill="#3B82F6" mask="url(#path-10-outside-1_1813_7406)"/>
<mask id="path-12-outside-2_1813_7406" maskUnits="userSpaceOnUse" x="16.4009" y="25.7654" width="5" height="6" fill="black">
<rect fill="white" x="16.4009" y="25.7654" width="5" height="6"/>
<path d="M18.8165 30.3318C18.7112 30.3318 18.6072 30.3233 18.5075 30.3063C18.438 30.2943 18.3911 30.2287 18.4026 30.1592C18.4141 30.0897 18.4802 30.0433 18.5497 30.0544C19.0598 30.14 19.6958 29.9853 19.9673 29.4449C20.1198 29.1406 20.125 28.82 19.9809 28.5421C19.8351 28.2604 19.5589 28.0699 19.2227 28.0192C19.1532 28.0085 19.105 27.9437 19.1157 27.8738C19.1263 27.8044 19.1907 27.7562 19.261 27.7669C19.6787 27.8299 20.0239 28.0699 20.2076 28.4249C20.3875 28.7723 20.3828 29.1857 20.1953 29.5595C19.92 30.1076 19.3484 30.3318 18.8165 30.3318Z"/>
</mask>
<path d="M18.8165 30.3318C18.7112 30.3318 18.6072 30.3233 18.5075 30.3063C18.438 30.2943 18.3911 30.2287 18.4026 30.1592C18.4141 30.0897 18.4802 30.0433 18.5497 30.0544C19.0598 30.14 19.6958 29.9853 19.9673 29.4449C20.1198 29.1406 20.125 28.82 19.9809 28.5421C19.8351 28.2604 19.5589 28.0699 19.2227 28.0192C19.1532 28.0085 19.105 27.9437 19.1157 27.8738C19.1263 27.8044 19.1907 27.7562 19.261 27.7669C19.6787 27.8299 20.0239 28.0699 20.2076 28.4249C20.3875 28.7723 20.3828 29.1857 20.1953 29.5595C19.92 30.1076 19.3484 30.3318 18.8165 30.3318Z" fill="#3B82F6"/>
<path d="M18.5075 30.3063L18.3382 31.2918L18.339 31.292L18.5075 30.3063ZM18.5497 30.0544L18.7153 29.0681L18.7072 29.0668L18.5497 30.0544ZM19.9673 29.4449L20.8608 29.8938L20.8612 29.8931L19.9673 29.4449ZM19.9809 28.5421L19.0927 29.0017L19.0931 29.0024L19.9809 28.5421ZM19.2227 28.0192L19.0711 29.0076L19.0735 29.008L19.2227 28.0192ZM19.1157 27.8738L18.1272 27.7222L18.1271 27.7231L19.1157 27.8738ZM19.261 27.7669L19.1112 28.7556L19.1117 28.7556L19.261 27.7669ZM20.2076 28.4249L19.3195 28.8845L19.3196 28.8847L20.2076 28.4249ZM20.1953 29.5595L21.0889 30.0084L21.0891 30.008L20.1953 29.5595ZM18.8165 29.3318C18.7646 29.3318 18.7171 29.3276 18.676 29.3206L18.339 31.292C18.4973 31.319 18.6578 31.3318 18.8165 31.3318V29.3318ZM18.6768 29.3207C19.1467 29.4014 19.468 29.8469 19.3892 30.3226L17.4161 29.9958C17.3142 30.6105 17.7293 31.1872 18.3382 31.2918L18.6768 29.3207ZM19.3892 30.3226C19.3087 30.8083 18.853 31.1154 18.3921 31.0419L18.7072 29.0668C18.1073 28.9712 17.5195 29.3711 17.4161 29.9958L19.3892 30.3226ZM18.3841 31.0406C19.1282 31.1655 20.3148 30.9807 20.8608 29.8938L19.0737 28.996C19.0701 29.0031 19.0614 29.0241 18.9992 29.0472C18.9252 29.0747 18.8182 29.0854 18.7153 29.0682L18.3841 31.0406ZM20.8612 29.8931C21.1422 29.3326 21.175 28.6729 20.8687 28.0819L19.0931 29.0024C19.0916 28.9996 19.0894 28.9942 19.0876 28.9868C19.0859 28.9795 19.0854 28.9729 19.0854 28.9683C19.0855 28.9637 19.0861 28.9632 19.085 28.9674C19.084 28.9716 19.0809 28.9815 19.0733 28.9967L20.8612 29.8931ZM20.8691 28.0826C20.564 27.4931 19.9983 27.1249 19.3718 27.0304L19.0735 29.008C19.0986 29.0118 19.1072 29.0184 19.1054 29.0172C19.1048 29.0168 19.1026 29.0151 19.0998 29.012C19.097 29.0088 19.0945 29.0051 19.0927 29.0017L20.8691 28.0826ZM19.3743 27.0307C19.846 27.1031 20.1774 27.5445 20.1043 28.0245L18.1271 27.7231C18.0326 28.343 18.4604 28.914 19.0711 29.0076L19.3743 27.0307ZM20.1041 28.0254C20.032 28.4959 19.5915 28.8283 19.1112 28.7556L19.4108 26.7781C18.7898 26.6841 18.2207 27.1129 18.1272 27.7222L20.1041 28.0254ZM19.1117 28.7556C19.2338 28.7741 19.2926 28.8326 19.3195 28.8845L21.0958 27.9654C20.7553 27.3072 20.1237 26.8858 19.4103 26.7781L19.1117 28.7556ZM19.3196 28.8847C19.3405 28.925 19.3573 28.9998 19.3015 29.1111L21.0891 30.008C21.4084 29.3716 21.4345 28.6196 21.0957 27.9651L19.3196 28.8847ZM19.3017 29.1106C19.2694 29.1749 19.222 29.2224 19.1471 29.2607C19.064 29.3032 18.9481 29.3318 18.8165 29.3318V31.3318C19.5927 31.3318 20.5911 30.9993 21.0889 30.0084L19.3017 29.1106Z" fill="#3B82F6" mask="url(#path-12-outside-2_1813_7406)"/>
<mask id="path-14-outside-3_1813_7406" maskUnits="userSpaceOnUse" x="21.0943" y="13.9742" width="6" height="8" fill="black">
<rect fill="white" x="21.0943" y="13.9742" width="6" height="8"/>
<path d="M22.1116 18.437C21.9769 17.2129 22.6426 16.1247 23.6221 15.9884C24.6207 15.8494 25.5673 16.7521 25.737 18.0056C25.9062 19.2583 25.234 20.3869 24.235 20.5259C23.989 20.5604 23.7465 20.5314 23.5176 20.4496"/>
</mask>
<path d="M22.1116 18.437C21.9769 17.2129 22.6426 16.1247 23.6221 15.9884C24.6207 15.8494 25.5673 16.7521 25.737 18.0056C25.9062 19.2583 25.234 20.3869 24.235 20.5259C23.989 20.5604 23.7465 20.5314 23.5176 20.4496" fill="#3B82F6"/>
<path d="M23.6221 15.9884L23.4843 14.9979L23.4841 14.9979L23.6221 15.9884ZM25.737 18.0056L26.728 17.8718L26.7279 17.8715L25.737 18.0056ZM24.235 20.5259L24.0972 19.5354L24.0959 19.5356L24.235 20.5259ZM23.1056 18.3276C23.0065 17.4274 23.5068 17.0141 23.76 16.9788L23.4841 14.9979C21.7784 15.2354 20.9472 16.9984 21.1176 18.5463L23.1056 18.3276ZM23.7599 16.9788C24.0114 16.9438 24.6205 17.2126 24.746 18.1397L26.7279 17.8715C26.5141 16.2917 25.23 14.755 23.4843 14.9979L23.7599 16.9788ZM24.746 18.1395C24.8711 19.0661 24.3545 19.4996 24.0972 19.5354L24.3727 21.5163C26.1136 21.2742 26.9412 19.4504 26.728 17.8718L24.746 18.1395ZM24.0959 19.5356C24.02 19.5462 23.9405 19.5387 23.8543 19.5079L23.181 21.3912C23.5526 21.5241 23.9581 21.5745 24.374 21.5161L24.0959 19.5356Z" fill="#3B82F6" mask="url(#path-14-outside-3_1813_7406)"/>
<path d="M14.6477 28.2769C14.6438 27.8799 14.3202 27.5147 13.8762 27.5297C13.4635 27.5383 13.1329 27.8781 13.1375 28.2928C13.1466 29.127 12.7201 29.6597 12.2445 30.0083C11.7611 30.3626 11.2596 30.4974 11.2308 30.5049C10.8275 30.6079 10.584 31.0182 10.6857 31.4212C10.7722 31.7649 11.0808 31.9917 11.4178 31.9917C11.4802 31.9917 11.5403 31.9839 11.5971 31.9702L11.5971 31.9703L11.6035 31.9686C11.6463 31.9578 12.3894 31.7601 13.1296 31.2182C13.8808 30.6682 14.6632 29.7331 14.6477 28.2769ZM14.6477 28.2769C14.6477 28.277 14.6477 28.2772 14.6477 28.2773L14.1477 28.2819L14.6477 28.2765C14.6477 28.2766 14.6477 28.2768 14.6477 28.2769Z" fill="#3B82F6" stroke="#3B82F6" stroke-linejoin="round"/>
<path d="M16.0704 25.0546L15.931 24.5744C15.5313 24.6904 15.3001 25.1083 15.4162 25.5094L15.4163 25.5097L19.3855 22.0279C19.3852 21.6103 19.0457 21.2736 18.6302 21.2736H18.6302H18.6302H18.6302H18.6302H18.6302H18.6302H18.6302H18.6302H18.6302H18.6302H18.6302H18.6302H18.6302H18.6302H18.6302H18.6302H18.6302H18.6302H18.6302H18.6302H18.6302H18.6302H18.6302H18.6302H18.6302H18.6302H18.6302H18.6302H18.6301H18.6301H18.6301H18.6301H18.6301H18.6301H18.6301H18.6301H18.6301H18.6301H18.6301H18.6301H18.6301H18.6301H18.6301H18.6301H18.6301H18.6301H18.6301H18.6301H18.6301H18.6301H18.6301H18.6301H18.6301H18.6301H18.6301H18.6301H18.6301H18.6301H18.6301H18.6301H18.6301H18.6301H18.6301H18.6301H18.6301H18.6301H18.6301H18.6301H18.6301H18.6301H18.6301H18.6301H18.6301H18.6301H18.6301H18.63H18.63H18.63H18.63H18.63H18.63H18.63H18.63H18.63H18.63H18.63H18.63H18.63H18.63H18.63H18.63H18.63H18.63H18.63H18.63H18.63H18.63H18.63H18.63H18.63H18.63H18.63H18.63H18.63H18.63H18.63H18.63H18.63H18.6299H18.6299H18.6299H18.6299H18.6299H18.6299H18.6299H18.6299H18.6299H18.6299H18.6299H18.6299H18.6299H18.6299H18.6299H18.6299H18.6299H18.6299H18.6299H18.6299H18.6299H18.6299H18.6299H18.6299H18.6299H18.6299H18.6299H18.6299H18.6299H18.6299H18.6299H18.6299H18.6299H18.6299H18.6299H18.6299H18.6299H18.6299H18.6299H18.6299H18.6299H18.6299H18.6299H18.6299H18.6298H18.6298H18.6298H18.6298H18.6298H18.6298H18.6298H18.6298H18.6298H18.6298H18.6298H18.6298H18.6298H18.6298H18.6298H18.6298H18.6298H18.6298H18.6298H18.6298H18.6298H18.6298H18.6298H18.6298H18.6298H18.6298H18.6298H18.6298H18.6298H18.6298C18.2124 21.2736 17.8749 21.6122 17.8749 22.0289L17.8749 22.0294C17.876 23.0065 17.4201 23.624 16.9421 24.0156C16.4513 24.4177 15.9469 24.5697 15.9293 24.5749L16.0704 25.0546ZM16.0704 25.0546C16.1069 25.0438 16.4629 24.9355 16.8846 24.6709M16.0704 25.0546C15.9352 25.0938 15.8572 25.2349 15.8965 25.3704C15.9289 25.4821 16.0307 25.555 16.1415 25.555C16.165 25.555 16.1888 25.5515 16.2127 25.5447C16.2232 25.5417 16.6458 25.4146 17.152 25.0935C17.2894 25.0072 17.4329 24.9063 17.5758 24.7892C17.6742 24.7086 17.7726 24.62 17.8687 24.5231C18.4157 23.9761 18.8868 23.1728 18.8855 22.0284H19.3855C19.3855 22.0283 19.3855 22.0283 19.3855 22.0282L16.8846 24.6709M16.8846 24.6709C17.0015 24.5968 17.1235 24.5108 17.2453 24.4121C17.3355 24.3391 17.4251 24.2594 17.5122 24.1726M16.8846 24.6709L17.5122 24.1726M17.5122 24.1726C17.978 23.7039 18.376 23.0148 18.3749 22.0289L17.5122 24.1726Z" fill="#3B82F6" stroke="#3B82F6" stroke-linejoin="round"/>
<path d="M4.3737 22.9573L4.37371 22.9573C4.15511 22.6908 4.1912 22.2959 4.4599 22.0748C4.72739 21.8543 5.12358 21.8927 5.34377 22.1611L5.34378 22.1611C5.34377 22.1611 5.34378 22.1611 5.34381 22.1611C5.34472 22.1623 5.36572 22.1875 5.4058 22.2289C5.44713 22.2715 5.50791 22.3305 5.587 22.3973C5.74598 22.5317 5.97379 22.6936 6.26156 22.8212C6.8209 23.0692 7.63753 23.2038 8.68995 22.6819L8.80324 22.9104L4.3737 22.9573ZM4.3737 22.9573L4.37617 22.9603C4.40854 22.9991 5.49222 24.2897 7.30863 24.2897C7.89985 24.2897 8.5512 24.1513 9.24701 23.8066M4.3737 22.9573L9.02543 23.3584M9.24701 23.8066C9.55724 23.6533 9.68568 23.2765 9.53079 22.965C9.37705 22.655 8.99983 22.527 8.68845 22.6827L8.80251 22.9108L9.13417 23.5779C9.13404 23.5779 9.13392 23.578 9.13379 23.578M9.24701 23.8066C9.24688 23.8066 9.24675 23.8067 9.24661 23.8068L9.13379 23.578M9.24701 23.8066C9.24716 23.8065 9.24731 23.8064 9.24746 23.8063L9.13421 23.5778L9.02543 23.3584M9.13379 23.578L9.04495 23.3979L9.04491 23.3978L9.02543 23.3584M9.13379 23.578C8.98485 23.6515 8.81139 23.6163 8.70192 23.504C8.80805 23.4611 8.91588 23.4126 9.02535 23.3584C9.02538 23.3584 9.02541 23.3584 9.02543 23.3584M9.13379 23.578C8.46817 23.908 7.85529 24.0371 7.30863 24.0402C6.75077 24.0433 6.26188 23.9152 5.85626 23.7354C5.08135 23.3918 4.63392 22.8721 4.57203 22.797C4.57162 22.7965 4.57121 22.7961 4.57083 22.7956L9.13379 23.578ZM9.02543 23.3584C9.02566 23.3582 9.02589 23.3581 9.02612 23.358C9.0887 23.3267 9.1144 23.2503 9.08297 23.1874C9.05195 23.1245 8.97559 23.0985 8.91261 23.1296C8.91247 23.1297 8.91233 23.1298 8.91218 23.1298L9.02543 23.3584Z" fill="#3B82F6" stroke="#3B82F6" stroke-linejoin="round"/>
<path d="M6.41956 21.5217L6.41956 21.5217C6.16283 21.29 6.14102 20.8934 6.37397 20.6353L6.74516 20.9702M6.41956 21.5217L10.6795 21.1453C10.6794 21.1454 10.6793 21.1455 10.6791 21.1457L10.8633 21.3221C10.8635 21.3219 10.8637 21.3217 10.8639 21.3215M6.41956 21.5217L6.42077 21.5228C6.44791 21.5471 7.37279 22.3683 8.62009 22.3683C9.3438 22.3683 10.1312 22.0914 10.8639 21.3215M6.41956 21.5217L10.5023 20.9762L10.5976 21.0669L10.6797 21.145L10.8645 21.3208C10.8643 21.3211 10.8641 21.3213 10.8639 21.3215M6.74516 20.9702L6.37246 20.6369C6.60534 20.3765 7.00116 20.3592 7.25726 20.5864L7.2597 20.5886L7.25969 20.5886C7.25966 20.5885 7.26588 20.5941 7.27793 20.6042C7.2899 20.6142 7.30739 20.6284 7.33 20.6458C7.37535 20.6807 7.44044 20.7277 7.52203 20.7786C7.68702 20.8817 7.90939 20.9946 8.16482 21.061C8.6446 21.1859 9.28148 21.1638 9.95507 20.4559C10.1947 20.204 10.5919 20.196 10.8419 20.4333L10.842 20.4334C11.0919 20.6709 11.1051 21.069 10.8639 21.3215M6.74516 20.9702C6.79197 20.9179 6.87233 20.9136 6.92518 20.9602L6.75454 21.1505C6.70212 21.1032 6.69785 21.0227 6.74516 20.9702Z" fill="#3B82F6" stroke="#3B82F6" stroke-linejoin="round"/>
<path d="M8.75342 18.6144C8.75713 18.6153 9.0031 18.6798 9.31684 18.592C9.6173 18.5079 10.0511 18.2654 10.4034 17.511L8.75342 18.6144ZM8.75342 18.6144C8.41953 18.5186 8.07443 18.7126 7.9785 19.0421L8.45857 19.1819C8.4386 19.249 8.47707 19.3199 8.54443 19.3398L8.75342 18.6144ZM11.2375 17.2076C10.9227 17.0607 10.5497 17.1976 10.4034 17.5109L8.42382 19.8251C8.41548 19.823 8.44043 19.8296 8.46867 19.8359C8.49787 19.8424 8.53681 19.8502 8.58428 19.8577C8.67895 19.8727 8.80888 19.8869 8.96406 19.8869C9.30047 19.8869 9.76597 19.8206 10.2442 19.5454C10.7268 19.2677 11.1886 18.7964 11.5409 18.0419L11.541 18.0418C11.6879 17.7269 11.551 17.3539 11.2375 17.2076L11.0261 17.6607L11.2375 17.2076Z" fill="#3B82F6" stroke="#3B82F6" stroke-linejoin="round"/>
<path fill-rule="evenodd" clip-rule="evenodd" d="M25.1375 23.1508C28.5711 21.4715 30.9386 19.0737 34.8266 19.3816C39.1847 19.7267 41.7637 22.5394 41.2343 27.1304C41.0422 28.7962 40.381 30.3203 39.2402 31.5214C39.2402 31.5214 41.4619 32.7558 41.2473 33.9599C40.9555 35.5963 37.7404 34.4737 37.7404 34.4737C37.7404 34.4737 32.7146 36.8438 29.7267 33.9552C29.5485 33.5823 24.0179 33.9552 20.1823 33.6291L25.1375 23.1508Z" fill="white"/>
<path fill-rule="evenodd" clip-rule="evenodd" d="M39.2402 31.521C40.5458 30.3832 41.3137 28.6805 41.4923 27.1299C42.0217 22.539 39.1786 19.2801 34.8206 18.935C32.8854 18.7819 30.8419 19.6365 29.2055 20.8354C30.1065 21.8925 31.4385 24.3155 31.6995 26.4349C36.6547 24.449 39.6092 28.2313 39.2402 31.521Z" fill="#3B82F6"/>
<path fill-rule="evenodd" clip-rule="evenodd" d="M18.5017 32.9613C17.8387 33.3975 17.093 35.3635 17.8804 35.8031C18.6678 36.2428 19.9243 35.6978 20.7837 35.1957C21.4467 34.6897 22.5207 35.1198 24.4429 35.3045C28.5668 35.7086 29.6568 31.8678 26.4777 29.212L18.5017 32.9613Z" fill="white"/>
<path fill-rule="evenodd" clip-rule="evenodd" d="M2.52586 19.3903C2.00945 20.4335 1.23851 23.6486 2.58613 26.604C3.65321 29.0256 5.65556 30.4331 7.64013 31.661C8.65344 32.2876 9.49115 32.6327 10.06 33.6009C12.251 37.6759 18.082 35.2534 18.082 35.2534C19.94 34.4681 21.6123 33.313 22.7809 31.7343C23.5978 30.6308 27.1364 25.7559 24.3869 18.9783C23.629 17.3207 22.0728 15.0916 19.8415 13.4773C16.835 11.2582 6.51755 8.72856 2.52586 19.3903Z" fill="#BFDBFE"/>
<path fill-rule="evenodd" clip-rule="evenodd" d="M13.3129 32.2797C13.825 32.5481 14.0175 33.2003 13.7421 33.7362C13.4672 34.2721 12.8281 34.4885 12.316 34.2196C11.804 33.9512 11.6114 33.2991 11.8868 32.7636C12.1617 32.2277 12.8004 32.0109 13.3129 32.2797Z" fill="#BFDBFE"/>
<path fill-rule="evenodd" clip-rule="evenodd" d="M22.0264 22.2208C22.6048 22.5239 22.8221 23.2597 22.5112 23.8646C22.2007 24.4694 21.4797 24.714 20.9012 24.4105C20.3233 24.1074 20.106 23.3716 20.4169 22.7667C20.7278 22.1623 21.448 21.9177 22.0264 22.2208Z" fill="#BFDBFE"/>
<path d="M18.7666 30.4456C18.6595 30.4456 18.5537 30.4369 18.4523 30.4196C18.3816 30.4074 18.3339 30.3407 18.3456 30.27C18.3573 30.1993 18.4245 30.1521 18.4952 30.1633C19.0142 30.2505 19.6611 30.0931 19.9374 29.5433C20.0926 29.2337 20.0978 28.9076 19.9512 28.6249C19.8029 28.3383 19.522 28.1445 19.1799 28.0929C19.1092 28.0821 19.0602 28.0162 19.071 27.9451C19.0819 27.8744 19.1473 27.8254 19.2189 27.8362C19.6438 27.9004 19.995 28.1445 20.1819 28.5057C20.3649 28.8591 20.3601 29.2797 20.1693 29.6599C19.8892 30.2175 19.3078 30.4456 18.7666 30.4456Z" fill="#3B82F6"/>
<path d="M22.1188 18.3447C21.9817 17.0994 22.659 15.9925 23.6554 15.8537C24.6713 15.7124 25.6344 16.6307 25.8069 17.9059C25.9791 19.1803 25.2953 20.3284 24.2789 20.4698C24.0288 20.5049 23.782 20.4754 23.5492 20.3922" fill="#BFDBFE"/>
<path d="M29.7268 34.5879C29.6831 34.5879 29.6406 34.5658 29.6158 34.5259C28.8276 33.2394 28.368 31.0207 29.223 29.1892C29.6939 28.1797 30.7679 26.9002 33.2091 26.5368C33.2802 26.5273 33.3461 26.5754 33.3565 26.6461C33.3669 26.7172 33.3179 26.7831 33.2472 26.7935C31.4049 27.0676 30.095 27.9339 29.458 29.2989C28.6437 31.0436 29.0838 33.1613 29.837 34.3901C29.8747 34.4513 29.8552 34.5311 29.7941 34.5688C29.7732 34.5814 29.7498 34.5879 29.7268 34.5879Z" fill="#3B82F6"/>
<path d="M34.8262 33.3745C34.6003 33.3745 34.4633 33.3593 34.4407 33.3563C34.3696 33.3476 34.3189 33.283 34.3275 33.2119C34.3362 33.1408 34.4004 33.0905 34.4719 33.0983C34.4953 33.1013 36.8827 33.3602 39.1561 31.422C39.2103 31.3752 39.2927 31.3821 39.3391 31.4367C39.3854 31.4914 39.3789 31.5733 39.3243 31.6197C37.4863 33.1872 35.6149 33.3745 34.8262 33.3745Z" fill="#3B82F6"/>
<path d="M17.845 21.1495C17.845 21.9264 17.4703 23.6872 15.9718 24.5158C16.8638 24.4295 18.4872 23.6354 17.845 21.1495Z" fill="#3B82F6"/>
<path d="M7.96197 27.4726C8.0604 27.1053 8.46067 26.3201 9.2743 26.1181C8.84155 26.0459 7.97324 26.2157 7.96197 27.4726Z" fill="#3B82F6"/>
<path d="M14.0149 18.5161C13.6989 18.7276 13.0845 19.3595 13.1555 20.1949C12.9477 19.8084 12.8287 18.9317 14.0149 18.5161Z" fill="#3B82F6"/>
<path d="M13.9314 27.6883C13.7326 28.4393 12.9197 30.0456 11.2589 30.463C12.1433 30.6079 13.9159 30.2558 13.9314 27.6883Z" fill="#3B82F6"/>
<path d="M3.73481 16.4518C3.68524 17.5659 4.44236 20.1298 7.8674 21.4728C5.80272 21.2569 2.08564 19.9505 3.73481 16.4518Z" fill="#3B82F6"/>
</svg>
