<svg width="44" height="44" viewBox="0 0 44 44" fill="none" xmlns="http://www.w3.org/2000/svg">
<path d="M0 22C0 9.84974 9.84974 0 22 0C34.1503 0 44 9.84974 44 22C44 34.1503 34.1503 44 22 44C9.84974 44 0 34.1503 0 22Z" fill="#EFF6FF"/>
<g clip-path="url(#clip0_1813_7452)">
<path d="M31.0701 28.8929C30.0795 33.1125 27.4766 38.7997 26.0909 40.1764C24.1661 42.0888 21.8562 41.9401 19.5465 40.1764C18.7458 39.5651 17.487 38.2626 16.1441 36.7266C13.6138 33.8315 10.7835 30.1058 10.1549 28.6064C9.60557 27.2965 9.30702 25.4886 9.54586 23.5709C9.72535 22.1286 10.2084 20.6244 11.1174 19.2232C12.8515 16.5499 17.1681 14.5436 18.6737 13.9053C19.0061 13.7641 19.2016 13.6896 19.2016 13.6896C19.2016 13.6896 20.6221 12.984 23.1686 13.6953C24.1296 13.9635 25.2507 14.4337 26.516 15.2194C26.6185 15.2832 26.7182 15.347 26.8155 15.412C27.2932 15.729 27.7088 16.0569 28.0715 16.3938C30.609 18.7493 30.5568 21.5294 31.0715 23.9716C31.1428 24.3124 31.2256 24.6467 31.3282 24.9724C31.5976 25.8299 31.4564 27.2502 31.0701 28.8929Z" fill="#3B82F6"/>
<path opacity="0.2" d="M27.8322 16.1806C27.5286 15.9185 27.1914 15.662 26.8153 15.4124C26.7182 15.3474 26.6183 15.2837 26.5159 15.2199C25.2505 14.4341 24.1295 13.964 23.1684 13.6958C21.4785 14.8434 19.9789 16.4218 19.1895 17.3179C19.3239 16.192 19.5485 15.2151 18.6735 13.9056C17.1679 14.5439 12.8513 16.5501 11.1173 19.2235C10.2084 20.6246 9.72535 22.1288 9.54568 23.5712C10.4097 23.839 9.80008 20.4967 12.9938 20.1214C15.8415 19.7866 18.3144 19.6184 18.9771 18.3502C19.0052 18.387 19.0372 18.4216 19.074 18.4529C19.982 19.2258 22.053 20.6636 24.0304 19.7295C24.0699 19.7109 24.1069 19.6882 24.1416 19.6628C24.7192 21.116 25.9061 22.7231 27.0931 22.4938C28.3763 22.2458 30.0137 24.2074 30.9276 24.0555C30.981 24.0467 31.0288 24.0184 31.0711 23.9722C30.5413 21.4558 30.6124 18.5804 27.8322 16.1806Z" fill="#3B82F6"/>
<path d="M13.8703 18.4786C13.8811 18.5268 13.8855 18.6234 13.8855 18.6234C13.9309 18.9594 13.9611 19.3323 13.9901 19.6926C14.0185 20.056 14.0434 20.4207 14.0648 20.7851C14.0859 21.1493 14.1047 21.5144 14.114 21.8745C14.1163 21.9645 14.1181 22.054 14.1179 22.1416C14.1183 22.1725 14.112 22.2272 14.112 22.2272C14.0382 22.6785 13.9608 23.1277 13.7979 23.5334C13.7173 23.7357 13.6147 23.9257 13.4817 24.0852C13.4495 24.1263 13.4145 24.1641 13.3778 24.1998C13.3426 24.2376 13.3042 24.2707 13.2639 24.3048C13.2527 24.3144 13.2411 24.3241 13.2294 24.3337C13.2294 24.3337 12.836 24.4914 12.6221 24.5111C12.4051 24.5337 12.1631 24.5227 11.9358 24.6149C11.7124 24.7085 11.5291 24.8568 11.3391 24.9948C11.1539 25.1372 10.9701 25.3131 10.8879 25.555C10.9882 25.3228 11.178 25.1724 11.37 25.0499C11.5665 24.9321 11.7651 24.8017 11.9721 24.7383C12.179 24.6754 12.4005 24.7053 12.6343 24.7046C12.724 24.704 12.8159 24.6971 12.908 24.6774C12.817 24.817 12.7503 24.9751 12.7071 25.139C12.6472 25.366 12.6273 25.6044 12.6397 25.8395C12.6647 26.3116 12.8031 26.7592 12.9388 27.1992C12.8209 26.7532 12.7019 26.2992 12.6967 25.8388C12.691 25.3861 12.8127 24.9154 13.1014 24.6214C13.1093 24.6133 13.1186 24.6067 13.1266 24.5989C13.2008 24.56 13.3278 24.4334 13.3278 24.4334C13.3319 24.4302 13.3358 24.4271 13.3401 24.4239C13.425 24.3586 13.511 24.2843 13.5848 24.1996C13.7373 24.0332 13.8571 23.8327 13.9522 23.6213C14.0164 23.4792 14.0695 23.3329 14.116 23.1842C14.1326 23.8591 14.1925 24.5426 14.3662 25.1987C14.5561 25.9269 14.8999 26.5955 15.3446 27.1423C14.9551 26.542 14.6909 25.8557 14.5795 25.1459C14.5211 24.7806 14.4985 24.412 14.4989 24.043C14.7109 23.9861 14.9574 24.0842 15.1503 24.2563C15.3595 24.4369 15.5052 24.7069 15.6341 24.9845C15.7637 25.2628 15.8776 25.5601 16.0456 25.8228C16.2101 26.0827 16.4319 26.3186 16.7058 26.4033C16.4377 26.2972 16.2378 26.0516 16.0928 25.7878C15.9451 25.5212 15.8515 25.2237 15.7367 24.9309C15.6225 24.6406 15.4871 24.3376 15.2583 24.109C15.1459 23.9964 15.0161 23.9012 14.8691 23.841C14.7549 23.7939 14.6283 23.7732 14.5026 23.7856C14.51 23.5224 14.5273 23.2593 14.5504 22.997C14.567 22.8176 14.5858 22.6386 14.6072 22.4592C14.6183 22.3753 14.6247 22.2629 14.6289 22.172C14.6335 22.0762 14.6362 21.9823 14.6383 21.8888C14.6464 21.5324 14.6455 21.1805 14.6423 20.828C14.9118 21.4917 15.2118 22.1396 15.5647 22.7604C15.7846 23.1362 16.0143 23.5087 16.3331 23.8298C16.4117 23.9074 16.5081 23.9879 16.6039 24.0417L16.8678 24.1893C17.0449 24.2858 17.225 24.3786 17.4102 24.4589C17.7795 24.6238 18.1655 24.731 18.5495 24.7957C18.934 24.8605 19.318 24.8962 19.702 24.9243C18.9444 24.7733 18.1767 24.6074 17.5063 24.2046C17.3376 24.1073 17.1733 23.9978 17.0104 23.8838L16.7671 23.7096C16.6928 23.6581 16.6338 23.6039 16.5692 23.5332C16.3186 23.2526 16.1119 22.8854 15.9233 22.5176C15.8672 22.4057 15.8132 22.2924 15.7599 22.1784C16.0497 22.0055 16.2639 21.7496 16.497 21.5505C16.6225 21.4439 16.7537 21.3489 16.8991 21.2958C16.9938 21.259 17.0945 21.2402 17.1972 21.2322L17.4434 21.2642C17.4629 21.4516 17.5194 21.7389 17.6199 21.8709C17.7387 22.0265 17.8857 22.1359 18.0332 22.2284C18.1819 22.3192 18.3289 22.4039 18.4812 22.484C18.6333 22.5625 18.7928 22.6277 18.9569 22.6528C18.7955 22.6092 18.6455 22.5281 18.5028 22.4347C18.361 22.3402 18.2195 22.2377 18.0834 22.1341C17.9488 22.0295 17.8229 21.9116 17.735 21.7698C17.6467 21.6288 17.5762 21.4585 17.5914 21.3075C17.5934 21.2873 17.5857 21.2731 17.6013 21.2524C17.8414 21.2901 18.0818 21.3627 18.3228 21.4254L19.2867 21.6832L18.3362 21.3631C18.0198 21.2594 17.7037 21.1354 17.3651 21.0992C17.3573 21.0983 17.349 21.0983 17.3412 21.0976L17.2414 21.0912C17.1123 21.088 16.9817 21.1013 16.8551 21.1409C16.7162 21.1818 16.5893 21.2551 16.4711 21.3377C16.4743 21.124 16.4893 20.9066 16.5143 20.6944C16.5494 20.4114 16.6025 20.1308 16.6908 19.8653C16.7791 19.6013 16.9023 19.3472 17.0886 19.1587C17.1812 19.0653 17.2877 18.9866 17.4069 18.9387C17.526 18.8904 17.6535 18.8687 17.7827 18.866C17.6538 18.858 17.5231 18.8687 17.3977 18.9079C17.2718 18.9468 17.1552 19.0189 17.0517 19.1086C16.8429 19.2896 16.6958 19.5457 16.5857 19.8127C16.4754 20.0814 16.4014 20.3672 16.3459 20.6566C16.2943 20.9379 16.2598 21.2191 16.2458 21.5123C16.0474 21.6777 15.8613 21.8471 15.6561 21.951C15.3997 21.3738 15.1784 20.7732 14.9809 20.1672C14.8503 19.7631 14.7322 19.3545 14.6333 18.9452C14.6124 18.8578 14.5929 18.7705 14.5741 18.6831C14.5706 18.6342 14.545 18.539 14.545 18.539C14.5314 18.4706 14.5173 18.4019 14.5059 18.3341C14.4721 18.1342 14.4461 17.9291 14.4476 17.762L13.7638 17.7581C13.7767 18.0263 13.8215 18.2525 13.8703 18.4786Z" fill="white"/>
<path d="M29.5142 30.2163C29.5055 30.1645 29.4935 30.1133 29.4811 30.0624C29.4559 29.9606 29.428 29.8597 29.3993 29.759C29.3415 29.5577 29.2802 29.3576 29.2178 29.1579L29.1227 28.8585L29.0682 28.7059L29.0038 28.5564C28.9121 28.359 28.795 28.1708 28.6538 27.9995C28.3724 27.6548 27.9934 27.3914 27.5844 27.2109C27.379 27.1218 27.1655 27.0505 26.9472 26.999C26.838 26.9731 26.7277 26.9516 26.6158 26.9349C26.5598 26.9267 26.5037 26.9193 26.4465 26.9138C26.436 26.9127 26.4251 26.912 26.4145 26.9109L26.4102 26.8989C26.3725 26.81 26.3321 26.7221 26.2928 26.6335C26.2828 26.6115 26.2733 26.5891 26.2627 26.5672L26.2284 26.5028L26.1594 26.3738C26.0661 26.2024 25.9565 26.038 25.8374 25.8786C25.8069 25.8392 25.774 25.801 25.7423 25.7621C25.7261 25.7429 25.7107 25.7232 25.6937 25.7044L25.6415 25.6484L25.5891 25.5925L25.5475 25.5522C25.6045 25.4282 25.6599 25.3035 25.7132 25.1783C25.9661 24.5806 26.1787 23.9705 26.3712 23.3554C26.4671 23.0476 26.5573 22.7384 26.6424 22.4276C26.7272 22.1155 26.8071 21.807 26.8804 21.4859L26.2248 21.3566C26.1885 21.5548 26.1474 21.7569 26.1043 21.9587C26.0822 21.9704 26.06 21.9821 26.0377 21.994C25.9613 22.0359 25.8846 22.0773 25.8099 22.121C25.7343 22.1636 25.6597 22.2075 25.5859 22.2525C25.5115 22.2965 25.4381 22.3418 25.3653 22.3885C25.3142 22.4208 25.2634 22.4539 25.2126 22.4867C25.1937 22.4633 25.1744 22.4404 25.1556 22.4171C25.1147 22.3743 25.0757 22.3294 25.0324 22.2901L24.9677 22.2315C24.9464 22.2116 24.9245 22.1928 24.9012 22.1757C24.8551 22.1413 24.8111 22.104 24.7634 22.0729L24.6202 21.9811C24.5206 21.9285 24.4234 21.8722 24.3198 21.8326C23.9114 21.659 23.4821 21.5836 23.0611 21.566C23.0086 21.5605 22.9558 21.5631 22.9033 21.5626L22.7458 21.5628C22.6399 21.5614 22.5389 21.5669 22.4365 21.5702L21.8226 21.5926L20.595 21.6374L21.8194 21.7365L22.4317 21.786C22.5334 21.7946 22.6369 21.8011 22.735 21.8143L22.8838 21.8317C22.9331 21.8381 22.983 21.8413 23.0313 21.8523C23.4226 21.9143 23.8014 22.0324 24.1268 22.2192C24.2104 22.2624 24.2837 22.3191 24.3597 22.3704L24.4648 22.4571C24.4997 22.4858 24.5295 22.5192 24.5621 22.5496C24.5787 22.5647 24.5934 22.581 24.6073 22.5979L24.6504 22.6475C24.6792 22.6803 24.7024 22.7164 24.7285 22.7501C24.738 22.7658 24.748 22.781 24.7577 22.7965C24.6758 22.8551 24.5944 22.9142 24.5144 22.9752C23.963 23.3871 23.4483 23.8483 22.9903 24.3602C22.9338 24.4249 22.8743 24.4865 22.8203 24.5535L22.6589 24.754L22.3443 25.1465L22.3053 25.1954L22.2638 25.2419L22.1805 25.3346L22.097 25.4275C22.0691 25.4586 22.0418 25.49 22.0116 25.5184L21.834 25.6941C21.8192 25.7087 21.8045 25.7238 21.7893 25.7378L21.7423 25.7788L21.6483 25.8611C21.3964 26.0788 21.1236 26.2754 20.8261 26.43C20.5294 26.5816 20.2087 26.7074 19.8693 26.7283C20.2101 26.7315 20.5442 26.628 20.8574 26.4948C21.1715 26.3589 21.4651 26.1777 21.7393 25.9729L21.8419 25.8953L21.8932 25.8564C21.91 25.8431 21.9257 25.8287 21.9422 25.8151L22.1374 25.6477C22.1707 25.6206 22.2011 25.5904 22.2318 25.5607L22.3242 25.4715L22.4168 25.3822L22.463 25.3373L22.5066 25.2902L22.853 24.9161L23.0225 24.7336C23.079 24.6728 23.1412 24.617 23.2 24.5586C23.2715 24.4893 23.3447 24.4215 23.4183 24.3545C23.4138 24.3833 23.4099 24.4119 23.4049 24.4407C23.3949 24.5044 23.3836 24.568 23.3715 24.6316C23.3236 24.8854 23.2692 25.1392 23.1984 25.3881C23.1827 25.4511 23.162 25.5122 23.1434 25.5744C23.1246 25.6364 23.1058 25.6987 23.0835 25.7593C23.0617 25.8202 23.0411 25.8818 23.0182 25.9426L22.9447 26.1229C22.8407 26.3605 22.7191 26.5921 22.5609 26.8028C22.7447 26.6138 22.8981 26.3955 23.0343 26.1676L23.1325 25.9941C23.1636 25.9355 23.1923 25.8758 23.2226 25.8163C23.2535 25.7571 23.2805 25.6966 23.3076 25.636C23.3345 25.5753 23.3638 25.5151 23.3879 25.4534C23.4927 25.2087 23.581 24.9577 23.6632 24.7042C23.684 24.641 23.7038 24.5773 23.7224 24.5133C23.7419 24.4495 23.7603 24.3854 23.778 24.3211C23.8102 24.2055 23.84 24.0917 23.8677 23.9718C24.1548 23.7418 24.4543 23.527 24.7641 23.3283C25.0421 23.1467 25.3295 22.9794 25.6217 22.823C25.6944 22.7833 25.7677 22.7448 25.8419 22.7079C25.876 22.6903 25.9106 22.6739 25.9449 22.6569C25.9013 22.8368 25.8566 23.0166 25.8092 23.1954C25.6476 23.8041 25.4661 24.408 25.2473 24.995C25.1377 25.2882 25.0188 25.5776 24.886 25.8584C24.753 26.1387 24.6061 26.4117 24.4352 26.6626C24.4135 26.6937 24.3933 26.7264 24.3704 26.7561L24.3022 26.8456C24.2582 26.9074 24.2067 26.9596 24.1588 27.0168C24.1352 27.0461 24.1075 27.0687 24.0819 27.0951C24.0549 27.1212 24.0322 27.145 24.0018 27.1734L23.8223 27.3427C23.5871 27.5725 23.3645 27.8185 23.1729 28.0883C23.0198 28.3022 22.8879 28.5295 22.769 28.7583C22.7417 28.7496 22.7148 28.7423 22.6878 28.7345C22.6526 28.7238 22.6179 28.7182 22.5831 28.7103L22.5309 28.6997L22.4789 28.6922C22.4442 28.6876 22.4097 28.6819 22.3752 28.6782L22.2719 28.6707C22.203 28.6638 22.1349 28.6681 22.0666 28.6672C21.7945 28.6738 21.5312 28.7251 21.2806 28.8009C20.7802 28.9585 20.3324 29.2157 19.935 29.521C19.5501 29.8169 19.1532 30.0965 18.7372 30.348C18.5296 30.4742 18.3171 30.5932 18.0984 30.7002C17.989 30.7538 17.8782 30.8046 17.7656 30.8511C17.6528 30.8975 17.5384 30.9408 17.4198 30.9719C17.5409 30.9524 17.6601 30.9204 17.7777 30.8849C17.8955 30.8494 18.0119 30.8092 18.1272 30.7661C18.358 30.6801 18.5842 30.581 18.8064 30.4742C19.2515 30.2616 19.682 30.0178 20.1007 29.757C20.5049 29.5046 20.9427 29.3121 21.3898 29.2187C21.6131 29.1745 21.8385 29.154 22.0564 29.1705C22.1104 29.1769 22.1653 29.178 22.2177 29.1894L22.2969 29.2029C22.3228 29.2082 22.3482 29.2153 22.3737 29.2213L22.412 29.2306L22.4488 29.2423C22.4708 29.2498 22.4937 29.256 22.5148 29.2643C22.4267 29.4357 22.3346 29.6013 22.2272 29.7558C22.1812 29.8169 22.1362 29.8791 22.0881 29.9386C22.0366 29.9952 21.9889 30.0554 21.9343 30.11C21.8786 30.1638 21.8258 30.2176 21.7674 30.2719C21.7076 30.3263 21.6488 30.3813 21.5902 30.4364C21.3565 30.6581 21.1306 30.8863 20.9105 31.12C20.4723 31.5889 20.054 32.0772 19.6838 32.601C19.5915 32.7321 19.502 32.8651 19.4181 33.0017C19.3336 33.1377 19.2538 33.2772 19.1825 33.4207C19.1112 33.564 19.0458 33.7107 18.9968 33.8633C18.9481 34.0155 18.9133 34.1736 18.9124 34.3333C18.9201 34.1738 18.9617 34.0187 19.0164 33.8701C19.0715 33.7212 19.1426 33.5788 19.2195 33.4399C19.2962 33.301 19.3811 33.1665 19.4707 33.0354C19.5595 32.9038 19.6541 32.7759 19.751 32.65C20.1404 32.1472 20.576 31.681 21.0301 31.2359C21.0601 31.2065 21.0907 31.1776 21.1211 31.1485C21.1399 31.1996 21.1563 31.2522 21.1738 31.3044C21.2087 31.4188 21.2411 31.5348 21.2682 31.6524C21.3233 31.8873 21.3639 32.1273 21.3851 32.3699L21.3941 32.461L21.3991 32.5523C21.4018 32.6133 21.4073 32.6744 21.4077 32.7355C21.408 32.8577 21.4112 32.9806 21.4027 33.1029C21.3948 33.3489 21.3585 33.5933 21.3156 33.8379C21.3909 33.6019 21.4608 33.3612 21.5022 33.1141C21.5278 32.9912 21.5414 32.8665 21.558 32.7417C21.5661 32.6791 21.5689 32.6164 21.5746 32.5536L21.5822 32.4593L21.5857 32.3648C21.5975 32.1124 21.5895 31.8582 21.5652 31.6046C21.5534 31.4776 21.536 31.3509 21.5153 31.2241C21.5033 31.1609 21.4928 31.0973 21.4785 31.0339C21.472 31.0021 21.4647 30.9703 21.4567 30.9382L21.4445 30.8897C21.4415 30.8781 21.4382 30.8668 21.4348 30.8545C21.5326 30.765 21.6313 30.6765 21.7312 30.5895C21.7913 30.5378 21.8516 30.4861 21.9123 30.4355C21.9731 30.3837 22.0353 30.3263 22.0968 30.2716C22.1578 30.2156 22.2127 30.1529 22.271 30.0936C22.326 30.0314 22.3777 29.9664 22.4304 29.9021C22.6321 29.6373 22.786 29.3464 22.939 29.0697C23.0912 28.7915 23.2521 28.5279 23.4421 28.2851C23.6312 28.042 23.849 27.8217 24.0796 27.6148L24.2557 27.4626L24.351 27.3775C24.3824 27.3479 24.4175 27.3205 24.4457 27.2887C24.5036 27.2264 24.5666 27.1663 24.6184 27.1003L24.6996 27.0029C24.7267 26.9704 24.7502 26.9362 24.7755 26.9028C24.9713 26.6404 25.1365 26.3632 25.2868 26.0808L25.2875 26.0815C25.3024 26.0959 25.3163 26.1118 25.3308 26.1268C25.3594 26.1575 25.3889 26.1872 25.417 26.2188C25.5267 26.3477 25.6317 26.4838 25.7239 26.6299L25.7926 26.7402L25.8271 26.7955C25.8378 26.8143 25.8474 26.8338 25.8578 26.853C25.898 26.9303 25.9399 27.0068 25.9794 27.0848L26.0849 27.326L26.1113 27.3864C26.1197 27.4068 26.1262 27.4278 26.1337 27.4486L26.1776 27.5734C26.3089 27.945 26.4004 28.3331 26.4579 28.7288C26.4465 28.7826 26.4315 28.8505 26.4263 28.8739C26.4181 28.9118 26.4082 28.9498 26.3984 28.9876C26.378 29.0633 26.3544 29.1386 26.3276 29.2126C26.2744 29.3609 26.2089 29.5048 26.1299 29.6402C25.9722 29.9096 25.7541 30.1467 25.4722 30.2835C25.437 30.3002 25.4018 30.3174 25.3648 30.3302C25.3464 30.3369 25.3283 30.3446 25.3095 30.3508L25.2529 30.3675C25.2153 30.3801 25.1762 30.3865 25.1375 30.3954L25.0129 30.4215C24.9708 30.4305 24.9286 30.4385 24.8867 30.4485L24.7623 30.4844L24.7005 30.5025L24.6398 30.5256C24.5998 30.5417 24.5587 30.5547 24.5197 30.5733C24.3619 30.6428 24.2137 30.7385 24.0942 30.862C23.9786 30.9874 23.889 31.1438 23.8781 31.3122C23.9058 31.1462 24.0084 31.0053 24.1291 30.8977C24.2542 30.7922 24.4014 30.7165 24.5565 30.6659C24.5948 30.652 24.6352 30.6435 24.6744 30.6321L24.7333 30.616L24.7938 30.6046L24.9143 30.5824C24.9548 30.5769 24.996 30.5733 25.0365 30.5687L25.1606 30.5552C25.2046 30.5497 25.2491 30.5467 25.2925 30.5369L25.3583 30.5243C25.3801 30.5195 25.4016 30.513 25.4232 30.5073C25.4668 30.4968 25.509 30.4813 25.5514 30.4662C25.7211 30.405 25.8769 30.3089 26.0164 30.1956C26.1556 30.0814 26.2763 29.9471 26.3814 29.8037C26.4352 29.7299 26.4848 29.6533 26.5307 29.5748C26.5318 29.6107 26.5329 29.6466 26.5334 29.6823C26.5339 29.8631 26.5287 30.0442 26.5268 30.2258C26.5262 30.316 26.5223 30.4085 26.5187 30.5007L26.5082 30.7773C26.4994 30.9613 26.4987 31.1462 26.4951 31.3305C26.4899 31.5147 26.4944 31.6996 26.495 31.884C26.5019 32.2529 26.5144 32.6223 26.5575 32.9894C26.5657 33.0813 26.5827 33.1727 26.5947 33.264C26.6002 33.3099 26.6115 33.355 26.6197 33.4004C26.6296 33.4457 26.6356 33.4914 26.6485 33.536C26.6603 33.5807 26.6712 33.6257 26.6837 33.6701C26.6991 33.7139 26.7122 33.7582 26.7291 33.8013C26.7477 33.8438 26.7649 33.8869 26.7896 33.9264C26.8128 33.9656 26.8402 34.0061 26.8807 34.029C26.8419 34.0036 26.818 33.9622 26.7974 33.9221C26.7756 33.8818 26.7617 33.8381 26.7461 33.7953C26.7322 33.7519 26.722 33.7072 26.7098 33.6633C26.7004 33.6186 26.6925 33.5736 26.6837 33.5289C26.6739 33.4843 26.6709 33.4383 26.6641 33.3932C26.6589 33.3477 26.6507 33.3029 26.6482 33.2571C26.6421 33.1658 26.6312 33.0752 26.6292 32.9836C26.6104 32.6184 26.6222 32.2518 26.6392 31.8865C26.6508 31.7037 26.6583 31.5209 26.6755 31.3385C26.6912 31.1559 26.7038 30.9735 26.7245 30.7915L26.7529 30.5183C26.7624 30.4272 26.7724 30.3366 26.7792 30.2433C26.7935 30.0579 26.811 29.8723 26.8226 29.686C26.8582 28.9503 26.7996 28.2006 26.5995 27.4729C26.685 27.4766 26.7708 27.4832 26.8562 27.4933C27.0508 27.5161 27.2433 27.5567 27.4306 27.6136C27.8036 27.7297 28.1573 27.918 28.4405 28.193C28.5825 28.3294 28.7074 28.4855 28.8122 28.6564L28.8873 28.7869L28.9543 28.9226L29.0827 29.2075C29.1674 29.3981 29.2511 29.5892 29.3313 29.7815C29.3712 29.8778 29.4105 29.9743 29.447 30.0718C29.4649 30.1206 29.4826 30.1695 29.4971 30.2192C29.5037 30.2439 29.5117 30.2696 29.5114 30.2936C29.5122 30.3071 29.4981 30.2956 29.4899 30.2867C29.481 30.2773 29.4729 30.267 29.4654 30.2563C29.4717 30.2678 29.4785 30.279 29.4865 30.2895C29.4904 30.2948 29.4949 30.3 29.5006 30.3043C29.5033 30.3062 29.5085 30.3089 29.5135 30.306C29.5189 30.3028 29.5187 30.2988 29.5203 30.295C29.5235 30.2682 29.5181 30.2426 29.5142 30.2163Z" fill="white"/>
<path d="M30.2595 9.98331C30.1914 10.0963 30.0488 10.1387 29.9294 10.0821C29.3003 9.78278 27.2805 8.99755 25.1801 10.0563C24.7636 10.2661 24.3599 10.5609 23.9763 10.9076C23.9754 10.908 23.975 10.9089 23.9741 10.9094C22.0239 12.6699 20.5852 15.7554 20.5852 15.7554C20.5852 15.7554 17.9892 15.7599 17.0888 14.353C16.8852 14.0347 16.9016 13.5043 17.0816 12.8559C17.6961 10.6403 20.2157 7.04752 22.3429 5.8353C22.3897 5.80865 22.4378 5.78308 22.4859 5.75821L20.7121 4.24156C20.3935 3.61333 21.3498 2.66913 21.3498 2.66913C21.8707 2.25174 22.956 3.08831 23.807 3.90196C23.807 3.90196 23.8073 3.90196 23.8079 3.90285H23.8082V3.90338C24.4695 4.53516 24.9881 5.15219 24.9908 5.15485C25.1404 5.14597 25.2911 5.14029 25.4417 5.13798C25.7161 5.13354 25.991 5.13834 26.2619 5.15166L25.9562 3.10962C25.9276 2.91975 26.0096 2.72935 26.1687 2.62047C26.3813 2.47482 26.7083 2.34694 27.0701 2.54871C27.1645 2.60146 27.2287 2.69436 27.2444 2.80057L27.3862 3.74708L27.6157 5.27741C28.0056 5.32963 28.3719 5.39161 28.7001 5.45449C29.3315 5.5758 29.8233 5.70102 30.0774 5.77011C30.2075 5.80546 30.3201 5.88521 30.3981 5.99462C31.5263 7.57326 30.6187 9.38653 30.2595 9.98331Z" fill="#93C5FD"/>
<path opacity="0.2" d="M23.9736 10.9094C22.0234 12.6699 20.5846 15.7555 20.5846 15.7555C20.5846 15.7555 17.9887 15.7599 17.0882 14.353C16.8846 14.0347 16.901 13.5044 17.081 12.8559L17.245 12.7307C17.2452 12.7307 19.2703 14.7709 23.9736 10.9094Z" fill="#3B82F6"/>
<path opacity="0.2" d="M25.4413 5.13816C25.3125 5.36747 23.9736 5.32324 23.9736 5.32324C24.6402 4.94918 23.8434 3.94832 23.8078 3.90356C24.4691 4.53534 24.9877 5.15237 24.9904 5.15504C25.14 5.14616 25.2907 5.1403 25.4413 5.13816Z" fill="#3B82F6"/>
<path opacity="0.2" d="M28.6997 5.45472C27.916 5.58669 27.1416 5.32684 27.1416 5.32684C27.4784 4.932 27.3858 3.74731 27.3858 3.74731L27.6153 5.27764C28.005 5.32986 28.3713 5.39185 28.6997 5.45472Z" fill="#3B82F6"/>
<path opacity="0.3" d="M20.1806 8.42193C20.3329 7.98713 20.8192 7.0376 22.2692 6.41311C22.3518 6.37758 22.431 6.47012 22.382 6.54507C22.1254 6.93654 21.4949 7.75801 20.3163 8.52743C20.2437 8.5745 20.152 8.50328 20.1806 8.42193Z" fill="white"/>
<path opacity="0.2" d="M31.0701 28.8929C30.0795 33.1125 27.4766 38.7997 26.0909 40.1764C24.1661 42.0888 21.8562 41.9401 19.5465 40.1764C18.7458 39.5651 17.487 38.2626 16.1441 36.7266C16.1447 36.7266 16.1447 36.727 16.145 36.727C27.1203 41.2624 30.9909 29.1453 31.0701 28.8929Z" fill="#3B82F6"/>
<path d="M17.9826 16.9245C17.8542 18.6936 15.4162 18.8533 12.548 19.2234C12.359 19.2474 12.1858 19.2849 12.0258 19.3332H12.0252C11.8082 19.3982 11.6167 19.4836 11.4464 19.5841C11.446 19.5845 11.4455 19.585 11.4451 19.585C11.3311 19.6527 11.2263 19.7271 11.131 19.8072C10.8832 20.014 10.6934 20.2575 10.5432 20.5129C9.93093 21.5537 9.98009 22.7919 9.46273 22.5505C8.64199 22.1681 9.64132 16.6858 11.0529 14.5184C11.6312 13.63 12.4185 12.8113 13.2023 12.205C14.3299 11.332 15.4501 10.8986 15.929 11.3311C16.3113 11.6764 16.6304 11.9986 16.8949 12.3014C18.5881 14.2358 18.0936 15.3956 17.9826 16.9245Z" fill="#3B82F6"/>
<path d="M17.9826 16.9245C17.8542 18.6935 15.4162 18.8532 12.548 19.2233C12.359 19.2473 12.1858 19.2848 12.0258 19.3331C20.12 16.2431 16.1441 12.92 16.1441 12.92L16.8953 12.3015C18.5881 14.2357 18.0936 15.3956 17.9826 16.9245Z" fill="#93C5FD"/>
<path d="M19.8089 5.56268C19.7964 5.6561 19.742 5.73887 19.6602 5.78718C19.3389 5.97705 18.451 6.58361 18.0686 7.68233V7.68269C18.1265 8.17326 18.1533 8.69385 18.1354 9.24889C18.0712 11.2463 17.2452 12.7307 17.2452 12.7307C17.2452 12.7307 15.7565 13.1401 14.3476 12.7547C13.9475 12.6449 13.5537 12.4708 13.2026 12.2053C13.2026 12.2053 14.9656 6.74168 13.6508 4.57425C12.3365 2.40682 16.3143 1.74414 16.8277 3.2869C16.9423 3.6313 17.075 3.99026 17.2114 4.36929L19.0881 3.38033C19.1861 3.32846 19.3091 3.36754 19.3571 3.467C19.8641 4.50729 19.8486 5.25274 19.8089 5.56268Z" fill="#93C5FD"/>
<path opacity="0.2" d="M18.1354 9.24889C18.0713 11.2463 17.2452 12.7307 17.2452 12.7307C17.2452 12.7307 15.7565 13.1401 14.3476 12.7546H14.3494C18.1376 12.6488 18.0695 7.73863 18.0686 7.68286C18.1265 8.17325 18.1533 8.69384 18.1354 9.24889Z" fill="#3B82F6"/>
<path opacity="0.3" d="M14.5234 5.29998C14.6871 6.2797 14.7799 7.96456 14.1215 10.013C14.0834 10.1315 14.2386 10.2151 14.3171 10.1181C14.8895 9.41087 15.8262 7.74378 14.7395 5.23817C14.6866 5.11615 14.5014 5.1689 14.5234 5.29998Z" fill="white"/>
<path d="M19.2104 3.60199C19.3339 3.86184 19.7476 4.80071 19.6251 5.49412C19.6219 5.51242 19.5978 5.51775 19.587 5.50247C19.476 5.34652 19.0883 4.71546 19.1702 3.60945C19.1718 3.58814 19.2011 3.58263 19.2104 3.60199Z" fill="#3B82F6"/>
<path d="M30.9279 23.2128C30.1299 23.3451 28.7807 21.867 27.5974 21.6545C27.4249 21.6236 27.2565 21.6196 27.0935 21.651C26.0371 21.8551 24.9806 20.6045 24.3542 19.3026C24.2192 19.0232 24.1046 18.7413 24.0138 18.4708C23.5004 16.9408 25.9488 14.8828 25.9488 14.8828C28.9105 13.5898 29.275 15.4109 30.1857 16.3034C30.3028 16.4179 30.417 16.6146 30.5251 16.8708C30.5255 16.8712 30.5255 16.8712 30.5255 16.8712C30.7323 17.3595 30.9172 18.0637 31.0588 18.8269V18.8273C31.4211 20.7798 31.5002 23.1172 30.9279 23.2128Z" fill="#3B82F6"/>
<path opacity="0.2" d="M30.5252 16.871C30.4774 16.8254 27.55 14.0441 24.3542 19.3027C24.2192 19.0234 24.1046 18.7415 24.0138 18.471C23.5004 16.9408 25.9488 14.8828 25.9488 14.8828C28.9105 13.5898 29.275 15.4109 30.1857 16.3034C30.3029 16.4181 30.417 16.6147 30.5252 16.871Z" fill="#3B82F6"/>
<path opacity="0.2" d="M30.9279 23.2128C30.1299 23.3451 28.7807 21.867 27.5974 21.6546C27.842 21.5943 31.1963 22.4563 31.059 18.8276C31.4212 20.7798 31.5002 23.1172 30.9279 23.2128Z" fill="#3B82F6"/>
<path opacity="0.3" d="M26.1782 18.6067C26.1941 19.2072 26.4268 20.1548 27.742 20.1237C27.8139 20.1219 27.8404 20.0415 27.7807 20.0072C27.4138 19.7969 26.6163 19.2765 26.3206 18.584C26.2919 18.5166 26.1762 18.5351 26.1782 18.6067Z" fill="white"/>
<path d="M33.5946 16.6359C33.2841 16.8112 32.9014 16.8037 32.593 16.6244C32.2494 16.4247 31.7104 16.1343 31.0706 15.8704L31.0702 15.87C30.0552 15.4509 28.7871 15.0976 27.6439 15.2764C25.6224 15.5926 24.4323 17.64 24.1062 18.2801C24.0376 18.4142 23.9271 18.5227 23.7903 18.5868C22.9397 18.9888 22.0713 18.9516 21.2863 18.7174C20.2464 18.4071 19.3513 17.751 18.8339 17.3105C18.5581 17.0755 18.5261 16.6641 18.7622 16.3901C19.9317 15.0315 23.4433 11.2607 26.4522 11.1616C27.8035 11.1174 29.2895 11.406 30.6285 11.7881C31.3418 11.5167 32.6055 11.2817 33.4003 10.9771C33.624 10.8917 33.8726 10.9014 34.0897 11.002L34.3512 11.1233C34.6011 11.2393 34.6226 11.5833 34.3895 11.7302C34.3895 11.7302 34.3846 11.7332 34.3752 11.7391C34.0868 11.9233 33.7398 12.203 33.4212 12.6168C33.3901 12.6572 33.3553 12.6925 33.3179 12.7239C33.5687 12.8262 33.7941 12.9218 33.989 13.0072C34.2264 13.1113 34.4186 13.1994 34.5554 13.2635C34.7077 13.3353 34.8097 13.4827 34.8217 13.6495C34.8668 14.2972 34.8462 15.9311 33.5946 16.6359Z" fill="#93C5FD"/>
<path d="M34.6422 13.8017C34.654 14.3451 34.5673 15.7043 33.4829 16.4015C33.2711 16.5375 32.984 16.3811 33.021 16.1484C33.112 15.5779 33.4198 14.6067 34.4379 13.7264C34.5139 13.6609 34.6401 13.7067 34.6422 13.8017Z" fill="#3B82F6"/>
<path d="M33.7209 11.0817C33.7064 11.0323 33.7518 10.9858 33.8015 10.999C33.972 11.0437 34.3807 11.1732 34.4431 11.4023C34.5132 11.659 33.7985 11.3458 33.7209 11.0817Z" fill="#3B82F6"/>
<path opacity="0.2" d="M31.0701 15.87C30.055 15.4508 28.787 15.0976 27.6437 15.2764C25.6222 15.5926 24.4321 17.6399 24.106 18.2801C24.0374 18.4142 23.9269 18.5227 23.7901 18.5868C22.9396 18.9887 22.0711 18.9516 21.2861 18.7174C26.0014 11.6332 31.0701 15.87 31.0701 15.87Z" fill="#3B82F6"/>
<path opacity="0.2" d="M33.3176 12.7239C33.5684 12.8263 33.7938 12.9218 33.9887 13.0072H33.9881C33.3337 13.0467 32.5258 12.5424 32.5258 12.5424C33.1073 12.5026 34.2363 11.8234 34.3748 11.7389C34.0865 11.9231 33.7395 12.2028 33.4209 12.6167C33.3898 12.6572 33.3549 12.6925 33.3176 12.7239Z" fill="#3B82F6"/>
<path opacity="0.3" d="M22.8716 13.3512C23.5724 12.607 25.0684 11.4477 27.4844 11.6199C27.6271 11.63 27.6384 11.8335 27.4975 11.8584C26.4653 12.0404 24.6824 12.4839 23.0162 13.5249C22.9027 13.5956 22.7801 13.4482 22.8716 13.3512Z" fill="white"/>
</g>
<defs>
<clipPath id="clip0_1813_7452">
<rect width="25.6667" height="39.1111" fill="white" transform="translate(9.16667 2.44446)"/>
</clipPath>
</defs>
</svg>
