<svg width="35" height="38" viewBox="0 0 35 38" fill="none" xmlns="http://www.w3.org/2000/svg">
<g clip-path="url(#clip0_1813_9119)">
<path d="M23.3571 3.67214C19.5619 4.31688 20.4745 8.77007 19.6607 8.06693C17.4661 5.91749 17.6389 2.29756 18.0195 0.055542C17.1858 0.576011 16.2366 0.870443 15.2301 0.870443C14.9028 0.870443 14.5819 0.838748 14.2681 0.779528C13.9345 2.83805 13.7123 6.05762 14.9044 8.57489C16.8099 12.5985 20.5557 13.8096 19.9975 18.9659C19.4393 24.1222 17.4342 23.2631 17.4342 23.2631C12.9335 20.529 12.4733 23.1464 10.3376 22.6384C7.41356 21.1537 5.14649 21.5841 2.87942 24.5134C0.37425 27.9007 0.619511 33.0628 1.5273 37.3333C2.63017 35.7486 6.40783 36.3791 7.84277 35.0221C7.2766 33.0937 7.25271 31.4288 7.18423 30.4888C8.36673 32.4814 11.0909 30.7182 11.0909 30.7182C17.6691 38.1007 31.567 36.8704 34.0801 20.6992C36.5933 4.52791 27.1523 3.02739 23.3571 3.67214Z" fill="#3B82F6"/>
<path d="M20.6356 34.4416C17.1573 34.4416 13.8081 32.921 11.4455 30.2711L11.1731 29.965L10.8435 30.1786C10.5664 30.3579 9.67131 30.8233 8.86704 30.8233C8.29371 30.8233 7.88202 30.5981 7.6065 30.1343L6.50203 28.2743L6.66845 30.5422C6.67801 30.674 6.68597 30.8191 6.69632 30.9784C6.70429 31.1194 6.71305 31.272 6.72419 31.433C5.08859 30.3195 3.39804 29.407 1.68121 28.7122C1.97585 27.2226 2.50698 25.9506 3.26426 24.9238C4.58692 23.2156 5.88569 22.4207 7.35088 22.4207C8.187 22.4207 9.09717 22.6768 10.1348 23.2031L10.1833 23.2281L10.2359 23.2406C10.4604 23.294 10.6762 23.3199 10.8944 23.3199C11.4638 23.3199 11.9312 23.1397 12.3843 22.9646C12.8581 22.7819 13.3056 22.6092 13.9084 22.6092C14.7931 22.6092 15.8697 23.0021 17.1995 23.8095L17.229 23.8278L17.2601 23.8412C17.3086 23.8629 17.491 23.9313 17.757 23.9313C18.1607 23.9313 18.7587 23.7728 19.3129 23.0213C19.8146 22.3382 20.1801 21.2839 20.4007 19.8793C22.7816 20.5482 25.2326 21.7376 27.5316 20.8743C31.4438 19.4063 33.3087 20.6391 33.5572 20.675C31.9487 30.8225 25.8331 34.4416 20.6356 34.4416Z" fill="white"/>
<path d="M32.6667 18.3883C32.6667 19.0637 32.1186 19.6111 31.4439 19.6111C30.7692 19.6111 30.2222 19.0637 30.2222 18.3883C30.2222 17.714 30.7692 17.1666 31.4439 17.1666C32.1186 17.1656 32.6667 17.713 32.6667 18.3883Z" fill="white"/>
<path d="M29.6111 19C29.6111 19.3375 29.3372 19.6111 29 19.6111C28.6628 19.6111 28.3889 19.3375 28.3889 19C28.3889 18.6625 28.6628 18.3889 29 18.3889C29.3372 18.3889 29.6111 18.6634 29.6111 19Z" fill="white"/>
<path d="M29 17.1667C29 17.5045 28.7268 17.7778 28.3897 17.7778C28.0509 17.7778 27.7778 17.5045 27.7778 17.1667C27.7778 16.8288 28.0509 16.5555 28.3897 16.5555C28.7268 16.5555 29 16.8288 29 17.1667Z" fill="white"/>
<path d="M33.8889 19.9166C33.8889 20.0856 33.7525 20.2222 33.5833 20.2222C33.415 20.2222 33.2778 20.0856 33.2778 19.9166C33.2778 19.7477 33.415 19.6111 33.5833 19.6111C33.7517 19.6111 33.8889 19.7477 33.8889 19.9166Z" fill="white"/>
<path d="M33.8889 16.5556C33.8889 16.8934 33.6161 17.1667 33.2778 17.1667C32.941 17.1667 32.6667 16.8934 32.6667 16.5556C32.6667 16.2177 32.9395 15.9445 33.2778 15.9445C33.6145 15.9445 33.8889 16.2177 33.8889 16.5556Z" fill="white"/>
<path d="M30.8333 16.8611C30.8333 17.0295 30.6969 17.1667 30.5278 17.1667C30.3572 17.1667 30.2222 17.0295 30.2222 16.8611C30.2222 16.6927 30.3587 16.5556 30.5278 16.5556C30.6969 16.5542 30.8333 16.6914 30.8333 16.8611Z" fill="white"/>
<path d="M32.3611 15.3333C32.5298 15.3333 32.6667 15.1965 32.6667 15.0277C32.6667 14.859 32.5298 14.7222 32.3611 14.7222C32.1923 14.7222 32.0555 14.859 32.0555 15.0277C32.0555 15.1965 32.1923 15.3333 32.3611 15.3333Z" fill="white"/>
<path d="M30.2222 15.6389C30.2222 15.8074 30.0858 15.9445 29.9167 15.9445C29.7476 15.9445 29.6111 15.8074 29.6111 15.6389C29.6111 15.4705 29.7491 15.3334 29.9167 15.3334C30.0858 15.3334 30.2222 15.4705 30.2222 15.6389Z" fill="white"/>
<path d="M31.1389 15.3333C30.9695 15.3333 30.8333 15.1966 30.8333 15.0277C30.8333 14.8588 30.9695 14.7222 31.1389 14.7222C31.3065 14.7222 31.4445 14.8588 31.4445 15.0277C31.4445 15.1966 31.3065 15.3333 31.1389 15.3333ZM31.1389 14.802C31.0132 14.802 30.9119 14.9034 30.9119 15.0277C30.9119 15.1521 31.0132 15.2534 31.1389 15.2534C31.2629 15.2534 31.3641 15.1521 31.3641 15.0277C31.3641 14.9034 31.2629 14.802 31.1389 14.802Z" fill="white"/>
<path d="M28.6958 15.9445C28.5262 15.9445 28.3889 15.8071 28.3889 15.6389C28.3889 15.4708 28.5262 15.3334 28.6958 15.3334C28.8627 15.3334 29 15.4708 29 15.6389C29 15.8071 28.8627 15.9445 28.6958 15.9445ZM28.6958 15.4139C28.5693 15.4139 28.467 15.5158 28.467 15.6413C28.467 15.7645 28.5693 15.8663 28.6958 15.8663C28.8196 15.8663 28.9219 15.7645 28.9219 15.6413C28.9219 15.5158 28.8196 15.4139 28.6958 15.4139Z" fill="white"/>
<path d="M31.4445 16.25C31.4445 16.4177 31.307 16.5556 31.1378 16.5556C30.9687 16.5556 30.8333 16.4177 30.8333 16.25C30.8333 16.0823 30.9687 15.9445 31.1378 15.9445C31.307 15.9445 31.4445 16.0805 31.4445 16.25Z" fill="white"/>
<path d="M30.2222 14.4166C30.2222 14.5855 30.0854 14.7222 29.9167 14.7222C29.7479 14.7222 29.6111 14.5855 29.6111 14.4166C29.6111 14.2478 29.7479 14.1111 29.9167 14.1111C30.0854 14.1111 30.2222 14.2478 30.2222 14.4166Z" fill="white"/>
</g>
<defs>
<clipPath id="clip0_1813_9119">
<rect width="33.6111" height="37.2778" fill="white" transform="translate(0.888885 0.055542)"/>
</clipPath>
</defs>
</svg>
